<svg id="b2684276-9cfd-4827-87c1-8c4a9e8025b7" data-name="Capa 1" xmlns="http://www.w3.org/2000/svg"
    viewBox="0 0 420.55 943.29">
    <defs>
        <style>
            .b5319d23-008c-4dfa-9ca5-8f7c2d92e28e {
                fill: none;
                stroke: #fd893b;
                stroke-miterlimit: 10;
                stroke-width: 2px;
            }

            .aea194d0-d74d-4a79-a8ae-d12d846608dd {
                fill: #fd893b;
            }

            .b1741fbe-4af3-428b-b5d3-a5d979b64aa3 {
                fill: #fff;
            }

            .ecade993-6b59-4bda-bdc7-0d7e244a613a {
                fill: #272b31;
                fill-rule: evenodd;
            }
        </style>
    </defs>
    <line class="b5319d23-008c-4dfa-9ca5-8f7c2d92e28e" y1="358.78" x2="59.85" y2="358.78" />
    <path class="aea194d0-d74d-4a79-a8ae-d12d846608dd"
        d="M122.05,433.92h-7.77v4.26h6.87v3.95h-6.87v4.62h7.77v4.11h-12.9V429.81h12.9Z" />
    <path class="aea194d0-d74d-4a79-a8ae-d12d846608dd" d="M125.34,428.67h5.13v22.19h-5.13Z" />
    <path class="aea194d0-d74d-4a79-a8ae-d12d846608dd"
        d="M141.51,451.1c-4.92,0-8.46-3.3-8.46-8.61s3.48-8.6,8.46-8.6,8.34,3.23,8.34,8.33a13,13,0,0,1-.09,1.5H138.15c.18,2.19,1.53,3.21,3.18,3.21a2.73,2.73,0,0,0,2.67-1.62h5.46A7.82,7.82,0,0,1,141.51,451.1Zm-3.33-10.23h6.42a2.89,2.89,0,0,0-3.15-2.88A3.17,3.17,0,0,0,138.18,440.87Z" />
    <path class="aea194d0-d74d-4a79-a8ae-d12d846608dd"
        d="M175.51,441.77c0-2.19-1.26-3.39-3.21-3.39s-3.21,1.2-3.21,3.39v9.09H164v-9.09c0-2.19-1.26-3.39-3.21-3.39s-3.21,1.2-3.21,3.39v9.09h-5.13V434.13h5.13v2.1a5.91,5.91,0,0,1,4.89-2.28,6.25,6.25,0,0,1,5.7,3.12A6.73,6.73,0,0,1,173.8,434c4.14,0,6.8,2.64,6.8,7.13v9.78h-5.09Z" />
    <path class="aea194d0-d74d-4a79-a8ae-d12d846608dd"
        d="M191.53,451.1c-4.92,0-8.46-3.3-8.46-8.61s3.48-8.6,8.46-8.6,8.34,3.23,8.34,8.33a11.11,11.11,0,0,1-.1,1.5h-11.6c.18,2.19,1.53,3.21,3.18,3.21a2.73,2.73,0,0,0,2.67-1.62h5.46A7.82,7.82,0,0,1,191.53,451.1Zm-3.33-10.23h6.42a2.89,2.89,0,0,0-3.15-2.88A3.17,3.17,0,0,0,188.2,440.87Z" />
    <path class="aea194d0-d74d-4a79-a8ae-d12d846608dd"
        d="M214,441.77c0-2.28-1.26-3.54-3.21-3.54s-3.21,1.26-3.21,3.54v9.09h-5.12V434.13h5.12v2.22a6.14,6.14,0,0,1,5.07-2.4c3.87,0,6.45,2.64,6.45,7.13v9.78H214Z" />
    <path class="aea194d0-d74d-4a79-a8ae-d12d846608dd"
        d="M223.09,438.38h-2v-4.25h2v-4.08h5.13v4.08h3.36v4.25h-3.36v6.72c0,1,.42,1.41,1.56,1.41h1.83v4.35H229c-3.48,0-5.91-1.47-5.91-5.82Z" />
    <path class="aea194d0-d74d-4a79-a8ae-d12d846608dd"
        d="M241.85,451.1c-4.92,0-8.64-3.3-8.64-8.61s3.81-8.6,8.7-8.6,8.7,3.3,8.7,8.6S246.77,451.1,241.85,451.1Zm0-4.44c1.83,0,3.54-1.35,3.54-4.17s-1.68-4.17-3.48-4.17-3.48,1.32-3.48,4.17S240,446.66,241.85,446.66Z" />
    <path class="aea194d0-d74d-4a79-a8ae-d12d846608dd"
        d="M259.86,451.1c-4.47,0-7.47-2.49-7.71-5.73h5.07a2.35,2.35,0,0,0,2.58,1.95c1.32,0,2-.6,2-1.35,0-2.7-9.12-.75-9.12-6.9,0-2.84,2.43-5.18,6.81-5.18s6.72,2.4,7.05,5.69h-4.74a2.21,2.21,0,0,0-2.46-1.88c-1.2,0-1.86.48-1.86,1.28,0,2.67,9.06.78,9.15,7C266.64,448.91,264.06,451.1,259.86,451.1Z" />
    <path class="aea194d0-d74d-4a79-a8ae-d12d846608dd"
        d="M286.44,433.89c4.11,0,7.37,3.3,7.37,8.57s-3.26,8.64-7.37,8.64a6.05,6.05,0,0,1-5.17-2.58v10.32h-5.12V434.13h5.12v2.37A5.93,5.93,0,0,1,286.44,433.89Zm-1.54,4.46c-1.92,0-3.65,1.47-3.65,4.14s1.73,4.14,3.65,4.14,3.7-1.5,3.7-4.17S286.85,438.35,284.9,438.35Z" />
    <path class="aea194d0-d74d-4a79-a8ae-d12d846608dd"
        d="M302.9,433.89a5.83,5.83,0,0,1,5.16,2.61v-2.37h5.13v16.73h-5.13v-2.37a5.92,5.92,0,0,1-5.19,2.61c-4.08,0-7.35-3.36-7.35-8.64S298.79,433.89,302.9,433.89Zm1.5,4.46c-1.92,0-3.66,1.44-3.66,4.11s1.74,4.17,3.66,4.17,3.66-1.47,3.66-4.14S306.35,438.35,304.4,438.35Z" />
    <path class="aea194d0-d74d-4a79-a8ae-d12d846608dd"
        d="M321.9,450.86h-5.13V434.13h5.13v2.79a6.24,6.24,0,0,1,5.25-3v5.42h-1.41c-2.43,0-3.84.84-3.84,3.72Z" />
    <path class="aea194d0-d74d-4a79-a8ae-d12d846608dd"
        d="M335.78,433.89a5.83,5.83,0,0,1,5.16,2.61v-2.37h5.13v16.73h-5.13v-2.37a5.92,5.92,0,0,1-5.19,2.61c-4.08,0-7.35-3.36-7.35-8.64S331.67,433.89,335.78,433.89Zm1.5,4.46c-1.92,0-3.66,1.44-3.66,4.11s1.74,4.17,3.66,4.17,3.66-1.47,3.66-4.14S339.23,438.35,337.28,438.35Z" />
    <path class="aea194d0-d74d-4a79-a8ae-d12d846608dd"
        d="M110,477.38h-2v-4.25h2v-4.08h5.13v4.08h3.36v4.25h-3.36v6.72c0,1,.42,1.41,1.56,1.41h1.83v4.35h-2.61c-3.48,0-5.91-1.47-5.91-5.82Z" />
    <path class="aea194d0-d74d-4a79-a8ae-d12d846608dd"
        d="M128.54,490.1c-4.92,0-8.46-3.3-8.46-8.61s3.48-8.6,8.46-8.6,8.34,3.23,8.34,8.33a13,13,0,0,1-.09,1.5H125.18c.18,2.19,1.53,3.21,3.18,3.21a2.73,2.73,0,0,0,2.67-1.62h5.46A7.82,7.82,0,0,1,128.54,490.1Zm-3.33-10.23h6.42a2.89,2.89,0,0,0-3.15-2.88A3.17,3.17,0,0,0,125.21,479.87Z" />
    <path class="aea194d0-d74d-4a79-a8ae-d12d846608dd"
        d="M151,480.77c0-2.28-1.26-3.54-3.21-3.54s-3.21,1.26-3.21,3.54v9.09h-5.13V473.13h5.13v2.22a6.12,6.12,0,0,1,5.06-2.4c3.87,0,6.45,2.64,6.45,7.13v9.78H151Z" />
    <path class="aea194d0-d74d-4a79-a8ae-d12d846608dd"
        d="M167,490.1c-4.92,0-8.46-3.3-8.46-8.61s3.49-8.6,8.46-8.6,8.34,3.23,8.34,8.33a13,13,0,0,1-.09,1.5H163.67c.18,2.19,1.53,3.21,3.18,3.21a2.73,2.73,0,0,0,2.67-1.62H175A7.82,7.82,0,0,1,167,490.1Zm-3.33-10.23h6.42A2.89,2.89,0,0,0,167,477,3.17,3.17,0,0,0,163.7,479.87Z" />
    <path class="aea194d0-d74d-4a79-a8ae-d12d846608dd"
        d="M183.09,489.86H178V473.13h5.13v2.79a6.24,6.24,0,0,1,5.25-3v5.42h-1.41c-2.43,0-3.84.84-3.84,3.72Z" />
    <path class="aea194d0-d74d-4a79-a8ae-d12d846608dd"
        d="M204.6,490.1c-4.92,0-8.46-3.3-8.46-8.61s3.48-8.6,8.46-8.6,8.34,3.23,8.34,8.33a13,13,0,0,1-.09,1.5H201.24c.18,2.19,1.53,3.21,3.18,3.21a2.73,2.73,0,0,0,2.67-1.62h5.46A7.82,7.82,0,0,1,204.6,490.1Zm-3.33-10.23h6.42a2.89,2.89,0,0,0-3.15-2.88A3.17,3.17,0,0,0,201.27,479.87Z" />
    <path class="aea194d0-d74d-4a79-a8ae-d12d846608dd"
        d="M227.08,480.77c0-2.28-1.26-3.54-3.21-3.54s-3.21,1.26-3.21,3.54v9.09h-5.13V473.13h5.13v2.22a6.14,6.14,0,0,1,5.07-2.4c3.87,0,6.45,2.64,6.45,7.13v9.78h-5.1Z" />
    <path class="aea194d0-d74d-4a79-a8ae-d12d846608dd"
        d="M249.49,472.89c4.2,0,7.17,2.31,8,6.29h-5.46a2.64,2.64,0,0,0-2.67-1.92c-1.83,0-3.09,1.44-3.09,4.23s1.26,4.23,3.09,4.23a2.6,2.6,0,0,0,2.67-1.92h5.46a7.77,7.77,0,0,1-8,6.3c-4.92,0-8.4-3.3-8.4-8.61S244.57,472.89,249.49,472.89Z" />
    <path class="aea194d0-d74d-4a79-a8ae-d12d846608dd"
        d="M276.56,489.86h-5.13v-2.28a6.1,6.1,0,0,1-5.07,2.46c-3.87,0-6.48-2.67-6.48-7.14v-9.77H265v9.08c0,2.28,1.29,3.54,3.21,3.54s3.24-1.26,3.24-3.54v-9.08h5.13Z" />
    <path class="aea194d0-d74d-4a79-a8ae-d12d846608dd"
        d="M287.65,490.1c-4.92,0-8.46-3.3-8.46-8.61s3.48-8.6,8.46-8.6,8.34,3.23,8.34,8.33a13,13,0,0,1-.09,1.5H284.29c.18,2.19,1.53,3.21,3.18,3.21a2.73,2.73,0,0,0,2.67-1.62h5.46A7.82,7.82,0,0,1,287.65,490.1Zm-3.33-10.23h6.42a2.89,2.89,0,0,0-3.15-2.88A3.17,3.17,0,0,0,284.32,479.87Z" />
    <path class="aea194d0-d74d-4a79-a8ae-d12d846608dd"
        d="M310.13,480.77c0-2.28-1.26-3.54-3.21-3.54s-3.21,1.26-3.21,3.54v9.09h-5.13V473.13h5.13v2.22a6.14,6.14,0,0,1,5.07-2.4c3.87,0,6.45,2.64,6.45,7.13v9.78h-5.1Z" />
    <path class="aea194d0-d74d-4a79-a8ae-d12d846608dd"
        d="M319.22,477.38h-2v-4.25h2v-4.08h5.13v4.08h3.36v4.25h-3.36v6.72c0,1,.42,1.41,1.56,1.41h1.83v4.35h-2.61c-3.48,0-5.91-1.47-5.91-5.82Z" />
    <path class="aea194d0-d74d-4a79-a8ae-d12d846608dd"
        d="M336.79,472.89A5.83,5.83,0,0,1,342,475.5v-2.37h5.13v16.73H342v-2.37a5.92,5.92,0,0,1-5.19,2.61c-4.08,0-7.35-3.36-7.35-8.64S332.68,472.89,336.79,472.89Zm1.5,4.46c-1.92,0-3.66,1.44-3.66,4.11s1.74,4.17,3.66,4.17,3.66-1.47,3.66-4.14S340.24,477.35,338.29,477.35Z" />
    <path class="aea194d0-d74d-4a79-a8ae-d12d846608dd"
        d="M119.44,511.89c4.11,0,7.38,3.3,7.38,8.57s-3.27,8.64-7.38,8.64a6,6,0,0,1-5.16-2.58v10.32h-5.13V512.13h5.13v2.37A5.9,5.9,0,0,1,119.44,511.89Zm-1.53,4.46c-1.92,0-3.66,1.47-3.66,4.14s1.74,4.14,3.66,4.14,3.69-1.5,3.69-4.17S119.86,516.35,117.91,516.35Z" />
    <path class="aea194d0-d74d-4a79-a8ae-d12d846608dd"
        d="M135.91,511.89a5.83,5.83,0,0,1,5.16,2.61v-2.37h5.13v16.73h-5.13v-2.37a5.92,5.92,0,0,1-5.19,2.61c-4.08,0-7.35-3.36-7.35-8.64S131.8,511.89,135.91,511.89Zm1.5,4.46c-1.92,0-3.66,1.44-3.66,4.11s1.74,4.17,3.66,4.17,3.66-1.47,3.66-4.14S139.36,516.35,137.41,516.35Z" />
    <path class="aea194d0-d74d-4a79-a8ae-d12d846608dd"
        d="M154.91,528.86h-5.13V512.13h5.13v2.79a6.24,6.24,0,0,1,5.25-3v5.42h-1.41c-2.43,0-3.84.84-3.84,3.72Z" />
    <path class="aea194d0-d74d-4a79-a8ae-d12d846608dd"
        d="M168.79,511.89A5.83,5.83,0,0,1,174,514.5v-2.37h5.13v16.73H174v-2.37a5.92,5.92,0,0,1-5.19,2.61c-4.08,0-7.35-3.36-7.35-8.64S164.68,511.89,168.79,511.89Zm1.5,4.46c-1.92,0-3.66,1.44-3.66,4.11s1.74,4.17,3.66,4.17,3.66-1.47,3.66-4.14S172.24,516.35,170.29,516.35Z" />
    <path class="aea194d0-d74d-4a79-a8ae-d12d846608dd"
        d="M196.6,529.1c-4.92,0-8.46-3.3-8.46-8.61s3.48-8.6,8.46-8.6,8.34,3.23,8.34,8.33a13,13,0,0,1-.09,1.5H193.24c.18,2.19,1.53,3.21,3.18,3.21a2.73,2.73,0,0,0,2.67-1.62h5.46A7.82,7.82,0,0,1,196.6,529.1Zm-3.33-10.23h6.42a2.89,2.89,0,0,0-3.15-2.88A3.17,3.17,0,0,0,193.27,518.87Z" />
    <path class="aea194d0-d74d-4a79-a8ae-d12d846608dd" d="M207.57,506.67h5.13v22.19h-5.13Z" />
    <path class="aea194d0-d74d-4a79-a8ae-d12d846608dd"
        d="M223.74,529.1c-4.92,0-8.46-3.3-8.46-8.61s3.48-8.6,8.46-8.6,8.34,3.23,8.34,8.33a13,13,0,0,1-.09,1.5H220.38c.18,2.19,1.53,3.21,3.18,3.21a2.73,2.73,0,0,0,2.67-1.62h5.46A7.82,7.82,0,0,1,223.74,529.1Zm-3.33-10.23h6.42a2.89,2.89,0,0,0-3.15-2.88A3.17,3.17,0,0,0,220.41,518.87Z" />
    <path class="aea194d0-d74d-4a79-a8ae-d12d846608dd"
        d="M241.09,511.89a5.8,5.8,0,0,1,5.16,2.61v-2.37h5.13v16.7c0,4.47-2.58,8.28-8.37,8.28-5,0-8.22-2.52-8.67-6.51h5.07c.33,1.26,1.59,2.07,3.36,2.07,1.95,0,3.48-1,3.48-3.84v-2.37a5.92,5.92,0,0,1-5.16,2.64c-4.11,0-7.38-3.36-7.38-8.64S237,511.89,241.09,511.89Zm1.5,4.46c-1.92,0-3.66,1.44-3.66,4.11s1.74,4.17,3.66,4.17,3.66-1.47,3.66-4.14S244.54,516.35,242.59,516.35Z" />
    <path class="aea194d0-d74d-4a79-a8ae-d12d846608dd"
        d="M254.5,507.63a3.06,3.06,0,1,1,3.06,2.76A2.84,2.84,0,0,1,254.5,507.63Zm.48,4.5h5.13v16.73H255Z" />
    <path class="aea194d0-d74d-4a79-a8ae-d12d846608dd"
        d="M268.81,528.86h-5.13V512.13h5.13v2.79a6.24,6.24,0,0,1,5.25-3v5.42h-1.41c-2.43,0-3.84.84-3.84,3.72Z" />
    <path class="aea194d0-d74d-4a79-a8ae-d12d846608dd"
        d="M299.41,528.86h-5.13v-2.28a6.1,6.1,0,0,1-5.07,2.46c-3.87,0-6.48-2.67-6.48-7.14v-9.77h5.1v9.08c0,2.28,1.29,3.54,3.21,3.54s3.24-1.26,3.24-3.54v-9.08h5.13Z" />
    <path class="aea194d0-d74d-4a79-a8ae-d12d846608dd"
        d="M314.53,519.77c0-2.28-1.26-3.54-3.21-3.54s-3.21,1.26-3.21,3.54v9.09H303V512.13h5.13v2.22a6.14,6.14,0,0,1,5.07-2.4c3.87,0,6.45,2.64,6.45,7.13v9.78h-5.1Z" />
    <path class="aea194d0-d74d-4a79-a8ae-d12d846608dd"
        d="M115.51,550.89a6.14,6.14,0,0,1,5.16,2.55v-7.77h5.13v22.19h-5.13v-2.4a5.79,5.79,0,0,1-5.16,2.64c-4.11,0-7.38-3.36-7.38-8.64S111.4,550.89,115.51,550.89Zm1.5,4.46c-1.92,0-3.66,1.44-3.66,4.11s1.74,4.17,3.66,4.17,3.66-1.47,3.66-4.14S119,555.35,117,555.35Z" />
    <path class="aea194d0-d74d-4a79-a8ae-d12d846608dd"
        d="M128.93,546.63a3.06,3.06,0,1,1,3.06,2.76A2.84,2.84,0,0,1,128.93,546.63Zm.48,4.5h5.13v16.73h-5.13Z" />
    <path class="aea194d0-d74d-4a79-a8ae-d12d846608dd"
        d="M144.78,568.1c-4.47,0-7.47-2.49-7.71-5.73h5.07a2.36,2.36,0,0,0,2.58,2c1.32,0,2-.6,2-1.35,0-2.7-9.12-.75-9.12-6.9,0-2.84,2.43-5.18,6.81-5.18s6.72,2.4,7.05,5.69h-4.74a2.21,2.21,0,0,0-2.46-1.88c-1.2,0-1.86.48-1.86,1.28,0,2.67,9.06.78,9.15,7C151.56,565.91,149,568.1,144.78,568.1Z" />
    <path class="aea194d0-d74d-4a79-a8ae-d12d846608dd"
        d="M161.86,568.1c-4.92,0-8.46-3.3-8.46-8.61s3.48-8.6,8.46-8.6,8.34,3.23,8.34,8.33a13,13,0,0,1-.09,1.5H158.5c.18,2.19,1.53,3.21,3.18,3.21a2.73,2.73,0,0,0,2.67-1.62h5.46A7.82,7.82,0,0,1,161.86,568.1Zm-3.33-10.23H165A2.89,2.89,0,0,0,161.8,555,3.17,3.17,0,0,0,158.53,557.87Z" />
    <path class="aea194d0-d74d-4a79-a8ae-d12d846608dd"
        d="M177.92,567.86h-5.13V551.13h5.13v2.22A6.14,6.14,0,0,1,183,551c3.87,0,6.45,2.64,6.45,7.13v9.78h-5.1v-9.09c0-2.28-1.26-3.54-3.21-3.54s-3.21,1.26-3.21,3.54Zm2-22.58c1.8,0,2.73,1.35,3.93,1.35.69,0,1.17-.42,1.29-1.35h2.64c-.51,3.15-2,4.44-4.14,4.44-1.8,0-2.73-1.35-3.93-1.35-.69,0-1.17.42-1.32,1.35h-2.61C176.27,546.57,177.77,545.28,179.9,545.28Z" />
    <path class="aea194d0-d74d-4a79-a8ae-d12d846608dd"
        d="M200.48,568.1c-4.92,0-8.64-3.3-8.64-8.61s3.81-8.6,8.7-8.6,8.69,3.3,8.69,8.6S205.4,568.1,200.48,568.1Zm0-4.44c1.83,0,3.54-1.35,3.54-4.17s-1.68-4.17-3.48-4.17-3.48,1.32-3.48,4.17S198.62,563.66,200.48,563.66Z" />
    <path class="aea194d0-d74d-4a79-a8ae-d12d846608dd"
        d="M224.68,550.89a6.14,6.14,0,0,1,5.16,2.55v-7.77H235v22.19h-5.13v-2.4a5.79,5.79,0,0,1-5.16,2.64c-4.11,0-7.38-3.36-7.38-8.64S220.57,550.89,224.68,550.89Zm1.5,4.46c-1.92,0-3.66,1.44-3.66,4.11s1.74,4.17,3.66,4.17,3.66-1.47,3.66-4.14S228.13,555.35,226.18,555.35Z" />
    <path class="aea194d0-d74d-4a79-a8ae-d12d846608dd"
        d="M246.08,568.1c-4.92,0-8.46-3.3-8.46-8.61s3.48-8.6,8.46-8.6,8.34,3.23,8.34,8.33a13,13,0,0,1-.09,1.5H242.72c.18,2.19,1.53,3.21,3.18,3.21a2.73,2.73,0,0,0,2.67-1.62H254A7.82,7.82,0,0,1,246.08,568.1Zm-3.33-10.23h6.42A2.89,2.89,0,0,0,246,555,3.17,3.17,0,0,0,242.75,557.87Z" />
    <path class="aea194d0-d74d-4a79-a8ae-d12d846608dd"
        d="M108.67,585.63a3.06,3.06,0,1,1,3.06,2.76A2.84,2.84,0,0,1,108.67,585.63Zm.48,4.5h5.13v16.73h-5.13Z" />
    <path class="aea194d0-d74d-4a79-a8ae-d12d846608dd"
        d="M129.4,597.77c0-2.28-1.26-3.54-3.21-3.54s-3.21,1.26-3.21,3.54v9.09h-5.13V590.13H123v2.22a6.14,6.14,0,0,1,5.07-2.4c3.87,0,6.45,2.64,6.45,7.13v9.78h-5.1Z" />
    <path class="aea194d0-d74d-4a79-a8ae-d12d846608dd"
        d="M141.15,590.13l3.62,11.93,3.64-11.93h5.45l-5.93,16.73H141.6l-5.94-16.73Z" />
    <path class="aea194d0-d74d-4a79-a8ae-d12d846608dd"
        d="M162.65,607.1c-4.92,0-8.46-3.3-8.46-8.61s3.48-8.6,8.46-8.6,8.34,3.23,8.34,8.33a13,13,0,0,1-.09,1.5H159.29c.19,2.19,1.53,3.21,3.19,3.21a2.72,2.72,0,0,0,2.66-1.62h5.46A7.82,7.82,0,0,1,162.65,607.1Zm-3.33-10.23h6.42a2.89,2.89,0,0,0-3.15-2.88A3.17,3.17,0,0,0,159.32,596.87Z" />
    <path class="aea194d0-d74d-4a79-a8ae-d12d846608dd"
        d="M180.23,607.1c-4.47,0-7.47-2.49-7.71-5.73h5.07a2.35,2.35,0,0,0,2.58,2c1.32,0,2-.6,2-1.35,0-2.7-9.12-.75-9.12-6.9,0-2.84,2.43-5.18,6.81-5.18s6.72,2.4,7,5.69h-4.74a2.21,2.21,0,0,0-2.46-1.88c-1.2,0-1.86.48-1.86,1.28,0,2.67,9.06.78,9.15,7C187,604.91,184.43,607.1,180.23,607.1Z" />
    <path class="aea194d0-d74d-4a79-a8ae-d12d846608dd"
        d="M190.61,594.38h-2v-4.25h2v-4.08h5.13v4.08h3.36v4.25h-3.36v6.72c0,1,.42,1.41,1.56,1.41h1.83v4.35h-2.61c-3.48,0-5.91-1.47-5.91-5.82Z" />
    <path class="aea194d0-d74d-4a79-a8ae-d12d846608dd"
        d="M201.47,585.63a3.06,3.06,0,1,1,3.06,2.76A2.84,2.84,0,0,1,201.47,585.63Zm.48,4.5h5.13v16.73H202Z" />
    <path class="aea194d0-d74d-4a79-a8ae-d12d846608dd"
        d="M217,589.89a5.8,5.8,0,0,1,5.16,2.61v-2.37h5.13v16.7c0,4.47-2.58,8.28-8.37,8.28-5,0-8.22-2.52-8.67-6.51h5.07c.33,1.26,1.59,2.07,3.36,2.07,1.95,0,3.48-1,3.48-3.84v-2.37A5.92,5.92,0,0,1,217,607.1c-4.11,0-7.38-3.36-7.38-8.64S212.89,589.89,217,589.89Zm1.5,4.46c-1.92,0-3.66,1.44-3.66,4.11s1.74,4.17,3.66,4.17,3.66-1.47,3.66-4.14S220.45,594.35,218.5,594.35Z" />
    <path class="aea194d0-d74d-4a79-a8ae-d12d846608dd"
        d="M237.31,589.89a5.83,5.83,0,0,1,5.16,2.61v-2.37h5.13v16.73h-5.13v-2.37a5.92,5.92,0,0,1-5.19,2.61c-4.08,0-7.35-3.36-7.35-8.64S233.2,589.89,237.31,589.89Zm1.5,4.46c-1.92,0-3.66,1.44-3.66,4.11s1.74,4.17,3.66,4.17,3.66-1.47,3.66-4.14S240.76,594.35,238.81,594.35Z" />
    <path class="aea194d0-d74d-4a79-a8ae-d12d846608dd"
        d="M258.65,589.89c4.2,0,7.17,2.31,8,6.29h-5.46a2.64,2.64,0,0,0-2.67-1.92c-1.83,0-3.09,1.44-3.09,4.23s1.26,4.23,3.09,4.23a2.6,2.6,0,0,0,2.67-1.92h5.46a7.77,7.77,0,0,1-8,6.3c-4.92,0-8.4-3.3-8.4-8.61S253.73,589.89,258.65,589.89Z" />
    <path class="aea194d0-d74d-4a79-a8ae-d12d846608dd"
        d="M268.67,585.63a3.06,3.06,0,1,1,3.06,2.76A2.84,2.84,0,0,1,268.67,585.63Zm.48,4.5h5.12v16.73h-5.12Z" />
    <path class="aea194d0-d74d-4a79-a8ae-d12d846608dd"
        d="M285.39,607.1c-4.92,0-8.64-3.3-8.64-8.61s3.81-8.6,8.7-8.6,8.7,3.3,8.7,8.6S290.31,607.1,285.39,607.1Zm0-4.44c1.83,0,3.54-1.35,3.54-4.17s-1.68-4.17-3.48-4.17-3.48,1.32-3.48,4.17S283.53,602.66,285.39,602.66Zm4-20.81v4l-7.23,3v-3.54Z" />
    <path class="aea194d0-d74d-4a79-a8ae-d12d846608dd"
        d="M308.3,597.77c0-2.28-1.26-3.54-3.21-3.54s-3.21,1.26-3.21,3.54v9.09h-5.13V590.13h5.13v2.22A6.14,6.14,0,0,1,307,590c3.87,0,6.45,2.64,6.45,7.13v9.78h-5.1Z" />
    <path class="b5319d23-008c-4dfa-9ca5-8f7c2d92e28e" d="M59.85,303.35V907.69c0,16.1,13.05,29.15,29.15,32.76H420.55" />
    <path class="b1741fbe-4af3-428b-b5d3-a5d979b64aa3"
        d="M209.13,678.8h-5.31v4.7h4.77v1h-4.77v4.78h5.31v1h-6.57v-12.6h6.57Z" />
    <path class="b1741fbe-4af3-428b-b5d3-a5d979b64aa3" d="M211.18,677h1.26v13.32h-1.26Z" />
    <path class="b1741fbe-4af3-428b-b5d3-a5d979b64aa3"
        d="M225.39,680.39c2.68,0,4.68,2,4.68,5s-2,5.07-4.68,5.07a4.2,4.2,0,0,1-3.91-2.3V695h-1.24V680.53h1.24v2.16A4.17,4.17,0,0,1,225.39,680.39Zm-.26,1.09a4,4,0,0,0,0,7.93,3.64,3.64,0,0,0,3.66-4C228.79,682.92,227.2,681.48,225.13,681.48Z" />
    <path class="b1741fbe-4af3-428b-b5d3-a5d979b64aa3"
        d="M233.62,690.36h-1.27v-9.83h1.27v1.75a3.37,3.37,0,0,1,3.36-1.93v1.31h-.34c-1.64,0-3,.74-3,3.21Z" />
    <path class="b1741fbe-4af3-428b-b5d3-a5d979b64aa3"
        d="M242.71,690.5a5.06,5.06,0,1,1,4.95-5.06A4.79,4.79,0,0,1,242.71,690.5Zm0-1.09a4,4,0,0,0,0-7.93c-1.87,0-3.62,1.26-3.62,4S240.84,689.41,242.71,689.41Z" />
    <path class="b1741fbe-4af3-428b-b5d3-a5d979b64aa3"
        d="M255.09,680.39c2.7,0,4.68,2,4.68,5s-2,5.07-4.68,5.07a4.14,4.14,0,0,1-3.91-2.3v2.16h-1.24V677h1.24v5.67A4.17,4.17,0,0,1,255.09,680.39Zm-.25,1.09a4,4,0,0,0,0,7.93c2.07,0,3.65-1.5,3.65-4S256.91,681.48,254.84,681.48Z" />
    <path class="b1741fbe-4af3-428b-b5d3-a5d979b64aa3" d="M262.08,677h1.26v13.32h-1.26Z" />
    <path class="b1741fbe-4af3-428b-b5d3-a5d979b64aa3"
        d="M270.43,690.5c-2.79,0-4.82-1.94-4.82-5.06s2-5.05,4.82-5.05a4.42,4.42,0,0,1,4.65,4.55,7.71,7.71,0,0,1,0,1h-8.15a3.43,3.43,0,0,0,3.54,3.51,3,3,0,0,0,3.17-2.19h1.33A4.32,4.32,0,0,1,270.43,690.5Zm-3.54-5.6h6.91a3.21,3.21,0,0,0-3.42-3.43A3.39,3.39,0,0,0,266.89,684.9Z" />
    <path class="b1741fbe-4af3-428b-b5d3-a5d979b64aa3"
        d="M291.76,684.74c0-2.18-1.14-3.29-2.89-3.29s-3,1.19-3,3.58v5.33h-1.24v-5.62c0-2.18-1.15-3.29-2.9-3.29s-3,1.19-3,3.58v5.33h-1.26v-9.83h1.26v1.69a3.51,3.51,0,0,1,3.26-1.87,3.62,3.62,0,0,1,3.63,2.41,3.58,3.58,0,0,1,3.55-2.41c2.18,0,3.91,1.37,3.91,4.25v5.76h-1.24Z" />
    <path class="b1741fbe-4af3-428b-b5d3-a5d979b64aa3"
        d="M299.88,680.39a4.11,4.11,0,0,1,3.89,2.3v-2.16H305v9.83h-1.26v-2.18a4.14,4.14,0,0,1-3.91,2.32c-2.68,0-4.68-2-4.68-5.07S297.18,680.39,299.88,680.39Zm.24,1.09c-2.07,0-3.66,1.44-3.66,3.95a3.67,3.67,0,1,0,3.66-3.95Z" />
    <path class="b1741fbe-4af3-428b-b5d3-a5d979b64aa3"
        d="M317,680.39a4.09,4.09,0,0,1,3.87,2.3v-2.16h1.26V695h-1.26V688.2a4.16,4.16,0,0,1-3.9,2.3c-2.69,0-4.69-2-4.69-5.07S314.26,680.39,317,680.39Zm.22,1.09c-2.07,0-3.66,1.44-3.66,3.95a3.67,3.67,0,1,0,3.66-3.95Z" />
    <path class="b1741fbe-4af3-428b-b5d3-a5d979b64aa3"
        d="M333.47,690.36h-1.26v-1.73a3.56,3.56,0,0,1-3.35,1.89c-2.23,0-4-1.37-4-4.25v-5.74h1.24v5.6c0,2.18,1.19,3.29,3,3.29s3.12-1.15,3.12-3.54v-5.35h1.26Z" />
    <path class="b1741fbe-4af3-428b-b5d3-a5d979b64aa3"
        d="M340.56,690.5c-2.79,0-4.82-1.94-4.82-5.06s2-5.05,4.82-5.05a4.42,4.42,0,0,1,4.65,4.55,7.71,7.71,0,0,1,0,1H337a3.43,3.43,0,0,0,3.54,3.51,3,3,0,0,0,3.17-2.19h1.34A4.33,4.33,0,0,1,340.56,690.5ZM337,684.9h6.91a3.21,3.21,0,0,0-3.42-3.43A3.39,3.39,0,0,0,337,684.9Z" />
    <path class="b1741fbe-4af3-428b-b5d3-a5d979b64aa3"
        d="M355.83,690.5c-2.23,0-3.8-1.11-4-2.91h1.29c.11,1.08,1,1.85,2.65,1.85,1.4,0,2.2-.75,2.2-1.69,0-2.43-5.91-1-5.91-4.7,0-1.46,1.39-2.66,3.46-2.66s3.49,1.11,3.6,3H357.9a2.09,2.09,0,0,0-2.38-1.92c-1.31,0-2.14.7-2.14,1.56,0,2.67,5.81,1.24,5.87,4.72C359.25,689.33,357.86,690.5,355.83,690.5Z" />
    <path class="b1741fbe-4af3-428b-b5d3-a5d979b64aa3"
        d="M365.79,690.5c-2.79,0-4.82-1.94-4.82-5.06s2-5.05,4.82-5.05a4.42,4.42,0,0,1,4.65,4.55,7.71,7.71,0,0,1,0,1h-8.16a3.43,3.43,0,0,0,3.55,3.51,3,3,0,0,0,3.17-2.19h1.33A4.32,4.32,0,0,1,365.79,690.5Zm-3.55-5.6h6.92a3.21,3.21,0,0,0-3.42-3.43A3.4,3.4,0,0,0,362.24,684.9Z" />
    <path class="b1741fbe-4af3-428b-b5d3-a5d979b64aa3"
        d="M206.7,710.39a4.09,4.09,0,0,1,3.87,2.3v-2.16h1.26V725h-1.26V718.2a4.16,4.16,0,0,1-3.9,2.3c-2.69,0-4.69-2-4.69-5.07S204,710.39,206.7,710.39Zm.22,1.09c-2.07,0-3.66,1.44-3.66,3.95a3.67,3.67,0,1,0,3.66-3.95Z" />
    <path class="b1741fbe-4af3-428b-b5d3-a5d979b64aa3"
        d="M223.19,720.36h-1.26v-1.73a3.56,3.56,0,0,1-3.35,1.89c-2.23,0-4-1.37-4-4.25v-5.74h1.24v5.6c0,2.18,1.19,3.29,3,3.29s3.12-1.15,3.12-3.54v-5.35h1.26Z" />
    <path class="b1741fbe-4af3-428b-b5d3-a5d979b64aa3"
        d="M225.73,707.74a.92.92,0,1,1,.92.93A.91.91,0,0,1,225.73,707.74Zm.29,2.79h1.26v9.83H226Z" />
    <path class="b1741fbe-4af3-428b-b5d3-a5d979b64aa3"
        d="M234.32,720.5c-2.79,0-4.82-1.94-4.82-5.06s2-5.05,4.82-5.05a4.42,4.42,0,0,1,4.65,4.55,7.71,7.71,0,0,1,0,1h-8.16a3.44,3.44,0,0,0,3.55,3.51,3,3,0,0,0,3.17-2.19h1.33A4.32,4.32,0,0,1,234.32,720.5Zm-3.55-5.6h6.92a3.21,3.21,0,0,0-3.42-3.43A3.4,3.4,0,0,0,230.77,714.9Z" />
    <path class="b1741fbe-4af3-428b-b5d3-a5d979b64aa3"
        d="M242.54,720.36h-1.26v-9.83h1.26v1.75a3.37,3.37,0,0,1,3.36-1.93v1.31h-.34c-1.64,0-3,.74-3,3.21Z" />
    <path class="b1741fbe-4af3-428b-b5d3-a5d979b64aa3"
        d="M251.61,720.5c-2.79,0-4.82-1.94-4.82-5.06s2-5.05,4.82-5.05a4.42,4.42,0,0,1,4.65,4.55,7.71,7.71,0,0,1,0,1h-8.15a3.43,3.43,0,0,0,3.54,3.51,3,3,0,0,0,3.17-2.19h1.34A4.33,4.33,0,0,1,251.61,720.5Zm-3.54-5.6H255a3.21,3.21,0,0,0-3.42-3.43A3.39,3.39,0,0,0,248.07,714.9Z" />
    <path class="b1741fbe-4af3-428b-b5d3-a5d979b64aa3"
        d="M267.74,720.5c-2.79,0-4.82-1.94-4.82-5.06s2-5.05,4.82-5.05a4.42,4.42,0,0,1,4.65,4.55,7.71,7.71,0,0,1,0,1H264.2a3.43,3.43,0,0,0,3.54,3.51,3,3,0,0,0,3.17-2.19h1.33A4.32,4.32,0,0,1,267.74,720.5Zm-3.54-5.6h6.91a3.21,3.21,0,0,0-3.42-3.43A3.39,3.39,0,0,0,264.2,714.9Z" />
    <path class="b1741fbe-4af3-428b-b5d3-a5d979b64aa3"
        d="M278,720.5c-2.23,0-3.8-1.11-4-2.91h1.3c.11,1.08,1,1.85,2.64,1.85,1.41,0,2.2-.75,2.2-1.69,0-2.43-5.9-1-5.9-4.7,0-1.46,1.38-2.66,3.45-2.66s3.5,1.11,3.6,3h-1.26a2.09,2.09,0,0,0-2.37-1.92c-1.32,0-2.15.7-2.15,1.56,0,2.67,5.82,1.24,5.87,4.72C281.41,719.33,280,720.5,278,720.5Z" />
    <path class="b1741fbe-4af3-428b-b5d3-a5d979b64aa3"
        d="M284,711.59h-1.36v-1.06H284v-2.47h1.28v2.47H288v1.06h-2.7v6.11c0,1.2.42,1.58,1.55,1.58H288v1.08H286.6c-1.71,0-2.63-.7-2.63-2.66Z" />
    <path class="b1741fbe-4af3-428b-b5d3-a5d979b64aa3"
        d="M298.36,720.36H297.1v-1.73a3.56,3.56,0,0,1-3.35,1.89c-2.23,0-4-1.37-4-4.25v-5.74H291v5.6c0,2.18,1.19,3.29,3,3.29s3.12-1.15,3.12-3.54v-5.35h1.26Z" />
    <path class="b1741fbe-4af3-428b-b5d3-a5d979b64aa3"
        d="M305.35,710.39a4.28,4.28,0,0,1,3.87,2.26V707h1.26v13.32h-1.26v-2.2a4.1,4.1,0,0,1-3.89,2.34c-2.7,0-4.7-2-4.7-5.07S302.63,710.39,305.35,710.39Zm.21,1.09c-2.07,0-3.65,1.44-3.65,3.95s1.58,4,3.65,4a4,4,0,0,0,0-7.93Z" />
    <path class="b1741fbe-4af3-428b-b5d3-a5d979b64aa3"
        d="M313,707.74a.92.92,0,1,1,.92.93A.91.91,0,0,1,313,707.74Zm.29,2.79h1.26v9.83h-1.26Z" />
    <path class="b1741fbe-4af3-428b-b5d3-a5d979b64aa3"
        d="M321.5,710.39a4.11,4.11,0,0,1,3.89,2.3v-2.16h1.26v9.83h-1.26v-2.18a4.16,4.16,0,0,1-3.91,2.32c-2.68,0-4.68-2-4.68-5.07S318.8,710.39,321.5,710.39Zm.23,1.09c-2.07,0-3.66,1.44-3.66,3.95a3.67,3.67,0,1,0,3.66-3.95Z" />
    <path class="b1741fbe-4af3-428b-b5d3-a5d979b64aa3"
        d="M330.73,720.36h-1.26v-9.83h1.26v1.75a3.39,3.39,0,0,1,3.37-1.93v1.31h-.34c-1.64,0-3,.74-3,3.21Z" />
    <path class="b1741fbe-4af3-428b-b5d3-a5d979b64aa3" d="M203.82,767.77v11.56h4.52v1h-5.78V767.77Z" />
    <path class="b1741fbe-4af3-428b-b5d3-a5d979b64aa3"
        d="M213.78,770.39a4.11,4.11,0,0,1,3.89,2.3v-2.16h1.26v9.83h-1.26v-2.18a4.14,4.14,0,0,1-3.9,2.32c-2.69,0-4.69-2-4.69-5.07S211.08,770.39,213.78,770.39Zm.24,1.09c-2.07,0-3.66,1.44-3.66,3.95a3.67,3.67,0,1,0,3.66-3.95Z" />
    <path class="b1741fbe-4af3-428b-b5d3-a5d979b64aa3"
        d="M235.26,780.36H234v-1.73a3.56,3.56,0,0,1-3.35,1.89c-2.23,0-4-1.37-4-4.25v-5.74h1.24v5.6c0,2.18,1.19,3.29,3,3.29s3.12-1.15,3.12-3.54v-5.35h1.26Z" />
    <path class="b1741fbe-4af3-428b-b5d3-a5d979b64aa3"
        d="M245.44,774.74c0-2.18-1.19-3.29-3-3.29s-3.11,1.15-3.11,3.54v5.37h-1.26v-9.83h1.26v1.67a3.6,3.6,0,0,1,3.35-1.85c2.23,0,4,1.37,4,4.25v5.76h-1.24Z" />
    <path class="b1741fbe-4af3-428b-b5d3-a5d979b64aa3"
        d="M249.11,767.74a.92.92,0,0,1,1.84,0,.92.92,0,1,1-1.84,0Zm.29,2.79h1.26v9.83H249.4Z" />
    <path class="b1741fbe-4af3-428b-b5d3-a5d979b64aa3"
        d="M257.59,770.39a4.28,4.28,0,0,1,3.87,2.26V767h1.26v13.32h-1.26v-2.2a4.08,4.08,0,0,1-3.89,2.34c-2.7,0-4.7-2-4.7-5.07S254.87,770.39,257.59,770.39Zm.22,1.09c-2.07,0-3.66,1.44-3.66,3.95a3.67,3.67,0,1,0,3.66-3.95Z" />
    <path class="b1741fbe-4af3-428b-b5d3-a5d979b64aa3"
        d="M269.7,770.39a4.11,4.11,0,0,1,3.89,2.3v-2.16h1.26v9.83h-1.26v-2.18a4.16,4.16,0,0,1-3.91,2.32c-2.68,0-4.68-2-4.68-5.07S267,770.39,269.7,770.39Zm.23,1.09c-2.07,0-3.65,1.44-3.65,3.95s1.58,4,3.65,4a4,4,0,0,0,0-7.93Z" />
    <path class="b1741fbe-4af3-428b-b5d3-a5d979b64aa3"
        d="M281.85,770.39a4.28,4.28,0,0,1,3.87,2.26V767H287v13.32h-1.26v-2.2a4.1,4.1,0,0,1-3.89,2.34c-2.7,0-4.7-2-4.7-5.07S279.13,770.39,281.85,770.39Zm.21,1.09c-2.07,0-3.65,1.44-3.65,3.95s1.58,4,3.65,4a4,4,0,0,0,0-7.93Z" />
    <path class="b1741fbe-4af3-428b-b5d3-a5d979b64aa3"
        d="M298.93,770.39a4.28,4.28,0,0,1,3.87,2.26V767h1.26v13.32H302.8v-2.2a4.1,4.1,0,0,1-3.89,2.34c-2.7,0-4.7-2-4.7-5.07S296.21,770.39,298.93,770.39Zm.21,1.09c-2.07,0-3.65,1.44-3.65,3.95s1.58,4,3.65,4a4,4,0,0,0,0-7.93Z" />
    <path class="b1741fbe-4af3-428b-b5d3-a5d979b64aa3"
        d="M311.16,780.5c-2.79,0-4.82-1.94-4.82-5.06s2-5.05,4.82-5.05a4.42,4.42,0,0,1,4.65,4.55,7.71,7.71,0,0,1,0,1h-8.15a3.43,3.43,0,0,0,3.54,3.51,3,3,0,0,0,3.17-2.19h1.33A4.32,4.32,0,0,1,311.16,780.5Zm-3.54-5.6h6.91a3.21,3.21,0,0,0-3.42-3.43A3.39,3.39,0,0,0,307.62,774.9Z" />
    <path class="b1741fbe-4af3-428b-b5d3-a5d979b64aa3"
        d="M327.16,770.39a4.09,4.09,0,0,1,3.89,2.3v-2.16h1.26v9.83h-1.26v-2.18a4.14,4.14,0,0,1-3.9,2.32c-2.69,0-4.68-2-4.68-5.07S324.46,770.39,327.16,770.39Zm.24,1.09c-2.07,0-3.66,1.44-3.66,3.95a3.67,3.67,0,1,0,3.66-3.95Z" />
    <path class="b1741fbe-4af3-428b-b5d3-a5d979b64aa3"
        d="M342.51,774.74c0-2.18-1.19-3.29-3-3.29s-3.12,1.15-3.12,3.54v5.37h-1.26v-9.83h1.26v1.67a3.6,3.6,0,0,1,3.35-1.85c2.23,0,4,1.37,4,4.25v5.76h-1.24Z" />
    <path class="b1741fbe-4af3-428b-b5d3-a5d979b64aa3"
        d="M350.61,770.39a4.11,4.11,0,0,1,3.89,2.3v-2.16h1.26v9.83H354.5v-2.18a4.16,4.16,0,0,1-3.91,2.32c-2.68,0-4.68-2-4.68-5.07S347.91,770.39,350.61,770.39Zm.23,1.09c-2.07,0-3.65,1.44-3.65,3.95s1.58,4,3.65,4a4,4,0,0,0,0-7.93Zm2-5v1.13l-3.69,2.14v-1Z" />
    <path class="b1741fbe-4af3-428b-b5d3-a5d979b64aa3" d="M358.59,767h1.26v13.32h-1.26Z" />
    <path class="b1741fbe-4af3-428b-b5d3-a5d979b64aa3"
        d="M362.36,767.74a.92.92,0,0,1,1.84,0,.92.92,0,1,1-1.84,0Zm.29,2.79h1.26v9.83h-1.26Z" />
    <path class="b1741fbe-4af3-428b-b5d3-a5d979b64aa3"
        d="M370.08,780.5c-2.23,0-3.8-1.11-4-2.91h1.3c.1,1.08,1,1.85,2.64,1.85,1.41,0,2.2-.75,2.2-1.69,0-2.43-5.91-1-5.91-4.7,0-1.46,1.39-2.66,3.46-2.66s3.5,1.11,3.6,3h-1.26a2.09,2.09,0,0,0-2.37-1.92c-1.32,0-2.15.7-2.15,1.56,0,2.67,5.82,1.24,5.87,4.72C373.5,779.33,372.12,780.5,370.08,780.5Z" />
    <path class="b1741fbe-4af3-428b-b5d3-a5d979b64aa3"
        d="M375.53,767.74a.92.92,0,0,1,1.84,0,.92.92,0,1,1-1.84,0Zm.29,2.79h1.26v9.83h-1.26Z" />
    <path class="b1741fbe-4af3-428b-b5d3-a5d979b64aa3"
        d="M383.25,780.5c-2.23,0-3.8-1.11-4-2.91h1.3c.11,1.08,1,1.85,2.64,1.85,1.41,0,2.2-.75,2.2-1.69,0-2.43-5.9-1-5.9-4.7,0-1.46,1.38-2.66,3.45-2.66s3.5,1.11,3.6,3h-1.26a2.09,2.09,0,0,0-2.37-1.92c-1.32,0-2.15.7-2.15,1.56,0,2.67,5.82,1.24,5.87,4.72C386.67,779.33,385.29,780.5,383.25,780.5Z" />
    <path class="b1741fbe-4af3-428b-b5d3-a5d979b64aa3" d="M203.82,827.77v11.56h4.52v1h-5.78V827.77Z" />
    <path class="b1741fbe-4af3-428b-b5d3-a5d979b64aa3"
        d="M214,840.5a5.06,5.06,0,1,1,5-5.06A4.79,4.79,0,0,1,214,840.5Zm0-1.09a3.61,3.61,0,0,0,3.65-4c0-2.7-1.76-4-3.64-4s-3.62,1.26-3.62,4S212.07,839.41,214,839.41Z" />
    <path class="b1741fbe-4af3-428b-b5d3-a5d979b64aa3"
        d="M224.45,840.5c-2.23,0-3.8-1.11-4-2.91h1.3c.11,1.08,1,1.85,2.64,1.85,1.41,0,2.2-.75,2.2-1.69,0-2.43-5.9-1-5.9-4.7,0-1.46,1.38-2.66,3.45-2.66s3.5,1.11,3.6,3h-1.26a2.09,2.09,0,0,0-2.37-1.92c-1.32,0-2.15.7-2.15,1.56,0,2.67,5.82,1.24,5.87,4.72C227.87,839.33,226.49,840.5,224.45,840.5Z" />
    <path class="b1741fbe-4af3-428b-b5d3-a5d979b64aa3"
        d="M236.44,840.36h-1.26v-9.83h1.26v1.75a3.38,3.38,0,0,1,3.37-1.93v1.31h-.35c-1.64,0-3,.74-3,3.21Z" />
    <path class="b1741fbe-4af3-428b-b5d3-a5d979b64aa3"
        d="M245.52,840.5a4.69,4.69,0,0,1-4.83-5.06c0-3.13,2-5.05,4.83-5.05a4.41,4.41,0,0,1,4.64,4.55c0,.4,0,.65,0,1H242a3.43,3.43,0,0,0,3.55,3.51,3.06,3.06,0,0,0,3.17-2.19H250A4.32,4.32,0,0,1,245.52,840.5ZM242,834.9h6.91a3.21,3.21,0,0,0-3.42-3.43A3.39,3.39,0,0,0,242,834.9Z" />
    <path class="b1741fbe-4af3-428b-b5d3-a5d979b64aa3"
        d="M256.67,830.39a4.25,4.25,0,0,1,4.52,3.34h-1.35a3,3,0,0,0-3.17-2.26c-1.93,0-3.5,1.31-3.5,4s1.57,4,3.5,4a3,3,0,0,0,3.17-2.28h1.35a4.31,4.31,0,0,1-4.52,3.34c-2.77,0-4.77-1.94-4.77-5.06S253.9,830.39,256.67,830.39Z" />
    <path class="b1741fbe-4af3-428b-b5d3-a5d979b64aa3"
        d="M271.85,840.36h-1.26v-1.73a3.55,3.55,0,0,1-3.35,1.89c-2.23,0-4-1.37-4-4.25v-5.74h1.24v5.6c0,2.18,1.19,3.29,3,3.29s3.11-1.15,3.11-3.54v-5.35h1.26Z" />
    <path class="b1741fbe-4af3-428b-b5d3-a5d979b64aa3"
        d="M275.93,840.36h-1.26v-9.83h1.26v1.75a3.39,3.39,0,0,1,3.37-1.93v1.31H279c-1.64,0-3,.74-3,3.21Z" />
    <path class="b1741fbe-4af3-428b-b5d3-a5d979b64aa3"
        d="M284.46,840.5c-2.23,0-3.8-1.11-4-2.91h1.3c.11,1.08,1,1.85,2.65,1.85,1.4,0,2.19-.75,2.19-1.69,0-2.43-5.9-1-5.9-4.7,0-1.46,1.38-2.66,3.45-2.66s3.5,1.11,3.6,3h-1.26a2.09,2.09,0,0,0-2.37-1.92c-1.32,0-2.14.7-2.14,1.56,0,2.67,5.81,1.24,5.86,4.72C287.88,839.33,286.5,840.5,284.46,840.5Z" />
    <path class="b1741fbe-4af3-428b-b5d3-a5d979b64aa3"
        d="M294.48,840.5a5.06,5.06,0,1,1,4.95-5.06A4.79,4.79,0,0,1,294.48,840.5Zm0-1.09a4,4,0,0,0,0-7.93c-1.87,0-3.62,1.26-3.62,4S292.61,839.41,294.48,839.41Z" />
    <path class="b1741fbe-4af3-428b-b5d3-a5d979b64aa3"
        d="M305,840.5c-2.24,0-3.8-1.11-4-2.91h1.29c.11,1.08,1.05,1.85,2.65,1.85,1.4,0,2.2-.75,2.2-1.69,0-2.43-5.91-1-5.91-4.7,0-1.46,1.39-2.66,3.46-2.66s3.49,1.11,3.6,3h-1.26a2.09,2.09,0,0,0-2.38-1.92c-1.31,0-2.14.7-2.14,1.56,0,2.67,5.81,1.24,5.87,4.72C308.41,839.33,307,840.5,305,840.5Z" />
    <path class="b1741fbe-4af3-428b-b5d3-a5d979b64aa3"
        d="M322.52,830.53h1.3L318,845h-1.31l1.91-4.68-4-9.78h1.39l3.35,8.39Z" />
    <path class="b1741fbe-4af3-428b-b5d3-a5d979b64aa3"
        d="M333.84,840.5c-2.23,0-3.8-1.11-4-2.91h1.29c.11,1.08,1.05,1.85,2.65,1.85,1.41,0,2.2-.75,2.2-1.69,0-2.43-5.91-1-5.91-4.7,0-1.46,1.39-2.66,3.46-2.66s3.49,1.11,3.6,3h-1.26a2.09,2.09,0,0,0-2.38-1.92c-1.31,0-2.14.7-2.14,1.56,0,2.67,5.82,1.24,5.87,4.72C337.26,839.33,335.87,840.5,333.84,840.5Z" />
    <path class="b1741fbe-4af3-428b-b5d3-a5d979b64aa3"
        d="M348.06,840.36H346.8v-1.73a3.55,3.55,0,0,1-3.35,1.89c-2.23,0-4-1.37-4-4.25v-5.74h1.24v5.6c0,2.18,1.19,3.29,3,3.29s3.11-1.15,3.11-3.54v-5.35h1.26Z" />
    <path class="b1741fbe-4af3-428b-b5d3-a5d979b64aa3"
        d="M354.26,840.5c-2.23,0-3.8-1.11-4-2.91h1.3c.1,1.08,1,1.85,2.64,1.85,1.41,0,2.2-.75,2.2-1.69,0-2.43-5.91-1-5.91-4.7,0-1.46,1.39-2.66,3.46-2.66s3.49,1.11,3.6,3h-1.26a2.09,2.09,0,0,0-2.37-1.92c-1.32,0-2.15.7-2.15,1.56,0,2.67,5.82,1.24,5.87,4.72C357.68,839.33,356.3,840.5,354.26,840.5Z" />
    <path class="b1741fbe-4af3-428b-b5d3-a5d979b64aa3" d="M202.56,857h1.26v13.32h-1.26Z" />
    <path class="b1741fbe-4af3-428b-b5d3-a5d979b64aa3"
        d="M206.33,857.74a.92.92,0,1,1,.92.93A.91.91,0,0,1,206.33,857.74Zm.29,2.79h1.26v9.83h-1.26Z" />
    <path class="b1741fbe-4af3-428b-b5d3-a5d979b64aa3"
        d="M225.06,864.74c0-2.18-1.14-3.29-2.88-3.29s-3.05,1.19-3.05,3.58v5.33h-1.24v-5.62c0-2.18-1.15-3.29-2.9-3.29s-3,1.19-3,3.58v5.33h-1.26v-9.83H212v1.69a3.51,3.51,0,0,1,3.26-1.87,3.62,3.62,0,0,1,3.63,2.41,3.58,3.58,0,0,1,3.55-2.41c2.18,0,3.91,1.37,3.91,4.25v5.76h-1.24Z" />
    <path class="b1741fbe-4af3-428b-b5d3-a5d979b64aa3"
        d="M228.75,857.74a.92.92,0,0,1,1.84,0,.92.92,0,1,1-1.84,0Zm.29,2.79h1.26v9.83H229Z" />
    <path class="b1741fbe-4af3-428b-b5d3-a5d979b64aa3"
        d="M233.39,861.59H232v-1.06h1.37v-2.47h1.28v2.47h2.7v1.06h-2.7v6.11c0,1.2.42,1.58,1.55,1.58h1.15v1.08H236c-1.71,0-2.63-.7-2.63-2.66Z" />
    <path class="b1741fbe-4af3-428b-b5d3-a5d979b64aa3"
        d="M243,860.39a4.11,4.11,0,0,1,3.89,2.3v-2.16h1.26v9.83h-1.26v-2.18A4.16,4.16,0,0,1,243,870.5c-2.68,0-4.68-2-4.68-5.07S240.34,860.39,243,860.39Zm.23,1.09c-2.07,0-3.65,1.44-3.65,3.95s1.58,4,3.65,4a4,4,0,0,0,0-7.93Z" />
    <path class="b1741fbe-4af3-428b-b5d3-a5d979b64aa3"
        d="M255.24,860.39a4.24,4.24,0,0,1,4.52,3.34h-1.35a3,3,0,0,0-3.17-2.26c-1.93,0-3.49,1.31-3.49,4s1.56,4,3.49,4a3,3,0,0,0,3.17-2.28h1.35a4.3,4.3,0,0,1-4.52,3.34c-2.77,0-4.77-1.94-4.77-5.06S252.47,860.39,255.24,860.39Z" />
    <path class="b1741fbe-4af3-428b-b5d3-a5d979b64aa3"
        d="M261.68,857.74a.92.92,0,1,1,1.83,0,.92.92,0,1,1-1.83,0Zm.28,2.79h1.27v9.83H262Z" />
    <path class="b1741fbe-4af3-428b-b5d3-a5d979b64aa3"
        d="M270.32,870.5a5.06,5.06,0,1,1,4.95-5.06A4.79,4.79,0,0,1,270.32,870.5Zm0-1.09a3.61,3.61,0,0,0,3.65-4c0-2.7-1.76-4-3.63-4s-3.62,1.26-3.62,4S268.44,869.41,270.32,869.41Z" />
    <path class="b1741fbe-4af3-428b-b5d3-a5d979b64aa3"
        d="M284.91,864.74c0-2.18-1.19-3.29-3-3.29s-3.11,1.15-3.11,3.54v5.37h-1.26v-9.83h1.26v1.67a3.6,3.6,0,0,1,3.35-1.85c2.23,0,4,1.37,4,4.25v5.76h-1.24Z" />
    <path class="b1741fbe-4af3-428b-b5d3-a5d979b64aa3"
        d="M293.14,870.5a4.69,4.69,0,0,1-4.83-5.06c0-3.13,2-5.05,4.83-5.05a4.42,4.42,0,0,1,4.65,4.55,7.71,7.71,0,0,1,0,1h-8.16a3.43,3.43,0,0,0,3.55,3.51,3,3,0,0,0,3.17-2.19h1.33A4.32,4.32,0,0,1,293.14,870.5Zm-3.55-5.6h6.92a3.22,3.22,0,0,0-3.42-3.43A3.4,3.4,0,0,0,289.59,864.9Z" />
    <path class="b1741fbe-4af3-428b-b5d3-a5d979b64aa3"
        d="M303.39,870.5c-2.23,0-3.8-1.11-4-2.91h1.3c.1,1.08,1,1.85,2.64,1.85,1.41,0,2.2-.75,2.2-1.69,0-2.43-5.91-1-5.91-4.7,0-1.46,1.39-2.66,3.46-2.66s3.49,1.11,3.6,3h-1.26a2.09,2.09,0,0,0-2.38-1.92c-1.31,0-2.14.7-2.14,1.56,0,2.67,5.82,1.24,5.87,4.72C306.81,869.33,305.43,870.5,303.39,870.5Z" />
    <circle class="aea194d0-d74d-4a79-a8ae-d12d846608dd" cx="141.15" cy="686.21" r="32.69" />
    <path class="b1741fbe-4af3-428b-b5d3-a5d979b64aa3" d="M136.4,680.68h-2.89V676h8.1v21.35H136.4Z" />
    <path class="b1741fbe-4af3-428b-b5d3-a5d979b64aa3"
        d="M148.1,697.62a2.73,2.73,0,1,1,3-2.69A2.76,2.76,0,0,1,148.1,697.62Z" />
    <circle class="aea194d0-d74d-4a79-a8ae-d12d846608dd" cx="141.15" cy="773.74" r="32.69" />
    <path class="b1741fbe-4af3-428b-b5d3-a5d979b64aa3"
        d="M130.72,780.91c4.53-3.74,9.36-7.46,9.36-11.06,0-1.55-.71-2.54-2.23-2.54s-2.37,1.17-2.37,3.19h-4.82c.14-5.18,3.51-7.4,7.4-7.4,4.85,0,7,2.83,7,6.43,0,4.68-4.18,8.43-7.58,11h7.9v4.06H130.72Z" />
    <path class="b1741fbe-4af3-428b-b5d3-a5d979b64aa3"
        d="M151.25,785.15a2.73,2.73,0,1,1,2.95-2.69A2.77,2.77,0,0,1,151.25,785.15Z" />
    <circle class="aea194d0-d74d-4a79-a8ae-d12d846608dd" cx="141.15" cy="861.66" r="32.69" />
    <path class="b1741fbe-4af3-428b-b5d3-a5d979b64aa3"
        d="M138.3,851c4.5,0,6.93,2.58,6.93,5.79a4.84,4.84,0,0,1-3.22,4.8v.12a5,5,0,0,1,3.6,5.15c0,3.59-2.57,6.17-7.05,6.17s-7.66-2.11-7.81-6.93h4.86a2.55,2.55,0,0,0,2.78,2.78,2.22,2.22,0,0,0,2.39-2.4c0-1.9-1.14-2.67-3.74-2.67h-.94v-4.06H137c1.7,0,3.33-.41,3.33-2.34a2,2,0,0,0-2.19-2.22,2.22,2.22,0,0,0-2.28,2.34H131C131.19,853.29,133.94,851,138.3,851Z" />
    <path class="b1741fbe-4af3-428b-b5d3-a5d979b64aa3"
        d="M151.3,873.07a2.73,2.73,0,1,1,3-2.69A2.76,2.76,0,0,1,151.3,873.07Z" />
    <circle class="aea194d0-d74d-4a79-a8ae-d12d846608dd" cx="150.88" cy="348.46" r="43.59" />
    <path class="ecade993-6b59-4bda-bdc7-0d7e244a613a"
        d="M165.81,338.87h-8.53a2.14,2.14,0,0,1,0-4.27h8.53a2.14,2.14,0,0,1,0,4.27Zm0,11.73H144.49a2.14,2.14,0,1,1,0-4.27h21.32a2.14,2.14,0,0,1,0,4.27Zm1.51,11.28a2.14,2.14,0,0,1,0,3,2.15,2.15,0,0,1-3,0l-1.69-1.69-1.69,1.69a2.14,2.14,0,0,1-3-3l1.7-1.69-1.7-1.69a2.13,2.13,0,1,1,3-3l1.69,1.69,1.69-1.69a2.13,2.13,0,0,1,3,3l-1.69,1.69ZM153,363.39h-8.52a2.13,2.13,0,1,1,0-4.26H153a2.13,2.13,0,1,1,0,4.26Zm-21.54,6.4a1.92,1.92,0,0,1-1.91-1.91V350.6h4.26v17.28a2.08,2.08,0,0,1-2.13,1.91Zm9.24-35.15a2.14,2.14,0,0,1,3,0l.62.63,4.89-4.89a2.13,2.13,0,0,1,3,3l-6.4,6.4a2.15,2.15,0,0,1-3,0l-2.13-2.13a2.14,2.14,0,0,1,0-3Zm-6.89-11.76v23.45h-8.53v21.55a6.18,6.18,0,0,0,6.18,6.17h38.69a6.25,6.25,0,0,0,6.31-6.17v-45Z" />
</svg>