<svg xmlns="http://www.w3.org/2000/svg" xmlns:xlink="http://www.w3.org/1999/xlink" viewBox="0 0 428.99 949.77"><defs><style>.a,.d{fill:none;}.b{clip-path:url(#a);}.c{fill:#ce4b2e;}.d{stroke:#fd893b;stroke-miterlimit:10;stroke-width:2px;}.e{fill:#fd893b;}.f{fill:#fff;}.g{fill:#272b31;fill-rule:evenodd;}</style><clipPath id="a"><rect class="a" x="-1404.47" y="-430.57" width="1366" height="328.24"/></clipPath></defs><g class="b"><circle class="c" cx="-251.33" cy="-430.57" r="457.71"/></g><line class="d" y1="357.81" x2="59.85" y2="357.81"/><path class="e" d="M122.05,432.94h-7.77v4.26h6.87v4h-6.87v4.62h7.77v4.11h-12.9V428.83h12.9Z"/><path class="e" d="M125.34,427.69h5.13v22.2h-5.13Z"/><path class="e" d="M141.51,450.13c-4.92,0-8.46-3.3-8.46-8.61s3.48-8.61,8.46-8.61,8.34,3.24,8.34,8.34a13,13,0,0,1-.09,1.5H138.15c.18,2.19,1.53,3.21,3.18,3.21a2.73,2.73,0,0,0,2.67-1.62h5.46A7.82,7.82,0,0,1,141.51,450.13Zm-3.33-10.23h6.42a2.89,2.89,0,0,0-3.15-2.88A3.17,3.17,0,0,0,138.18,439.9Z"/><path class="e" d="M175.5,440.8c0-2.19-1.25-3.39-3.2-3.39s-3.21,1.2-3.21,3.39v9.09H164V440.8c0-2.19-1.26-3.39-3.21-3.39s-3.21,1.2-3.21,3.39v9.09h-5.13V433.15h5.13v2.1a5.91,5.91,0,0,1,4.89-2.28,6.25,6.25,0,0,1,5.7,3.12A6.73,6.73,0,0,1,173.8,433c4.14,0,6.8,2.64,6.8,7.14v9.78h-5.1Z"/><path class="e" d="M191.53,450.13c-4.92,0-8.46-3.3-8.46-8.61s3.48-8.61,8.46-8.61,8.34,3.24,8.34,8.34a11.11,11.11,0,0,1-.1,1.5h-11.6c.18,2.19,1.53,3.21,3.18,3.21a2.71,2.71,0,0,0,2.66-1.62h5.46A7.8,7.8,0,0,1,191.53,450.13ZM188.2,439.9h6.42a2.9,2.9,0,0,0-3.16-2.88A3.17,3.17,0,0,0,188.2,439.9Z"/><path class="e" d="M214,440.8c0-2.28-1.26-3.54-3.21-3.54s-3.21,1.26-3.21,3.54v9.09h-5.12V433.15h5.12v2.22a6.14,6.14,0,0,1,5.07-2.4c3.87,0,6.45,2.64,6.45,7.14v9.78H214Z"/><path class="e" d="M223.09,437.41h-2v-4.26h2v-4.08h5.13v4.08h3.36v4.26h-3.36v6.72c0,1,.42,1.41,1.56,1.41h1.83v4.35H229c-3.48,0-5.91-1.47-5.91-5.82Z"/><path class="e" d="M241.85,450.13c-4.92,0-8.64-3.3-8.64-8.61s3.81-8.61,8.7-8.61,8.7,3.3,8.7,8.61S246.77,450.13,241.85,450.13Zm0-4.44c1.83,0,3.54-1.35,3.54-4.17s-1.68-4.17-3.48-4.17-3.48,1.32-3.48,4.17S240,445.69,241.85,445.69Z"/><path class="e" d="M259.86,450.13c-4.47,0-7.47-2.49-7.71-5.73h5.06a2.36,2.36,0,0,0,2.59,2c1.32,0,2-.6,2-1.35,0-2.7-9.11-.75-9.11-6.9,0-2.85,2.43-5.19,6.81-5.19s6.71,2.4,7.05,5.7H261.8a2.19,2.19,0,0,0-2.45-1.89c-1.2,0-1.86.48-1.86,1.29,0,2.67,9.06.78,9.14,7C266.63,447.94,264.05,450.13,259.86,450.13Z"/><path class="e" d="M286.43,432.91c4.12,0,7.38,3.3,7.38,8.58s-3.26,8.64-7.38,8.64a6,6,0,0,1-5.16-2.58v10.32h-5.12V433.15h5.12v2.37A5.91,5.91,0,0,1,286.43,432.91Zm-1.53,4.47c-1.92,0-3.65,1.47-3.65,4.14s1.73,4.14,3.65,4.14,3.69-1.5,3.69-4.17S286.85,437.38,284.9,437.38Z"/><path class="e" d="M302.9,432.91a5.83,5.83,0,0,1,5.16,2.61v-2.37h5.13v16.74h-5.13v-2.37a5.92,5.92,0,0,1-5.19,2.61c-4.08,0-7.35-3.36-7.35-8.64S298.79,432.91,302.9,432.91Zm1.5,4.47c-1.92,0-3.66,1.44-3.66,4.11s1.74,4.17,3.66,4.17,3.66-1.47,3.66-4.14S306.35,437.38,304.4,437.38Z"/><path class="e" d="M321.9,449.89h-5.13V433.15h5.13v2.79a6.24,6.24,0,0,1,5.25-3v5.43h-1.41c-2.43,0-3.84.84-3.84,3.72Z"/><path class="e" d="M335.78,432.91a5.83,5.83,0,0,1,5.16,2.61v-2.37h5.13v16.74h-5.13v-2.37a5.92,5.92,0,0,1-5.19,2.61c-4.08,0-7.35-3.36-7.35-8.64S331.67,432.91,335.78,432.91Zm1.5,4.47c-1.92,0-3.66,1.44-3.66,4.11s1.74,4.17,3.66,4.17,3.66-1.47,3.66-4.14S339.23,437.38,337.28,437.38Z"/><path class="e" d="M110,476.41h-2v-4.26h2v-4.08h5.13v4.08h3.36v4.26h-3.36v6.72c0,1,.42,1.41,1.56,1.41h1.83v4.35h-2.61c-3.48,0-5.91-1.47-5.91-5.82Z"/><path class="e" d="M128.54,489.13c-4.92,0-8.46-3.3-8.46-8.61s3.48-8.61,8.46-8.61,8.34,3.24,8.34,8.34a13,13,0,0,1-.09,1.5H125.18c.18,2.19,1.53,3.21,3.18,3.21a2.73,2.73,0,0,0,2.67-1.62h5.46A7.82,7.82,0,0,1,128.54,489.13Zm-3.33-10.23h6.42a2.89,2.89,0,0,0-3.15-2.88A3.17,3.17,0,0,0,125.21,478.9Z"/><path class="e" d="M151,479.8c0-2.28-1.26-3.54-3.21-3.54s-3.21,1.26-3.21,3.54v9.09h-5.13V472.15h5.13v2.22a6.17,6.17,0,0,1,5.07-2.4c3.87,0,6.45,2.64,6.45,7.14v9.78H151Z"/><path class="e" d="M167,489.13c-4.92,0-8.46-3.3-8.46-8.61s3.48-8.61,8.46-8.61,8.34,3.24,8.34,8.34a13,13,0,0,1-.09,1.5H163.67c.18,2.19,1.53,3.21,3.18,3.21a2.73,2.73,0,0,0,2.67-1.62H175A7.82,7.82,0,0,1,167,489.13ZM163.7,478.9h6.42A2.89,2.89,0,0,0,167,476,3.17,3.17,0,0,0,163.7,478.9Z"/><path class="e" d="M183.09,488.89H178V472.15h5.13v2.79a6.24,6.24,0,0,1,5.25-3v5.43h-1.41c-2.43,0-3.84.84-3.84,3.72Z"/><path class="e" d="M204.6,489.13c-4.92,0-8.46-3.3-8.46-8.61s3.48-8.61,8.46-8.61,8.34,3.24,8.34,8.34a13,13,0,0,1-.09,1.5H201.24c.18,2.19,1.53,3.21,3.18,3.21a2.73,2.73,0,0,0,2.67-1.62h5.46A7.82,7.82,0,0,1,204.6,489.13Zm-3.33-10.23h6.42a2.89,2.89,0,0,0-3.15-2.88A3.17,3.17,0,0,0,201.27,478.9Z"/><path class="e" d="M227.08,479.8c0-2.28-1.26-3.54-3.21-3.54s-3.21,1.26-3.21,3.54v9.09h-5.13V472.15h5.13v2.22a6.14,6.14,0,0,1,5.07-2.4c3.87,0,6.45,2.64,6.45,7.14v9.78h-5.1Z"/><path class="e" d="M249.49,471.91c4.2,0,7.17,2.31,8,6.3h-5.46a2.64,2.64,0,0,0-2.67-1.92c-1.83,0-3.09,1.44-3.09,4.23s1.26,4.23,3.09,4.23a2.6,2.6,0,0,0,2.67-1.92h5.46a7.77,7.77,0,0,1-8,6.3c-4.92,0-8.4-3.3-8.4-8.61S244.57,471.91,249.49,471.91Z"/><path class="e" d="M276.56,488.89h-5.13v-2.28a6.1,6.1,0,0,1-5.07,2.46c-3.87,0-6.48-2.67-6.48-7.14v-9.78H265v9.09c0,2.28,1.29,3.54,3.21,3.54s3.24-1.26,3.24-3.54v-9.09h5.13Z"/><path class="e" d="M287.65,489.13c-4.92,0-8.46-3.3-8.46-8.61s3.48-8.61,8.46-8.61,8.34,3.24,8.34,8.34a13,13,0,0,1-.09,1.5H284.29c.18,2.19,1.53,3.21,3.18,3.21a2.73,2.73,0,0,0,2.67-1.62h5.46A7.82,7.82,0,0,1,287.65,489.13Zm-3.33-10.23h6.42a2.89,2.89,0,0,0-3.15-2.88A3.17,3.17,0,0,0,284.32,478.9Z"/><path class="e" d="M310.13,479.8c0-2.28-1.26-3.54-3.21-3.54s-3.21,1.26-3.21,3.54v9.09h-5.13V472.15h5.13v2.22a6.14,6.14,0,0,1,5.07-2.4c3.87,0,6.45,2.64,6.45,7.14v9.78h-5.1Z"/><path class="e" d="M319.22,476.41h-2v-4.26h2v-4.08h5.13v4.08h3.36v4.26h-3.36v6.72c0,1,.42,1.41,1.56,1.41h1.83v4.35h-2.61c-3.48,0-5.91-1.47-5.91-5.82Z"/><path class="e" d="M336.79,471.91a5.83,5.83,0,0,1,5.16,2.61v-2.37h5.13v16.74H342v-2.37a5.92,5.92,0,0,1-5.19,2.61c-4.08,0-7.35-3.36-7.35-8.64S332.68,471.91,336.79,471.91Zm1.5,4.47c-1.92,0-3.66,1.44-3.66,4.11s1.74,4.17,3.66,4.17,3.66-1.47,3.66-4.14S340.24,476.38,338.29,476.38Z"/><path class="e" d="M119.44,510.91c4.11,0,7.38,3.3,7.38,8.58s-3.27,8.64-7.38,8.64a6,6,0,0,1-5.16-2.58v10.32h-5.13V511.15h5.13v2.37A5.9,5.9,0,0,1,119.44,510.91Zm-1.53,4.47c-1.92,0-3.66,1.47-3.66,4.14s1.74,4.14,3.66,4.14,3.69-1.5,3.69-4.17S119.86,515.38,117.91,515.38Z"/><path class="e" d="M135.91,510.91a5.83,5.83,0,0,1,5.16,2.61v-2.37h5.13v16.74h-5.13v-2.37a5.92,5.92,0,0,1-5.19,2.61c-4.08,0-7.35-3.36-7.35-8.64S131.8,510.91,135.91,510.91Zm1.5,4.47c-1.92,0-3.66,1.44-3.66,4.11s1.74,4.17,3.66,4.17,3.66-1.47,3.66-4.14S139.36,515.38,137.41,515.38Z"/><path class="e" d="M154.91,527.89h-5.13V511.15h5.13v2.79a6.24,6.24,0,0,1,5.25-3v5.43h-1.41c-2.43,0-3.84.84-3.84,3.72Z"/><path class="e" d="M168.79,510.91a5.83,5.83,0,0,1,5.16,2.61v-2.37h5.13v16.74H174v-2.37a5.92,5.92,0,0,1-5.19,2.61c-4.08,0-7.35-3.36-7.35-8.64S164.68,510.91,168.79,510.91Zm1.5,4.47c-1.92,0-3.66,1.44-3.66,4.11s1.74,4.17,3.66,4.17,3.66-1.47,3.66-4.14S172.24,515.38,170.29,515.38Z"/><path class="e" d="M196.6,528.13c-4.92,0-8.46-3.3-8.46-8.61s3.48-8.61,8.46-8.61,8.34,3.24,8.34,8.34a13,13,0,0,1-.09,1.5H193.24c.18,2.19,1.53,3.21,3.18,3.21a2.73,2.73,0,0,0,2.67-1.62h5.46A7.82,7.82,0,0,1,196.6,528.13Zm-3.33-10.23h6.42a2.89,2.89,0,0,0-3.15-2.88A3.17,3.17,0,0,0,193.27,517.9Z"/><path class="e" d="M207.57,505.69h5.13v22.2h-5.13Z"/><path class="e" d="M223.74,528.13c-4.92,0-8.46-3.3-8.46-8.61s3.48-8.61,8.46-8.61,8.34,3.24,8.34,8.34a13,13,0,0,1-.09,1.5H220.38c.18,2.19,1.53,3.21,3.18,3.21a2.73,2.73,0,0,0,2.67-1.62h5.46A7.82,7.82,0,0,1,223.74,528.13Zm-3.33-10.23h6.42a2.89,2.89,0,0,0-3.15-2.88A3.17,3.17,0,0,0,220.41,517.9Z"/><path class="e" d="M241.09,510.91a5.8,5.8,0,0,1,5.16,2.61v-2.37h5.13v16.71c0,4.47-2.58,8.28-8.37,8.28-5,0-8.22-2.52-8.67-6.51h5.07c.33,1.26,1.59,2.07,3.36,2.07,1.95,0,3.48-1,3.48-3.84v-2.37a5.92,5.92,0,0,1-5.16,2.64c-4.11,0-7.38-3.36-7.38-8.64S237,510.91,241.09,510.91Zm1.5,4.47c-1.92,0-3.66,1.44-3.66,4.11s1.74,4.17,3.66,4.17,3.66-1.47,3.66-4.14S244.54,515.38,242.59,515.38Z"/><path class="e" d="M254.5,506.65a3.06,3.06,0,1,1,3.06,2.76A2.84,2.84,0,0,1,254.5,506.65Zm.48,4.5h5.13v16.74H255Z"/><path class="e" d="M268.81,527.89h-5.13V511.15h5.13v2.79a6.24,6.24,0,0,1,5.25-3v5.43h-1.41c-2.43,0-3.84.84-3.84,3.72Z"/><path class="e" d="M299.41,527.89h-5.13v-2.28a6.1,6.1,0,0,1-5.07,2.46c-3.87,0-6.48-2.67-6.48-7.14v-9.78h5.1v9.09c0,2.28,1.29,3.54,3.21,3.54s3.24-1.26,3.24-3.54v-9.09h5.13Z"/><path class="e" d="M314.53,518.8c0-2.28-1.26-3.54-3.21-3.54s-3.21,1.26-3.21,3.54v9.09H303V511.15h5.13v2.22a6.14,6.14,0,0,1,5.07-2.4c3.87,0,6.45,2.64,6.45,7.14v9.78h-5.1Z"/><path class="e" d="M115.51,549.91a6.14,6.14,0,0,1,5.16,2.55v-7.77h5.13v22.2h-5.13v-2.4a5.79,5.79,0,0,1-5.16,2.64c-4.11,0-7.38-3.36-7.38-8.64S111.4,549.91,115.51,549.91Zm1.5,4.47c-1.92,0-3.66,1.44-3.66,4.11s1.74,4.17,3.66,4.17,3.66-1.47,3.66-4.14S119,554.38,117,554.38Z"/><path class="e" d="M128.93,545.65a3.06,3.06,0,1,1,3.06,2.76A2.84,2.84,0,0,1,128.93,545.65Zm.48,4.5h5.13v16.74h-5.13Z"/><path class="e" d="M144.78,567.13c-4.47,0-7.47-2.49-7.71-5.73h5.07a2.35,2.35,0,0,0,2.58,2c1.32,0,2-.6,2-1.35,0-2.7-9.12-.75-9.12-6.9,0-2.85,2.43-5.19,6.81-5.19s6.72,2.4,7.05,5.7h-4.74a2.21,2.21,0,0,0-2.46-1.89c-1.2,0-1.86.48-1.86,1.29,0,2.67,9.06.78,9.15,7C151.56,564.94,149,567.13,144.78,567.13Z"/><path class="e" d="M161.86,567.13c-4.92,0-8.46-3.3-8.46-8.61s3.48-8.61,8.46-8.61,8.34,3.24,8.34,8.34a13,13,0,0,1-.09,1.5H158.5c.18,2.19,1.53,3.21,3.18,3.21a2.73,2.73,0,0,0,2.67-1.62h5.46A7.82,7.82,0,0,1,161.86,567.13Zm-3.33-10.23H165A2.89,2.89,0,0,0,161.8,554,3.17,3.17,0,0,0,158.53,556.9Z"/><path class="e" d="M177.92,566.89h-5.13V550.15h5.13v2.22A6.14,6.14,0,0,1,183,550c3.87,0,6.44,2.64,6.44,7.14v9.78h-5.09V557.8c0-2.28-1.26-3.54-3.21-3.54s-3.21,1.26-3.21,3.54Zm2-22.59c1.8,0,2.73,1.35,3.93,1.35.69,0,1.17-.42,1.29-1.35h2.63c-.5,3.15-2,4.44-4.13,4.44-1.8,0-2.73-1.35-3.93-1.35-.69,0-1.17.42-1.32,1.35h-2.61C176.27,545.59,177.77,544.3,179.9,544.3Z"/><path class="e" d="M200.47,567.13c-4.92,0-8.63-3.3-8.63-8.61s3.8-8.61,8.7-8.61,8.69,3.3,8.69,8.61S205.39,567.13,200.47,567.13Zm0-4.44c1.83,0,3.54-1.35,3.54-4.17s-1.67-4.17-3.47-4.17-3.49,1.32-3.49,4.17S198.62,562.69,200.47,562.69Z"/><path class="e" d="M224.68,549.91a6.14,6.14,0,0,1,5.16,2.55v-7.77H235v22.2h-5.13v-2.4a5.79,5.79,0,0,1-5.16,2.64c-4.11,0-7.38-3.36-7.38-8.64S220.57,549.91,224.68,549.91Zm1.5,4.47c-1.92,0-3.66,1.44-3.66,4.11s1.74,4.17,3.66,4.17,3.66-1.47,3.66-4.14S228.13,554.38,226.18,554.38Z"/><path class="e" d="M246.08,567.13c-4.92,0-8.46-3.3-8.46-8.61s3.48-8.61,8.46-8.61,8.34,3.24,8.34,8.34a13,13,0,0,1-.09,1.5H242.72c.18,2.19,1.53,3.21,3.18,3.21a2.73,2.73,0,0,0,2.67-1.62H254A7.82,7.82,0,0,1,246.08,567.13Zm-3.33-10.23h6.42A2.89,2.89,0,0,0,246,554,3.17,3.17,0,0,0,242.75,556.9Z"/><path class="e" d="M108.67,584.65a3.06,3.06,0,1,1,3.06,2.76A2.84,2.84,0,0,1,108.67,584.65Zm.48,4.5h5.13v16.74h-5.13Z"/><path class="e" d="M129.4,596.8c0-2.28-1.26-3.54-3.21-3.54S123,594.52,123,596.8v9.09h-5.13V589.15H123v2.22a6.14,6.14,0,0,1,5.07-2.4c3.87,0,6.45,2.64,6.45,7.14v9.78h-5.1Z"/><path class="e" d="M141.15,589.15l3.63,11.94,3.63-11.94h5.45l-5.94,16.74H141.6l-5.94-16.74Z"/><path class="e" d="M162.65,606.13c-4.92,0-8.46-3.3-8.46-8.61s3.48-8.61,8.46-8.61,8.34,3.24,8.34,8.34a13,13,0,0,1-.09,1.5H159.29c.18,2.19,1.53,3.21,3.18,3.21a2.73,2.73,0,0,0,2.67-1.62h5.46A7.82,7.82,0,0,1,162.65,606.13Zm-3.33-10.23h6.42a2.89,2.89,0,0,0-3.15-2.88A3.17,3.17,0,0,0,159.32,595.9Z"/><path class="e" d="M180.23,606.13c-4.47,0-7.47-2.49-7.71-5.73h5.07a2.35,2.35,0,0,0,2.58,2c1.32,0,2-.6,2-1.35,0-2.7-9.12-.75-9.12-6.9,0-2.85,2.43-5.19,6.81-5.19s6.72,2.4,7,5.7h-4.74a2.21,2.21,0,0,0-2.46-1.89c-1.2,0-1.86.48-1.86,1.29,0,2.67,9.06.78,9.15,7C187,603.94,184.43,606.13,180.23,606.13Z"/><path class="e" d="M190.61,593.41h-2v-4.26h2v-4.08h5.13v4.08h3.36v4.26h-3.36v6.72c0,1,.42,1.41,1.56,1.41h1.83v4.35h-2.61c-3.48,0-5.91-1.47-5.91-5.82Z"/><path class="e" d="M201.47,584.65a3.06,3.06,0,1,1,3.06,2.76A2.84,2.84,0,0,1,201.47,584.65Zm.48,4.5h5.13v16.74H202Z"/><path class="e" d="M217,588.91a5.8,5.8,0,0,1,5.16,2.61v-2.37h5.13v16.71c0,4.47-2.58,8.28-8.37,8.28-5,0-8.22-2.52-8.67-6.51h5.07c.33,1.26,1.59,2.07,3.36,2.07,1.95,0,3.48-1,3.48-3.84v-2.37a5.92,5.92,0,0,1-5.16,2.64c-4.11,0-7.38-3.36-7.38-8.64S212.89,588.91,217,588.91Zm1.5,4.47c-1.92,0-3.66,1.44-3.66,4.11s1.74,4.17,3.66,4.17,3.66-1.47,3.66-4.14S220.45,593.38,218.5,593.38Z"/><path class="e" d="M237.31,588.91a5.83,5.83,0,0,1,5.16,2.61v-2.37h5.13v16.74h-5.13v-2.37a5.92,5.92,0,0,1-5.19,2.61c-4.08,0-7.35-3.36-7.35-8.64S233.2,588.91,237.31,588.91Zm1.5,4.47c-1.92,0-3.66,1.44-3.66,4.11s1.74,4.17,3.66,4.17,3.66-1.47,3.66-4.14S240.76,593.38,238.81,593.38Z"/><path class="e" d="M258.65,588.91c4.2,0,7.17,2.31,8,6.3h-5.46a2.64,2.64,0,0,0-2.67-1.92c-1.83,0-3.09,1.44-3.09,4.23s1.26,4.23,3.09,4.23a2.6,2.6,0,0,0,2.67-1.92h5.46a7.77,7.77,0,0,1-8,6.3c-4.92,0-8.4-3.3-8.4-8.61S253.73,588.91,258.65,588.91Z"/><path class="e" d="M268.67,584.65a3.05,3.05,0,1,1,3.05,2.76A2.84,2.84,0,0,1,268.67,584.65Zm.48,4.5h5.12v16.74h-5.12Z"/><path class="e" d="M285.39,606.13c-4.92,0-8.64-3.3-8.64-8.61s3.81-8.61,8.7-8.61,8.7,3.3,8.7,8.61S290.31,606.13,285.39,606.13Zm0-4.44c1.83,0,3.54-1.35,3.54-4.17s-1.68-4.17-3.48-4.17-3.48,1.32-3.48,4.17S283.53,601.69,285.39,601.69Zm4-20.82v4l-7.23,3v-3.54Z"/><path class="e" d="M308.3,596.8c0-2.28-1.26-3.54-3.21-3.54s-3.21,1.26-3.21,3.54v9.09h-5.13V589.15h5.13v2.22A6.14,6.14,0,0,1,307,589c3.87,0,6.45,2.64,6.45,7.14v9.78h-5.1Z"/><path class="d" d="M59.85,302.38V906.72c0,16.1,13.05,29.15,29.15,32.75H420.55"/><path class="f" d="M209.13,677.83h-5.31v4.7h4.77v1h-4.77v4.77h5.31v1h-6.57V676.78h6.57Z"/><path class="f" d="M211.18,676.06h1.26v13.33h-1.26Z"/><path class="f" d="M225.39,679.41c2.68,0,4.68,2,4.68,5s-2,5.08-4.68,5.08a4.19,4.19,0,0,1-3.91-2.3V694h-1.24V679.56h1.24v2.16A4.17,4.17,0,0,1,225.39,679.41Zm-.26,1.1a4,4,0,0,0,0,7.92c2.07,0,3.66-1.49,3.66-4A3.59,3.59,0,0,0,225.13,680.51Z"/><path class="f" d="M233.62,689.39h-1.27v-9.83h1.27v1.74a3.38,3.38,0,0,1,3.36-1.92v1.31h-.34c-1.64,0-3,.74-3,3.21Z"/><path class="f" d="M242.71,689.53a5.06,5.06,0,1,1,4.95-5.06A4.79,4.79,0,0,1,242.71,689.53Zm0-1.1a4,4,0,0,0,0-7.92c-1.87,0-3.62,1.26-3.62,4S240.84,688.43,242.71,688.43Z"/><path class="f" d="M255.09,679.41c2.7,0,4.68,2,4.68,5s-2,5.08-4.68,5.08a4.14,4.14,0,0,1-3.91-2.3v2.16h-1.24V676.06h1.24v5.68A4.18,4.18,0,0,1,255.09,679.41Zm-.25,1.1a4,4,0,0,0,0,7.92c2.07,0,3.65-1.49,3.65-4S256.91,680.51,254.84,680.51Z"/><path class="f" d="M262.08,676.06h1.26v13.33h-1.26Z"/><path class="f" d="M270.43,689.53c-2.79,0-4.82-1.94-4.82-5.06s2-5.06,4.82-5.06a4.43,4.43,0,0,1,4.65,4.56,7.79,7.79,0,0,1,0,1h-8.16a3.45,3.45,0,0,0,3.55,3.51,3,3,0,0,0,3.17-2.2h1.33A4.31,4.31,0,0,1,270.43,689.53Zm-3.55-5.6h6.92a3.22,3.22,0,0,0-3.42-3.44A3.41,3.41,0,0,0,266.88,683.93Z"/><path class="f" d="M291.75,683.77c0-2.18-1.13-3.29-2.88-3.29s-3,1.18-3,3.58v5.33h-1.24v-5.62c0-2.18-1.15-3.29-2.9-3.29s-3,1.18-3,3.58v5.33h-1.26v-9.83h1.26v1.69a3.51,3.51,0,0,1,3.26-1.87,3.62,3.62,0,0,1,3.63,2.41,3.58,3.58,0,0,1,3.55-2.41c2.18,0,3.91,1.37,3.91,4.25v5.76h-1.25Z"/><path class="f" d="M299.88,679.41a4.11,4.11,0,0,1,3.89,2.31v-2.16H305v9.83h-1.26v-2.18a4.14,4.14,0,0,1-3.91,2.32c-2.68,0-4.68-2-4.68-5.08S297.18,679.41,299.88,679.41Zm.24,1.1a3.59,3.59,0,0,0-3.66,3.94c0,2.49,1.59,4,3.66,4a4,4,0,0,0,0-7.92Z"/><path class="f" d="M317,679.41a4.09,4.09,0,0,1,3.87,2.31v-2.16h1.26V694h-1.26v-6.8a4.16,4.16,0,0,1-3.9,2.3c-2.69,0-4.69-2-4.69-5.08S314.26,679.41,317,679.41Zm.22,1.1a3.59,3.59,0,0,0-3.66,3.94c0,2.49,1.59,4,3.66,4a4,4,0,0,0,0-7.92Z"/><path class="f" d="M333.47,689.39h-1.26v-1.73a3.56,3.56,0,0,1-3.35,1.89c-2.23,0-4-1.37-4-4.25v-5.74h1.24v5.6c0,2.18,1.19,3.29,3,3.29s3.12-1.15,3.12-3.55v-5.34h1.26Z"/><path class="f" d="M340.56,689.53c-2.79,0-4.82-1.94-4.82-5.06s2-5.06,4.82-5.06a4.43,4.43,0,0,1,4.65,4.56,7.79,7.79,0,0,1,0,1H337a3.44,3.44,0,0,0,3.54,3.51,3,3,0,0,0,3.17-2.2h1.34A4.32,4.32,0,0,1,340.56,689.53Zm-3.54-5.6h6.91a3.22,3.22,0,0,0-3.42-3.44A3.4,3.4,0,0,0,337,683.93Z"/><path class="f" d="M355.83,689.53c-2.24,0-3.8-1.11-4-2.91h1.29c.11,1.08,1,1.85,2.65,1.85,1.4,0,2.2-.76,2.2-1.69,0-2.43-5.91-1-5.91-4.7,0-1.46,1.39-2.67,3.46-2.67s3.49,1.12,3.6,3H357.9a2.1,2.1,0,0,0-2.38-1.93c-1.31,0-2.14.71-2.14,1.57,0,2.66,5.81,1.24,5.87,4.72C359.25,688.36,357.86,689.53,355.83,689.53Z"/><path class="f" d="M365.79,689.53a4.69,4.69,0,0,1-4.83-5.06c0-3.13,2-5.06,4.83-5.06a4.43,4.43,0,0,1,4.65,4.56,7.79,7.79,0,0,1,0,1h-8.16a3.44,3.44,0,0,0,3.55,3.51,3,3,0,0,0,3.17-2.2h1.33A4.31,4.31,0,0,1,365.79,689.53Zm-3.55-5.6h6.92a3.22,3.22,0,0,0-3.42-3.44A3.4,3.4,0,0,0,362.24,683.93Z"/><path class="f" d="M206.7,709.41a4.09,4.09,0,0,1,3.87,2.31v-2.16h1.26V724h-1.26v-6.8a4.16,4.16,0,0,1-3.9,2.3c-2.69,0-4.69-2-4.69-5.08S204,709.41,206.7,709.41Zm.22,1.1a3.59,3.59,0,0,0-3.66,3.94c0,2.49,1.59,4,3.66,4a4,4,0,0,0,0-7.92Z"/><path class="f" d="M223.19,719.39h-1.26v-1.73a3.56,3.56,0,0,1-3.35,1.89c-2.23,0-4-1.37-4-4.25v-5.74h1.24v5.6c0,2.18,1.19,3.29,3,3.29s3.12-1.15,3.12-3.55v-5.34h1.26Z"/><path class="f" d="M225.73,706.77a.92.92,0,1,1,.92.93A.91.91,0,0,1,225.73,706.77Zm.29,2.79h1.26v9.83H226Z"/><path class="f" d="M234.32,719.53c-2.79,0-4.82-1.94-4.82-5.06s2-5.06,4.82-5.06A4.43,4.43,0,0,1,239,714a7.79,7.79,0,0,1,0,1h-8.16a3.45,3.45,0,0,0,3.55,3.51,3,3,0,0,0,3.17-2.2h1.33A4.31,4.31,0,0,1,234.32,719.53Zm-3.55-5.6h6.92a3.22,3.22,0,0,0-3.42-3.44A3.41,3.41,0,0,0,230.77,713.93Z"/><path class="f" d="M242.54,719.39h-1.26v-9.83h1.26v1.74a3.38,3.38,0,0,1,3.36-1.92v1.31h-.34c-1.64,0-3,.74-3,3.21Z"/><path class="f" d="M251.61,719.53c-2.79,0-4.82-1.94-4.82-5.06s2-5.06,4.82-5.06a4.42,4.42,0,0,1,4.65,4.56,7.79,7.79,0,0,1,0,1h-8.15a3.44,3.44,0,0,0,3.54,3.51,3,3,0,0,0,3.17-2.2h1.34A4.32,4.32,0,0,1,251.61,719.53Zm-3.54-5.6H255a3.21,3.21,0,0,0-3.42-3.44A3.4,3.4,0,0,0,248.07,713.93Z"/><path class="f" d="M267.74,719.53c-2.79,0-4.82-1.94-4.82-5.06s2-5.06,4.82-5.06a4.43,4.43,0,0,1,4.65,4.56,7.79,7.79,0,0,1,0,1H264.2a3.43,3.43,0,0,0,3.54,3.51,3,3,0,0,0,3.17-2.2h1.33A4.31,4.31,0,0,1,267.74,719.53Zm-3.54-5.6h6.91a3.22,3.22,0,0,0-3.42-3.44A3.4,3.4,0,0,0,264.2,713.93Z"/><path class="f" d="M278,719.53c-2.23,0-3.8-1.11-4-2.91h1.3c.1,1.08,1,1.85,2.64,1.85,1.41,0,2.2-.76,2.2-1.69,0-2.43-5.91-1-5.91-4.7,0-1.46,1.39-2.67,3.46-2.67s3.49,1.12,3.6,3h-1.26a2.1,2.1,0,0,0-2.37-1.93c-1.32,0-2.15.71-2.15,1.57,0,2.66,5.82,1.24,5.87,4.72C281.41,718.36,280,719.53,278,719.53Z"/><path class="f" d="M284,710.62h-1.36v-1.06H284v-2.47h1.28v2.47H288v1.06h-2.7v6.1c0,1.21.42,1.59,1.55,1.59H288v1.08H286.6c-1.71,0-2.63-.7-2.63-2.67Z"/><path class="f" d="M298.36,719.39H297.1v-1.73a3.56,3.56,0,0,1-3.35,1.89c-2.24,0-4-1.37-4-4.25v-5.74H291v5.6c0,2.18,1.19,3.29,3,3.29s3.12-1.15,3.12-3.55v-5.34h1.26Z"/><path class="f" d="M305.34,709.41a4.29,4.29,0,0,1,3.88,2.27v-5.62h1.26v13.33h-1.26v-2.2a4.1,4.1,0,0,1-3.89,2.34c-2.7,0-4.7-2-4.7-5.08S302.63,709.41,305.34,709.41Zm.22,1.1c-2.07,0-3.65,1.44-3.65,3.94s1.58,4,3.65,4a4,4,0,0,0,0-7.92Z"/><path class="f" d="M313,706.77a.92.92,0,1,1,.92.93A.91.91,0,0,1,313,706.77Zm.29,2.79h1.26v9.83h-1.26Z"/><path class="f" d="M321.5,709.41a4.09,4.09,0,0,1,3.88,2.31v-2.16h1.26v9.83h-1.26v-2.18a4.14,4.14,0,0,1-3.9,2.32c-2.68,0-4.68-2-4.68-5.08S318.8,709.41,321.5,709.41Zm.23,1.1a3.59,3.59,0,0,0-3.66,3.94c0,2.49,1.59,4,3.66,4a4,4,0,0,0,0-7.92Z"/><path class="f" d="M330.73,719.39h-1.26v-9.83h1.26v1.74a3.4,3.4,0,0,1,3.37-1.92v1.31h-.34c-1.64,0-3,.74-3,3.21Z"/><path class="f" d="M203.82,766.8v11.56h4.52v1h-5.78V766.8Z"/><path class="f" d="M213.78,769.41a4.11,4.11,0,0,1,3.89,2.31v-2.16h1.26v9.83h-1.26v-2.18a4.14,4.14,0,0,1-3.9,2.32c-2.69,0-4.69-2-4.69-5.08S211.08,769.41,213.78,769.41Zm.24,1.1a3.59,3.59,0,0,0-3.66,3.94c0,2.49,1.59,4,3.66,4a4,4,0,0,0,0-7.92Z"/><path class="f" d="M235.26,779.39H234v-1.73a3.56,3.56,0,0,1-3.35,1.89c-2.23,0-4-1.37-4-4.25v-5.74h1.24v5.6c0,2.18,1.19,3.29,3,3.29S234,777.3,234,774.9v-5.34h1.26Z"/><path class="f" d="M245.44,773.77c0-2.18-1.19-3.29-3-3.29s-3.11,1.15-3.11,3.54v5.37h-1.26v-9.83h1.26v1.67a3.6,3.6,0,0,1,3.35-1.85c2.23,0,4,1.37,4,4.25v5.76h-1.24Z"/><path class="f" d="M249.11,766.77a.92.92,0,0,1,1.84,0,.92.92,0,1,1-1.84,0Zm.29,2.79h1.26v9.83H249.4Z"/><path class="f" d="M257.59,769.41a4.29,4.29,0,0,1,3.87,2.27v-5.62h1.26v13.33h-1.26v-2.2a4.09,4.09,0,0,1-3.89,2.34c-2.7,0-4.7-2-4.7-5.08S254.87,769.41,257.59,769.41Zm.22,1.1a3.59,3.59,0,0,0-3.66,3.94c0,2.49,1.59,4,3.66,4a4,4,0,0,0,0-7.92Z"/><path class="f" d="M269.7,769.41a4.11,4.11,0,0,1,3.89,2.31v-2.16h1.26v9.83h-1.26v-2.18a4.16,4.16,0,0,1-3.91,2.32c-2.68,0-4.68-2-4.68-5.08S267,769.41,269.7,769.41Zm.23,1.1c-2.07,0-3.65,1.44-3.65,3.94s1.58,4,3.65,4a4,4,0,0,0,0-7.92Z"/><path class="f" d="M281.85,769.41a4.29,4.29,0,0,1,3.87,2.27v-5.62H287v13.33h-1.26v-2.2a4.1,4.1,0,0,1-3.89,2.34c-2.7,0-4.7-2-4.7-5.08S279.13,769.41,281.85,769.41Zm.21,1.1c-2.07,0-3.65,1.44-3.65,3.94s1.58,4,3.65,4a4,4,0,0,0,0-7.92Z"/><path class="f" d="M298.93,769.41a4.29,4.29,0,0,1,3.87,2.27v-5.62h1.26v13.33H302.8v-2.2a4.1,4.1,0,0,1-3.89,2.34c-2.7,0-4.7-2-4.7-5.08S296.21,769.41,298.93,769.41Zm.21,1.1c-2.07,0-3.65,1.44-3.65,3.94s1.58,4,3.65,4a4,4,0,0,0,0-7.92Z"/><path class="f" d="M311.16,779.53c-2.79,0-4.82-1.94-4.82-5.06s2-5.06,4.82-5.06a4.43,4.43,0,0,1,4.65,4.56,7.79,7.79,0,0,1,0,1h-8.15a3.43,3.43,0,0,0,3.54,3.51,3,3,0,0,0,3.17-2.2h1.33A4.31,4.31,0,0,1,311.16,779.53Zm-3.54-5.6h6.91a3.22,3.22,0,0,0-3.42-3.44A3.4,3.4,0,0,0,307.62,773.93Z"/><path class="f" d="M327.16,769.41a4.1,4.1,0,0,1,3.89,2.31v-2.16h1.26v9.83h-1.26v-2.18a4.14,4.14,0,0,1-3.9,2.32c-2.69,0-4.69-2-4.69-5.08S324.46,769.41,327.16,769.41Zm.24,1.1a3.59,3.59,0,0,0-3.66,3.94c0,2.49,1.59,4,3.66,4a4,4,0,0,0,0-7.92Z"/><path class="f" d="M342.51,773.77c0-2.18-1.19-3.29-3-3.29s-3.12,1.15-3.12,3.54v5.37h-1.26v-9.83h1.26v1.67a3.6,3.6,0,0,1,3.35-1.85c2.23,0,4,1.37,4,4.25v5.76h-1.24Z"/><path class="f" d="M350.61,769.41a4.11,4.11,0,0,1,3.89,2.31v-2.16h1.26v9.83H354.5v-2.18a4.16,4.16,0,0,1-3.91,2.32c-2.68,0-4.68-2-4.68-5.08S347.91,769.41,350.61,769.41Zm.23,1.1c-2.07,0-3.65,1.44-3.65,3.94s1.58,4,3.65,4a4,4,0,0,0,0-7.92Zm2-5v1.14l-3.69,2.14v-1Z"/><path class="f" d="M358.59,766.06h1.26v13.33h-1.26Z"/><path class="f" d="M362.36,766.77a.92.92,0,0,1,1.84,0,.92.92,0,1,1-1.84,0Zm.29,2.79h1.26v9.83h-1.26Z"/><path class="f" d="M370.08,779.53c-2.23,0-3.8-1.11-4-2.91h1.3c.1,1.08,1,1.85,2.64,1.85,1.41,0,2.2-.76,2.2-1.69,0-2.43-5.91-1-5.91-4.7,0-1.46,1.39-2.67,3.46-2.67s3.49,1.12,3.6,3h-1.26a2.1,2.1,0,0,0-2.37-1.93c-1.32,0-2.15.71-2.15,1.57,0,2.66,5.82,1.24,5.87,4.72C373.5,778.36,372.12,779.53,370.08,779.53Z"/><path class="f" d="M375.53,766.77a.92.92,0,0,1,1.84,0,.92.92,0,1,1-1.84,0Zm.29,2.79h1.26v9.83h-1.26Z"/><path class="f" d="M383.25,779.53c-2.23,0-3.8-1.11-4-2.91h1.3c.11,1.08,1,1.85,2.64,1.85,1.41,0,2.2-.76,2.2-1.69,0-2.43-5.9-1-5.9-4.7,0-1.46,1.38-2.67,3.45-2.67s3.5,1.12,3.6,3h-1.26a2.1,2.1,0,0,0-2.37-1.93c-1.32,0-2.15.71-2.15,1.57,0,2.66,5.82,1.24,5.87,4.72C386.67,778.36,385.29,779.53,383.25,779.53Z"/><path class="f" d="M203.82,826.8v11.56h4.52v1h-5.78V826.8Z"/><path class="f" d="M214,839.53a5.06,5.06,0,1,1,5-5.06A4.79,4.79,0,0,1,214,839.53Zm0-1.1a3.61,3.61,0,0,0,3.65-4c0-2.7-1.76-4-3.64-4s-3.62,1.26-3.62,4S212.07,838.43,214,838.43Z"/><path class="f" d="M224.45,839.53c-2.23,0-3.8-1.11-4-2.91h1.3c.1,1.08,1,1.85,2.64,1.85,1.41,0,2.2-.76,2.2-1.69,0-2.43-5.91-1-5.91-4.7,0-1.46,1.39-2.67,3.46-2.67s3.49,1.12,3.6,3h-1.26a2.1,2.1,0,0,0-2.37-1.93c-1.32,0-2.15.71-2.15,1.57,0,2.66,5.82,1.24,5.87,4.72C227.87,838.36,226.49,839.53,224.45,839.53Z"/><path class="f" d="M236.44,839.39h-1.26v-9.83h1.26v1.74a3.38,3.38,0,0,1,3.36-1.92v1.31h-.34c-1.64,0-3,.74-3,3.21Z"/><path class="f" d="M245.52,839.53a4.68,4.68,0,0,1-4.83-5.06c0-3.13,2-5.06,4.83-5.06a4.42,4.42,0,0,1,4.64,4.56c0,.39,0,.65,0,1H242a3.44,3.44,0,0,0,3.55,3.51,3,3,0,0,0,3.16-2.2H250A4.32,4.32,0,0,1,245.52,839.53Zm-3.55-5.6h6.91a3.21,3.21,0,0,0-3.42-3.44A3.4,3.4,0,0,0,242,833.93Z"/><path class="f" d="M256.67,829.41a4.25,4.25,0,0,1,4.52,3.35h-1.35a3,3,0,0,0-3.17-2.27c-1.93,0-3.5,1.32-3.5,4s1.57,4,3.5,4a3,3,0,0,0,3.17-2.29h1.35a4.31,4.31,0,0,1-4.52,3.35c-2.78,0-4.77-1.94-4.77-5.06S253.89,829.41,256.67,829.41Z"/><path class="f" d="M271.85,839.39h-1.26v-1.73a3.55,3.55,0,0,1-3.35,1.89c-2.23,0-4-1.37-4-4.25v-5.74h1.24v5.6c0,2.18,1.19,3.29,3,3.29s3.11-1.15,3.11-3.55v-5.34h1.26Z"/><path class="f" d="M275.93,839.39h-1.26v-9.83h1.26v1.74a3.4,3.4,0,0,1,3.37-1.92v1.31H279c-1.64,0-3,.74-3,3.21Z"/><path class="f" d="M284.46,839.53c-2.23,0-3.8-1.11-4-2.91h1.3c.11,1.08,1,1.85,2.65,1.85,1.4,0,2.19-.76,2.19-1.69,0-2.43-5.9-1-5.9-4.7,0-1.46,1.38-2.67,3.45-2.67s3.5,1.12,3.6,3h-1.26a2.1,2.1,0,0,0-2.37-1.93c-1.32,0-2.15.71-2.15,1.57,0,2.66,5.82,1.24,5.87,4.72C287.88,838.36,286.5,839.53,284.46,839.53Z"/><path class="f" d="M294.48,839.53a5.06,5.06,0,1,1,4.95-5.06A4.79,4.79,0,0,1,294.48,839.53Zm0-1.1a3.6,3.6,0,0,0,3.65-4c0-2.7-1.76-4-3.63-4s-3.62,1.26-3.62,4S292.61,838.43,294.48,838.43Z"/><path class="f" d="M305,839.53c-2.24,0-3.8-1.11-4-2.91h1.29c.11,1.08,1.05,1.85,2.65,1.85,1.4,0,2.2-.76,2.2-1.69,0-2.43-5.91-1-5.91-4.7,0-1.46,1.39-2.67,3.46-2.67s3.49,1.12,3.6,3h-1.26a2.11,2.11,0,0,0-2.38-1.93c-1.31,0-2.14.71-2.14,1.57,0,2.66,5.81,1.24,5.87,4.72C308.41,838.36,307,839.53,305,839.53Z"/><path class="f" d="M322.52,829.56h1.3L318,844h-1.31l1.91-4.69-4-9.77h1.39l3.35,8.39Z"/><path class="f" d="M333.84,839.53c-2.23,0-3.8-1.11-4-2.91h1.29c.11,1.08,1.05,1.85,2.65,1.85,1.41,0,2.2-.76,2.2-1.69,0-2.43-5.91-1-5.91-4.7,0-1.46,1.39-2.67,3.46-2.67s3.49,1.12,3.6,3h-1.26a2.1,2.1,0,0,0-2.38-1.93c-1.31,0-2.14.71-2.14,1.57,0,2.66,5.82,1.24,5.87,4.72C337.26,838.36,335.87,839.53,333.84,839.53Z"/><path class="f" d="M348.06,839.39H346.8v-1.73a3.55,3.55,0,0,1-3.35,1.89c-2.23,0-4-1.37-4-4.25v-5.74h1.24v5.6c0,2.18,1.19,3.29,3,3.29s3.11-1.15,3.11-3.55v-5.34h1.26Z"/><path class="f" d="M354.26,839.53c-2.23,0-3.8-1.11-4-2.91h1.3c.1,1.08,1,1.85,2.64,1.85,1.41,0,2.2-.76,2.2-1.69,0-2.43-5.91-1-5.91-4.7,0-1.46,1.39-2.67,3.46-2.67s3.49,1.12,3.6,3h-1.26a2.1,2.1,0,0,0-2.37-1.93c-1.32,0-2.15.71-2.15,1.57,0,2.66,5.82,1.24,5.87,4.72C357.68,838.36,356.3,839.53,354.26,839.53Z"/><path class="f" d="M202.56,856.06h1.26v13.33h-1.26Z"/><path class="f" d="M206.33,856.77a.92.92,0,1,1,.92.93A.91.91,0,0,1,206.33,856.77Zm.29,2.79h1.26v9.83h-1.26Z"/><path class="f" d="M225.06,863.77c0-2.18-1.14-3.29-2.89-3.29s-3,1.18-3,3.58v5.33h-1.24v-5.62c0-2.18-1.15-3.29-2.9-3.29s-3,1.18-3,3.58v5.33h-1.26v-9.83H212v1.69a3.51,3.51,0,0,1,3.26-1.87,3.62,3.62,0,0,1,3.63,2.41,3.58,3.58,0,0,1,3.55-2.41c2.18,0,3.91,1.37,3.91,4.25v5.76h-1.24Z"/><path class="f" d="M228.75,856.77a.92.92,0,0,1,1.84,0,.92.92,0,1,1-1.84,0Zm.29,2.79h1.26v9.83H229Z"/><path class="f" d="M233.39,860.62H232v-1.06h1.37v-2.47h1.28v2.47h2.7v1.06h-2.7v6.1c0,1.21.42,1.59,1.55,1.59h1.15v1.08H236c-1.71,0-2.63-.7-2.63-2.67Z"/><path class="f" d="M243,859.41a4.11,4.11,0,0,1,3.89,2.31v-2.16h1.26v9.83h-1.26v-2.18a4.16,4.16,0,0,1-3.91,2.32c-2.68,0-4.68-2-4.68-5.08S240.34,859.41,243,859.41Zm.23,1.1c-2.07,0-3.65,1.44-3.65,3.94s1.58,4,3.65,4a4,4,0,0,0,0-7.92Z"/><path class="f" d="M255.24,859.41a4.25,4.25,0,0,1,4.52,3.35h-1.35a3,3,0,0,0-3.17-2.27c-1.93,0-3.49,1.32-3.49,4s1.56,4,3.49,4a3,3,0,0,0,3.17-2.29h1.35a4.3,4.3,0,0,1-4.52,3.35c-2.77,0-4.77-1.94-4.77-5.06S252.47,859.41,255.24,859.41Z"/><path class="f" d="M261.68,856.77a.92.92,0,1,1,1.83,0,.92.92,0,1,1-1.83,0Zm.28,2.79h1.26v9.83H262Z"/><path class="f" d="M270.32,869.53a5.06,5.06,0,1,1,4.95-5.06A4.79,4.79,0,0,1,270.32,869.53Zm0-1.1a3.61,3.61,0,0,0,3.65-4c0-2.7-1.76-4-3.63-4s-3.62,1.26-3.62,4S268.44,868.43,270.32,868.43Z"/><path class="f" d="M284.91,863.77c0-2.18-1.19-3.29-3-3.29s-3.11,1.15-3.11,3.54v5.37h-1.26v-9.83h1.26v1.67a3.6,3.6,0,0,1,3.35-1.85c2.23,0,4,1.37,4,4.25v5.76h-1.24Z"/><path class="f" d="M293.14,869.53a4.69,4.69,0,0,1-4.83-5.06c0-3.13,2-5.06,4.83-5.06a4.43,4.43,0,0,1,4.65,4.56,7.79,7.79,0,0,1,0,1h-8.16a3.44,3.44,0,0,0,3.55,3.51,3,3,0,0,0,3.17-2.2h1.33A4.31,4.31,0,0,1,293.14,869.53Zm-3.55-5.6h6.92a3.22,3.22,0,0,0-3.42-3.44A3.4,3.4,0,0,0,289.59,863.93Z"/><path class="f" d="M303.39,869.53c-2.23,0-3.8-1.11-4-2.91h1.29c.11,1.08,1,1.85,2.65,1.85,1.41,0,2.2-.76,2.2-1.69,0-2.43-5.91-1-5.91-4.7,0-1.46,1.39-2.67,3.46-2.67s3.49,1.12,3.6,3h-1.26a2.1,2.1,0,0,0-2.38-1.93c-1.31,0-2.14.71-2.14,1.57,0,2.66,5.82,1.24,5.87,4.72C306.81,868.36,305.42,869.53,303.39,869.53Z"/><circle class="e" cx="141.15" cy="685.24" r="32.69"/><path class="f" d="M136.4,679.71h-2.89v-4.65h8.1v21.35H136.4Z"/><path class="f" d="M148.1,696.65a2.73,2.73,0,1,1,3-2.7A2.76,2.76,0,0,1,148.1,696.65Z"/><circle class="e" cx="141.15" cy="772.77" r="32.69"/><path class="f" d="M130.72,779.94c4.53-3.75,9.36-7.46,9.36-11.06,0-1.55-.7-2.54-2.23-2.54s-2.36,1.17-2.36,3.18h-4.83c.14-5.17,3.51-7.4,7.4-7.4,4.86,0,7,2.84,7,6.44,0,4.68-4.18,8.42-7.58,11h7.9v4.06H130.72Z"/><path class="f" d="M151.25,784.18a2.73,2.73,0,1,1,2.95-2.69A2.77,2.77,0,0,1,151.25,784.18Z"/><circle class="e" cx="141.15" cy="860.69" r="32.69"/><path class="f" d="M138.3,850c4.5,0,6.93,2.57,6.93,5.79a4.84,4.84,0,0,1-3.22,4.8v.12a5,5,0,0,1,3.6,5.14c0,3.6-2.57,6.18-7.05,6.18s-7.66-2.11-7.81-6.94h4.86a2.55,2.55,0,0,0,2.78,2.78,2.22,2.22,0,0,0,2.39-2.4c0-1.9-1.14-2.66-3.74-2.66h-.94v-4.06H137c1.7,0,3.34-.41,3.34-2.34a2,2,0,0,0-2.2-2.23,2.22,2.22,0,0,0-2.28,2.34H131C131.19,852.32,133.94,850,138.3,850Z"/><path class="f" d="M151.3,872.1a2.73,2.73,0,1,1,3-2.7A2.76,2.76,0,0,1,151.3,872.1Z"/><circle class="e" cx="150.88" cy="347.49" r="43.59"/><path class="g" d="M165.81,337.9h-8.53a2.14,2.14,0,0,1,0-4.27h8.53a2.14,2.14,0,0,1,0,4.27Zm0,11.72H144.49a2.13,2.13,0,1,1,0-4.26h21.32a2.13,2.13,0,0,1,0,4.26Zm1.51,11.29a2.14,2.14,0,0,1,0,3,2.15,2.15,0,0,1-3,0l-1.69-1.7-1.69,1.7a2.14,2.14,0,0,1-3-3l1.7-1.69-1.7-1.69a2.14,2.14,0,0,1,3-3l1.69,1.69,1.69-1.69a2.14,2.14,0,0,1,3,3l-1.69,1.69ZM153,362.42h-8.52a2.14,2.14,0,1,1,0-4.27H153a2.14,2.14,0,1,1,0,4.27Zm-21.54,6.4a1.92,1.92,0,0,1-1.91-1.92V349.62h4.26V366.9a2.09,2.09,0,0,1-2.13,1.92Zm9.24-35.15a2.12,2.12,0,0,1,3,0l.62.62,4.89-4.89a2.14,2.14,0,1,1,3,3l-6.4,6.4a2.15,2.15,0,0,1-3,0l-2.13-2.14a2.13,2.13,0,0,1,0-3Zm-6.89-11.77v23.46h-8.53V366.9a6.18,6.18,0,0,0,6.18,6.18h38.69a6.25,6.25,0,0,0,6.31-6.17v-45Z"/></svg>