<svg xmlns="http://www.w3.org/2000/svg" viewBox="0 0 715.21 606.75"><defs><style>.a{fill:#e7514f;}.b{fill:none;stroke:#e7514f;stroke-miterlimit:10;stroke-width:2px;}.c{fill:#fff;}.d{fill:#272b31;}</style></defs><path class="a" d="M137.52,384.06c-4.17,0-7.08-2.25-7.08-6.42,0-3.87,2.79-6,6.72-6l.15-2.25h4.5L142,375h-1.8c-2.82,0-4.77.51-4.74,2.7a2,2,0,0,0,2.16,2.19,2.1,2.1,0,0,0,2.28-2.28h4.83C144.78,381.18,142.26,384.06,137.52,384.06Zm2-22.47a2.8,2.8,0,1,1-3,2.76A2.83,2.83,0,0,1,139.5,361.59Z"/><path class="a" d="M159.8,361.8H152v4.26h6.87v4H152v4.62h7.77v4.11H146.9V357.69h12.9Z"/><path class="a" d="M174.61,369.66c0-2.28-1.26-3.54-3.21-3.54s-3.21,1.26-3.21,3.54v9.09h-5.13V362h5.13v2.22a6.14,6.14,0,0,1,5.07-2.4c3.87,0,6.45,2.64,6.45,7.14v9.78h-5.1Z"/><path class="a" d="M196.27,361.83a6.1,6.1,0,0,1,4.89,2.1V362h5.13v24.72h-5.13V376.65a6.22,6.22,0,0,1-4.95,2.31c-4.11,0-7.59-3.45-7.59-8.55S192.1,361.83,196.27,361.83Zm1.23,4.44c-1.71,0-3.66,1.32-3.66,4.14a3.76,3.76,0,0,0,3.66,4.11c1.74,0,3.66-1.32,3.66-4.14S199.24,366.27,197.5,366.27Z"/><path class="a" d="M226.43,378.75H221.3v-2.28a6.1,6.1,0,0,1-5.07,2.46c-3.87,0-6.48-2.67-6.48-7.14V362h5.1v9.09c0,2.28,1.29,3.54,3.21,3.54s3.24-1.26,3.24-3.54V362h5.13Z"/><path class="a" d="M237.51,379c-4.92,0-8.46-3.3-8.46-8.61s3.48-8.61,8.46-8.61,8.34,3.24,8.34,8.34a13,13,0,0,1-.09,1.5H234.15c.18,2.19,1.53,3.21,3.18,3.21A2.73,2.73,0,0,0,240,373.2h5.46A7.82,7.82,0,0,1,237.51,379ZM241,353.73v4l-7.23,3v-3.54Zm-6.78,15h6.42a2.89,2.89,0,0,0-3.15-2.88A3.17,3.17,0,0,0,234.18,368.76Z"/><path class="a" d="M261.72,379c-4.47,0-7.47-2.49-7.71-5.73h5.07a2.35,2.35,0,0,0,2.58,1.95c1.32,0,2-.6,2-1.35,0-2.7-9.12-.75-9.12-6.9,0-2.85,2.43-5.19,6.81-5.19s6.72,2.4,7.05,5.7h-4.74a2.21,2.21,0,0,0-2.46-1.89c-1.2,0-1.86.48-1.86,1.29,0,2.67,9.06.78,9.15,7C268.5,376.8,265.92,379,261.72,379Z"/><path class="a" d="M278.8,379c-4.92,0-8.46-3.3-8.46-8.61s3.48-8.61,8.46-8.61,8.34,3.24,8.34,8.34a13,13,0,0,1-.09,1.5H275.44c.18,2.19,1.53,3.21,3.18,3.21a2.73,2.73,0,0,0,2.67-1.62h5.46A7.82,7.82,0,0,1,278.8,379Zm-3.33-10.23h6.42a2.89,2.89,0,0,0-3.15-2.88A3.17,3.17,0,0,0,275.47,368.76Z"/><path class="a" d="M302.56,361.77a6.14,6.14,0,0,1,5.16,2.55v-7.77h5.13v22.2h-5.13v-2.4a5.79,5.79,0,0,1-5.16,2.64c-4.11,0-7.38-3.36-7.38-8.64S298.45,361.77,302.56,361.77Zm1.5,4.47c-1.92,0-3.66,1.44-3.66,4.11s1.74,4.17,3.66,4.17,3.66-1.47,3.66-4.14S306,366.24,304.06,366.24Z"/><path class="a" d="M316,357.51a3.06,3.06,0,1,1,3.06,2.76A2.84,2.84,0,0,1,316,357.51Zm.48,4.5h5.13v16.74h-5.13Z"/><path class="a" d="M325.76,366.27H323.9V362h1.86v-.48c0-4.38,2.7-6.54,7.8-6.27v4.35c-2-.12-2.67.48-2.67,2.25V362h2.76v4.26h-2.76v12.48h-5.13Z"/><path class="a" d="M343.18,379c-4.92,0-8.46-3.3-8.46-8.61s3.48-8.61,8.46-8.61,8.34,3.24,8.34,8.34a13,13,0,0,1-.09,1.5H339.82c.18,2.19,1.53,3.21,3.18,3.21a2.73,2.73,0,0,0,2.67-1.62h5.46A7.82,7.82,0,0,1,343.18,379Zm-3.33-10.23h6.42a2.89,2.89,0,0,0-3.15-2.88A3.17,3.17,0,0,0,339.85,368.76Z"/><path class="a" d="M359.23,378.75H354.1V362h5.13v2.79a6.24,6.24,0,0,1,5.25-3v5.43h-1.41c-2.43,0-3.84.84-3.84,3.72Z"/><path class="a" d="M374.18,379c-4.92,0-8.46-3.3-8.46-8.61s3.48-8.61,8.46-8.61,8.34,3.24,8.34,8.34a13,13,0,0,1-.09,1.5H370.82c.18,2.19,1.53,3.21,3.18,3.21a2.73,2.73,0,0,0,2.67-1.62h5.46A7.82,7.82,0,0,1,374.18,379Zm-3.33-10.23h6.42a2.89,2.89,0,0,0-3.15-2.88A3.17,3.17,0,0,0,370.85,368.76Z"/><path class="a" d="M396.66,369.66c0-2.28-1.26-3.54-3.21-3.54s-3.21,1.26-3.21,3.54v9.09h-5.13V362h5.13v2.22a6.14,6.14,0,0,1,5.07-2.4c3.87,0,6.45,2.64,6.45,7.14v9.78h-5.1Z"/><path class="a" d="M412.62,361.77c4.2,0,7.17,2.31,8,6.3H415.2a2.64,2.64,0,0,0-2.67-1.92c-1.83,0-3.09,1.44-3.09,4.23s1.26,4.23,3.09,4.23a2.6,2.6,0,0,0,2.67-1.92h5.46a7.77,7.77,0,0,1-8,6.3c-4.92,0-8.4-3.3-8.4-8.61S407.7,361.77,412.62,361.77Z"/><path class="a" d="M422.64,357.51a3.06,3.06,0,1,1,3.06,2.76A2.84,2.84,0,0,1,422.64,357.51Zm.48,4.5h5.13v16.74h-5.13Z"/><path class="a" d="M438.17,361.77a5.83,5.83,0,0,1,5.16,2.61V362h5.13v16.74h-5.13v-2.37a5.92,5.92,0,0,1-5.19,2.61c-4.08,0-7.35-3.36-7.35-8.64S434.06,361.77,438.17,361.77Zm1.5,4.47c-1.92,0-3.66,1.44-3.66,4.11s1.74,4.17,3.66,4.17,3.66-1.47,3.66-4.14S441.62,366.24,439.67,366.24Z"/><path class="a" d="M463.59,369.66c0-2.28-1.26-3.54-3.21-3.54s-3.21,1.26-3.21,3.54v9.09H452V362h5.13v2.22a6.14,6.14,0,0,1,5.07-2.4c3.87,0,6.45,2.64,6.45,7.14v9.78h-5.1Z"/><path class="a" d="M131.28,395.55h5.13v22.2h-5.13Z"/><path class="a" d="M147.63,418c-4.92,0-8.64-3.3-8.64-8.61s3.81-8.61,8.7-8.61,8.7,3.3,8.7,8.61S152.55,418,147.63,418Zm0-4.44c1.83,0,3.54-1.35,3.54-4.17s-1.68-4.17-3.48-4.17-3.48,1.32-3.48,4.17S145.77,413.55,147.63,413.55Z"/><path class="a" d="M165.64,418c-4.47,0-7.47-2.49-7.71-5.73H163a2.35,2.35,0,0,0,2.58,1.95c1.32,0,2-.6,2-1.35,0-2.7-9.12-.75-9.12-6.9,0-2.85,2.43-5.19,6.81-5.19s6.72,2.4,7.05,5.7h-4.74a2.21,2.21,0,0,0-2.46-1.89c-1.2,0-1.86.48-1.86,1.29,0,2.67,9.06.78,9.15,7C172.42,415.8,169.84,418,165.64,418Z"/><path class="a" d="M182.74,405.27h-2V401h2v-4.08h5.13V401h3.36v4.26h-3.36V412c0,1,.42,1.41,1.56,1.41h1.83v4.35h-2.61c-3.48,0-5.91-1.47-5.91-5.82Z"/><path class="a" d="M193.6,396.51a3.06,3.06,0,1,1,3.06,2.76A2.84,2.84,0,0,1,193.6,396.51Zm.48,4.5h5.13v16.74h-5.13Z"/><path class="a" d="M213.06,400.77c4.11,0,7.38,3.3,7.38,8.58s-3.27,8.64-7.38,8.64a6,6,0,0,1-5.15-2.58v10.32h-5.13V401h5.13v2.37A5.88,5.88,0,0,1,213.06,400.77Zm-1.52,4.47c-1.92,0-3.66,1.47-3.66,4.14s1.74,4.14,3.66,4.14,3.68-1.5,3.68-4.17S213.48,405.24,211.54,405.24Z"/><path class="a" d="M230.71,418c-4.92,0-8.64-3.3-8.64-8.61s3.81-8.61,8.7-8.61,8.7,3.3,8.7,8.61S235.63,418,230.71,418Zm0-4.44c1.83,0,3.54-1.35,3.54-4.17s-1.68-4.17-3.48-4.17-3.48,1.32-3.48,4.17S228.85,413.55,230.71,413.55Z"/><path class="a" d="M248.72,418c-4.47,0-7.47-2.49-7.71-5.73h5.07a2.35,2.35,0,0,0,2.58,1.95c1.32,0,2-.6,2-1.35,0-2.7-9.12-.75-9.12-6.9,0-2.85,2.43-5.19,6.81-5.19s6.72,2.4,7,5.7h-4.74a2.21,2.21,0,0,0-2.46-1.89c-1.2,0-1.86.48-1.86,1.29,0,2.67,9.06.78,9.15,7C255.5,415.8,252.92,418,248.72,418Z"/><path class="a" d="M271.37,400.77a6.14,6.14,0,0,1,5.16,2.55v-7.77h5.13v22.2h-5.13v-2.4a5.79,5.79,0,0,1-5.16,2.64c-4.11,0-7.38-3.36-7.38-8.64S267.26,400.77,271.37,400.77Zm1.5,4.47c-1.92,0-3.66,1.44-3.66,4.11s1.74,4.17,3.66,4.17,3.66-1.47,3.66-4.14S274.82,405.24,272.87,405.24Z"/><path class="a" d="M292.77,418c-4.92,0-8.46-3.3-8.46-8.61s3.48-8.61,8.46-8.61,8.33,3.24,8.33,8.34a13,13,0,0,1-.09,1.5h-11.6c.17,2.19,1.52,3.21,3.17,3.21a2.73,2.73,0,0,0,2.67-1.62h5.46A7.82,7.82,0,0,1,292.77,418Zm-3.34-10.23h6.42a2.89,2.89,0,0,0-3.15-2.88A3.17,3.17,0,0,0,289.43,407.76Z"/><path class="a" d="M316.52,400.77a6.14,6.14,0,0,1,5.16,2.55v-7.77h5.13v22.2h-5.13v-2.4a5.79,5.79,0,0,1-5.16,2.64c-4.11,0-7.38-3.36-7.38-8.64S312.41,400.77,316.52,400.77Zm1.5,4.47c-1.92,0-3.66,1.44-3.66,4.11s1.74,4.17,3.66,4.17,3.66-1.47,3.66-4.14S320,405.24,318,405.24Z"/><path class="a" d="M329.94,396.51a3.06,3.06,0,1,1,3.06,2.76A2.84,2.84,0,0,1,329.94,396.51Zm.48,4.5h5.13v16.74h-5.13Z"/><path class="a" d="M345.8,418c-4.47,0-7.47-2.49-7.71-5.73h5.07a2.35,2.35,0,0,0,2.58,1.95c1.32,0,2-.6,2-1.35,0-2.7-9.12-.75-9.12-6.9,0-2.85,2.43-5.19,6.81-5.19s6.72,2.4,7.05,5.7h-4.74a2.21,2.21,0,0,0-2.46-1.89c-1.2,0-1.86.48-1.86,1.29,0,2.67,9.06.78,9.15,7C352.58,415.8,350,418,345.8,418Z"/><path class="a" d="M362.87,418c-4.92,0-8.46-3.3-8.46-8.61s3.48-8.61,8.46-8.61,8.34,3.24,8.34,8.34a13,13,0,0,1-.09,1.5H359.51c.18,2.19,1.53,3.21,3.18,3.21a2.73,2.73,0,0,0,2.67-1.62h5.46A7.82,7.82,0,0,1,362.87,418Zm-3.33-10.23H366a2.89,2.89,0,0,0-3.15-2.88A3.17,3.17,0,0,0,359.54,407.76Z"/><path class="a" d="M378.93,417.75H373.8V401h5.13v2.22a6.14,6.14,0,0,1,5.07-2.4c3.87,0,6.45,2.64,6.45,7.14v9.78h-5.1v-9.09c0-2.28-1.26-3.54-3.21-3.54s-3.21,1.26-3.21,3.54Zm2-22.59c1.8,0,2.73,1.35,3.93,1.35.69,0,1.17-.42,1.29-1.35h2.64c-.51,3.15-2,4.44-4.14,4.44-1.8,0-2.73-1.35-3.93-1.35-.69,0-1.17.42-1.32,1.35h-2.61C377.28,396.45,378.78,395.16,380.91,395.16Z"/><path class="a" d="M401.49,418c-4.92,0-8.64-3.3-8.64-8.61s3.81-8.61,8.7-8.61,8.7,3.3,8.7,8.61S406.41,418,401.49,418Zm0-4.44c1.83,0,3.54-1.35,3.54-4.17s-1.68-4.17-3.48-4.17-3.48,1.32-3.48,4.17S399.63,413.55,401.49,413.55Z"/><path class="a" d="M418.36,395.52c4.17,0,7.08,2.25,7.08,6.42,0,3.87-2.79,6-6.72,6l-.15,2.25h-4.5l-.15-5.58h1.8c2.82,0,4.77-.51,4.74-2.7a2,2,0,0,0-2.16-2.19A2.1,2.1,0,0,0,416,402h-4.83C411.1,398.4,413.62,395.52,418.36,395.52Zm-2,22.47a2.8,2.8,0,1,1,3-2.76A2.83,2.83,0,0,1,416.38,418Z"/><path class="b" d="M2.83,286.58H680.61a31.76,31.76,0,0,1,31.76,31.76V572.46a31.76,31.76,0,0,1-31.76,31.76H2.83"/><circle class="a" cx="46.42" cy="374.74" r="43.59"/><path class="c" d="M389.62,464.13h8.26v1.05h-3.49v11.54h-1.26V465.18h-3.51Z"/><path class="c" d="M399.55,464.1a.92.92,0,0,1,1.84,0,.92.92,0,1,1-1.84,0Zm.29,2.79h1.26v9.83h-1.26Z"/><path class="c" d="M409.06,466.75c2.68,0,4.68,2,4.68,5s-2,5.07-4.68,5.07a4.19,4.19,0,0,1-3.91-2.3v6.81h-1.24V466.89h1.24v2.16A4.16,4.16,0,0,1,409.06,466.75Zm-.26,1.09a4,4,0,0,0,0,7.93,3.64,3.64,0,0,0,3.66-4C412.46,469.28,410.87,467.84,408.8,467.84Z"/><path class="c" d="M420.36,476.86a5.06,5.06,0,1,1,4.95-5.05A4.79,4.79,0,0,1,420.36,476.86Zm0-1.09a3.61,3.61,0,0,0,3.65-4c0-2.71-1.76-4-3.63-4s-3.62,1.26-3.62,4S418.49,475.77,420.36,475.77Z"/><path class="c" d="M430.87,476.86c-2.24,0-3.8-1.11-4-2.91h1.29c.11,1.08,1.05,1.85,2.65,1.85,1.4,0,2.19-.75,2.19-1.69,0-2.43-5.9-1-5.9-4.7,0-1.46,1.39-2.66,3.46-2.66s3.49,1.11,3.6,3h-1.26a2.1,2.1,0,0,0-2.38-1.92c-1.31,0-2.14.7-2.14,1.56,0,2.67,5.81,1.24,5.87,4.72C434.29,475.69,432.9,476.86,430.87,476.86Z"/><path class="c" d="M445.73,466.75A4.27,4.27,0,0,1,449.6,469V463.4h1.27v13.32H449.6v-2.2a4.08,4.08,0,0,1-3.88,2.34c-2.71,0-4.7-2-4.7-5.07S443,466.75,445.73,466.75Zm.22,1.09c-2.07,0-3.66,1.44-3.66,4a3.67,3.67,0,1,0,3.66-4Z"/><path class="c" d="M458,476.86a4.69,4.69,0,0,1-4.83-5.05c0-3.14,2-5.06,4.83-5.06a4.42,4.42,0,0,1,4.65,4.55,7.71,7.71,0,0,1,0,1h-8.16A3.43,3.43,0,0,0,458,475.8a3,3,0,0,0,3.17-2.19h1.33A4.32,4.32,0,0,1,458,476.86Zm-3.55-5.6h6.92a3.22,3.22,0,0,0-3.42-3.43A3.4,3.4,0,0,0,454.42,471.26Z"/><path class="c" d="M474,466.75a4.28,4.28,0,0,1,3.87,2.26V463.4h1.26v13.32h-1.26v-2.2a4.09,4.09,0,0,1-3.89,2.34c-2.7,0-4.7-2-4.7-5.07S471.27,466.75,474,466.75Zm.21,1.09c-2.07,0-3.65,1.44-3.65,4s1.58,4,3.65,4a4,4,0,0,0,0-7.93Z"/><path class="c" d="M486.1,466.75a4.11,4.11,0,0,1,3.89,2.3v-2.16h1.26v9.83H490v-2.18a4.16,4.16,0,0,1-3.91,2.32c-2.68,0-4.68-2-4.68-5.07S483.4,466.75,486.1,466.75Zm.23,1.09c-2.07,0-3.65,1.44-3.65,4s1.58,4,3.65,4a4,4,0,0,0,0-7.93Z"/><path class="c" d="M494.38,468H493v-1.06h1.37v-2.47h1.28v2.47h2.7V468h-2.7v6.11c0,1.2.41,1.58,1.54,1.58h1.16v1.08H497c-1.71,0-2.63-.7-2.63-2.66Z"/><path class="c" d="M504.19,476.86a5.06,5.06,0,1,1,4.95-5.05A4.79,4.79,0,0,1,504.19,476.86Zm0-1.09a3.61,3.61,0,0,0,3.65-4c0-2.71-1.76-4-3.64-4s-3.62,1.26-3.62,4S502.31,475.77,504.19,475.77Z"/><path class="c" d="M514.69,476.86c-2.23,0-3.8-1.11-4-2.91H512c.1,1.08,1,1.85,2.64,1.85,1.41,0,2.2-.75,2.2-1.69,0-2.43-5.91-1-5.91-4.7,0-1.46,1.39-2.66,3.46-2.66s3.49,1.11,3.6,3h-1.26a2.09,2.09,0,0,0-2.37-1.92c-1.32,0-2.15.7-2.15,1.56,0,2.67,5.82,1.24,5.87,4.72C518.11,475.69,516.73,476.86,514.69,476.86Z"/><path class="c" d="M399.16,524.13h1.33l-4.77,12.59h-1.44l-4.77-12.59h1.37L395,535.35Z"/><path class="c" d="M405.55,526.75a4.11,4.11,0,0,1,3.89,2.3v-2.16h1.26v9.83h-1.26v-2.18a4.15,4.15,0,0,1-3.91,2.32c-2.68,0-4.68-2-4.68-5.07S402.85,526.75,405.55,526.75Zm.24,1.09c-2.08,0-3.66,1.44-3.66,3.95s1.58,4,3.66,4a4,4,0,0,0,0-7.93Z"/><path class="c" d="M413.53,523.4h1.26v13.32h-1.26Z"/><path class="c" d="M417.3,524.1a.92.92,0,1,1,1.83,0,.92.92,0,1,1-1.83,0Zm.29,2.79h1.26v9.83h-1.26Z"/><path class="c" d="M425.78,526.75a4.28,4.28,0,0,1,3.87,2.26V523.4h1.26v13.32h-1.26v-2.2a4.1,4.1,0,0,1-3.89,2.34c-2.7,0-4.7-2-4.7-5.07S423.06,526.75,425.78,526.75Zm.21,1.09c-2.07,0-3.65,1.44-3.65,3.95s1.58,4,3.65,4a4,4,0,0,0,0-7.93Z"/><path class="c" d="M438,536.86a4.68,4.68,0,0,1-4.82-5.05c0-3.14,2-5.06,4.82-5.06a4.42,4.42,0,0,1,4.65,4.55,7.71,7.71,0,0,1,0,1h-8.15A3.43,3.43,0,0,0,438,535.8a3,3,0,0,0,3.17-2.19h1.33A4.32,4.32,0,0,1,438,536.86Zm-3.54-5.6h6.91a3.21,3.21,0,0,0-3.42-3.43A3.39,3.39,0,0,0,434.47,531.26Z"/><path class="c" d="M450.26,527.93l-5.06,7.75h5.15v1h-6.59v-1l5.06-7.75h-5v-1h6.41Z"/><path class="c" d="M461.54,526.75a4.26,4.26,0,0,1,3.87,2.26V523.4h1.27v13.32h-1.27v-2.2a4.08,4.08,0,0,1-3.88,2.34c-2.7,0-4.7-2-4.7-5.07S458.83,526.75,461.54,526.75Zm.22,1.09c-2.07,0-3.65,1.44-3.65,3.95s1.58,4,3.65,4a4,4,0,0,0,0-7.93Z"/><path class="c" d="M473.78,536.86a4.69,4.69,0,0,1-4.83-5.05c0-3.14,2-5.06,4.83-5.06a4.42,4.42,0,0,1,4.65,4.55,7.71,7.71,0,0,1,0,1h-8.16a3.43,3.43,0,0,0,3.55,3.51,3,3,0,0,0,3.17-2.19h1.33A4.32,4.32,0,0,1,473.78,536.86Zm-3.55-5.6h6.92a3.22,3.22,0,0,0-3.42-3.43A3.4,3.4,0,0,0,470.23,531.26Z"/><path class="c" d="M485.66,523.4h1.26v13.32h-1.26Z"/><path class="c" d="M494.06,536.86a5.06,5.06,0,1,1,5-5.05A4.79,4.79,0,0,1,494.06,536.86Zm0-1.09a3.61,3.61,0,0,0,3.66-4c0-2.71-1.77-4-3.64-4s-3.62,1.26-3.62,4S492.19,535.77,494.06,535.77Z"/><path class="c" d="M504.57,536.86c-2.23,0-3.8-1.11-4-2.91h1.3c.1,1.08,1,1.85,2.64,1.85,1.41,0,2.2-.75,2.2-1.69,0-2.43-5.91-1-5.91-4.7,0-1.46,1.39-2.66,3.46-2.66s3.49,1.11,3.6,3h-1.26a2.09,2.09,0,0,0-2.38-1.92c-1.31,0-2.14.7-2.14,1.56,0,2.67,5.82,1.24,5.87,4.72C508,535.69,506.6,536.86,504.57,536.86Z"/><path class="c" d="M519.44,526.75a4.28,4.28,0,0,1,3.87,2.26V523.4h1.26v13.32h-1.26v-2.2a4.1,4.1,0,0,1-3.89,2.34c-2.7,0-4.7-2-4.7-5.07S516.72,526.75,519.44,526.75Zm.21,1.09c-2.07,0-3.65,1.44-3.65,3.95s1.58,4,3.65,4a4,4,0,0,0,0-7.93Z"/><path class="c" d="M531.55,526.75a4.11,4.11,0,0,1,3.89,2.3v-2.16h1.26v9.83h-1.26v-2.18a4.16,4.16,0,0,1-3.91,2.32c-2.68,0-4.68-2-4.68-5.07S528.85,526.75,531.55,526.75Zm.23,1.09c-2.07,0-3.65,1.44-3.65,3.95s1.58,4,3.65,4a4,4,0,0,0,0-7.93Z"/><path class="c" d="M539.83,528h-1.37v-1.06h1.37v-2.47h1.28v2.47h2.7V528h-2.7v6.11c0,1.2.41,1.58,1.54,1.58h1.16v1.08h-1.36c-1.71,0-2.62-.7-2.62-2.66Z"/><path class="c" d="M549.63,536.86a5.06,5.06,0,1,1,5-5.05A4.79,4.79,0,0,1,549.63,536.86Zm0-1.09a3.61,3.61,0,0,0,3.66-4c0-2.71-1.77-4-3.64-4s-3.62,1.26-3.62,4S547.76,535.77,549.63,535.77Z"/><path class="c" d="M560.14,536.86c-2.23,0-3.8-1.11-4-2.91h1.3c.1,1.08,1,1.85,2.64,1.85,1.41,0,2.2-.75,2.2-1.69,0-2.43-5.91-1-5.91-4.7,0-1.46,1.39-2.66,3.46-2.66s3.49,1.11,3.6,3h-1.26a2.09,2.09,0,0,0-2.38-1.92c-1.31,0-2.14.7-2.14,1.56,0,2.67,5.82,1.24,5.87,4.72C563.56,535.69,562.17,536.86,560.14,536.86Z"/><path class="c" d="M51.66,471.35H49.12v5.37H47.86V464.14h3.8c2.92,0,4.25,1.54,4.25,3.61S54.61,471.35,51.66,471.35Zm0-1.08c2.13,0,3-1,3-2.52s-.82-2.55-3-2.55H49.12v5.07Z"/><path class="c" d="M59,476.72H57.77v-9.83H59v1.75a3.39,3.39,0,0,1,3.37-1.93V468h-.34c-1.64,0-3,.74-3,3.21Z"/><path class="c" d="M68.11,476.86a4.68,4.68,0,0,1-4.82-5.05c0-3.14,2-5.06,4.82-5.06a4.42,4.42,0,0,1,4.65,4.55,7.71,7.71,0,0,1,0,1H64.56a3.43,3.43,0,0,0,3.55,3.51,3,3,0,0,0,3.17-2.19h1.33A4.32,4.32,0,0,1,68.11,476.86Zm-3.55-5.59h6.92a3.21,3.21,0,0,0-3.42-3.44A3.4,3.4,0,0,0,64.56,471.27Z"/><path class="c" d="M79.19,466.75A4.14,4.14,0,0,1,83.08,469v-2.14h1.26V477a4.35,4.35,0,0,1-4.59,4.58c-2.54,0-4.3-1.3-4.7-3.35h1.24a3.38,3.38,0,0,0,3.46,2.25A3.21,3.21,0,0,0,83.08,477v-2.43a4.15,4.15,0,0,1-3.89,2.32c-2.7,0-4.7-2-4.7-5.07S76.49,466.75,79.19,466.75Zm.23,1.09c-2.07,0-3.65,1.44-3.65,4s1.58,4,3.65,4a4,4,0,0,0,0-7.93Z"/><path class="c" d="M95.7,476.72H94.44V475a3.57,3.57,0,0,1-3.35,1.89c-2.24,0-4-1.37-4-4.25v-5.74h1.24v5.6c0,2.18,1.19,3.29,3,3.29s3.12-1.15,3.12-3.54v-5.35H95.7Z"/><path class="c" d="M105.88,471.1c0-2.18-1.19-3.29-3-3.29s-3.11,1.15-3.11,3.54v5.37H98.52v-9.83h1.26v1.67a3.59,3.59,0,0,1,3.34-1.85c2.24,0,4,1.37,4,4.25v5.76h-1.24Z"/><path class="c" d="M110,468h-1.37v-1.06H110v-2.47h1.28v2.47H114V468h-2.7v6.11c0,1.2.41,1.58,1.55,1.58H114v1.08h-1.35c-1.71,0-2.63-.7-2.63-2.66Z"/><path class="c" d="M119.64,466.75a4.09,4.09,0,0,1,3.89,2.3v-2.16h1.26v9.83h-1.26v-2.18a4.14,4.14,0,0,1-3.9,2.32c-2.69,0-4.68-2-4.68-5.07S116.94,466.75,119.64,466.75Zm.24,1.09c-2.07,0-3.66,1.44-3.66,4a3.67,3.67,0,1,0,3.66-4Z"/><path class="c" d="M131,476.86c-2.23,0-3.8-1.11-4-2.91h1.3c.11,1.08,1,1.85,2.64,1.85,1.41,0,2.2-.75,2.2-1.69,0-2.43-5.9-1-5.9-4.7,0-1.46,1.38-2.66,3.45-2.66s3.5,1.11,3.6,3h-1.26a2.09,2.09,0,0,0-2.37-1.92c-1.32,0-2.15.7-2.15,1.56,0,2.67,5.82,1.24,5.87,4.72C134.42,475.69,133,476.86,131,476.86Z"/><path class="c" d="M145.87,466.75a4.28,4.28,0,0,1,3.87,2.26V463.4H151v13.32h-1.26v-2.2a4.09,4.09,0,0,1-3.89,2.34c-2.7,0-4.7-2-4.7-5.07S143.15,466.75,145.87,466.75Zm.22,1.09c-2.07,0-3.66,1.44-3.66,4a3.67,3.67,0,1,0,3.66-4Z"/><path class="c" d="M158.11,476.86a4.69,4.69,0,0,1-4.83-5.05c0-3.14,2-5.06,4.83-5.06a4.41,4.41,0,0,1,4.64,4.55c0,.4,0,.65,0,1h-8.16a3.43,3.43,0,0,0,3.55,3.51,3.06,3.06,0,0,0,3.17-2.19h1.33A4.32,4.32,0,0,1,158.11,476.86Zm-3.55-5.59h6.91a3.21,3.21,0,0,0-3.42-3.44A3.39,3.39,0,0,0,154.56,471.27Z"/><path class="c" d="M169.7,464.1a.92.92,0,1,1,1.83,0,.92.92,0,1,1-1.83,0Zm.28,2.79h1.26v9.83H170Z"/><path class="c" d="M181.42,471.1c0-2.18-1.19-3.29-3-3.29s-3.12,1.15-3.12,3.54v5.37h-1.26v-9.83h1.26v1.67a3.6,3.6,0,0,1,3.35-1.85c2.23,0,4,1.37,4,4.25v5.76h-1.24Z"/><path class="c" d="M185.15,466.89l3.31,8.61,3.32-8.61h1.33l-3.94,9.83h-1.43l-3.94-9.83Z"/><path class="c" d="M198.65,476.86a4.69,4.69,0,0,1-4.83-5.05c0-3.14,2-5.06,4.83-5.06a4.41,4.41,0,0,1,4.64,4.55c0,.4,0,.65,0,1H195.1a3.43,3.43,0,0,0,3.55,3.51,3,3,0,0,0,3.17-2.19h1.33A4.32,4.32,0,0,1,198.65,476.86Zm-3.55-5.59H202a3.22,3.22,0,0,0-3.43-3.44A3.4,3.4,0,0,0,195.1,471.27Z"/><path class="c" d="M208.9,476.86c-2.24,0-3.8-1.11-4-2.91h1.29c.11,1.08,1.05,1.85,2.65,1.85,1.4,0,2.2-.75,2.2-1.69,0-2.43-5.91-1-5.91-4.7,0-1.46,1.39-2.66,3.46-2.66s3.49,1.11,3.6,3H211a2.09,2.09,0,0,0-2.38-1.92c-1.31,0-2.14.7-2.14,1.56,0,2.67,5.81,1.24,5.87,4.72C212.32,475.69,210.93,476.86,208.9,476.86Z"/><path class="c" d="M214.88,468h-1.37v-1.06h1.37v-2.47h1.28v2.47h2.7V468h-2.7v6.11c0,1.2.41,1.58,1.55,1.58h1.15v1.08h-1.35c-1.71,0-2.63-.7-2.63-2.66Z"/><path class="c" d="M220.41,464.1a.92.92,0,1,1,1.84,0,.92.92,0,1,1-1.84,0Zm.29,2.79H222v9.83H220.7Z"/><path class="c" d="M228.87,466.75a4.13,4.13,0,0,1,3.89,2.28v-2.14H234V477a4.35,4.35,0,0,1-4.59,4.58c-2.54,0-4.3-1.3-4.7-3.35H226a3.38,3.38,0,0,0,3.46,2.25,3.21,3.21,0,0,0,3.33-3.48v-2.43a4.13,4.13,0,0,1-3.89,2.32c-2.7,0-4.7-2-4.7-5.07S226.17,466.75,228.87,466.75Zm.24,1.09c-2.07,0-3.66,1.44-3.66,4a3.67,3.67,0,1,0,3.66-4Z"/><path class="c" d="M241,466.75a4.11,4.11,0,0,1,3.89,2.3v-2.16h1.26v9.83h-1.26v-2.18a4.15,4.15,0,0,1-3.91,2.32c-2.68,0-4.68-2-4.68-5.07S238.3,466.75,241,466.75Zm.24,1.09c-2.08,0-3.66,1.44-3.66,4s1.58,4,3.66,4a4,4,0,0,0,0-7.93Z"/><path class="c" d="M253.2,466.75a4.24,4.24,0,0,1,4.52,3.34h-1.35a3,3,0,0,0-3.17-2.26c-1.92,0-3.49,1.31-3.49,4s1.57,4,3.49,4a3,3,0,0,0,3.17-2.28h1.35a4.3,4.3,0,0,1-4.52,3.34c-2.77,0-4.77-1.94-4.77-5.05S250.43,466.75,253.2,466.75Z"/><path class="c" d="M259.64,464.1a.92.92,0,1,1,1.84,0,.92.92,0,1,1-1.84,0Zm.29,2.79h1.26v9.83h-1.26Z"/><path class="c" d="M268.28,476.86a5.06,5.06,0,1,1,5-5.05A4.79,4.79,0,0,1,268.28,476.86Zm0-1.09a3.61,3.61,0,0,0,3.66-4c0-2.71-1.77-4-3.64-4s-3.62,1.26-3.62,4S266.41,475.77,268.28,475.77Zm1.73-13v1.13L266.32,466v-1Z"/><path class="c" d="M282.87,471.1c0-2.18-1.18-3.29-3-3.29s-3.12,1.15-3.12,3.54v5.37h-1.26v-9.83h1.26v1.67a3.6,3.6,0,0,1,3.35-1.85c2.23,0,4,1.37,4,4.25v5.76h-1.25Z"/><path class="c" d="M47.86,524.3h1.33L54,535.06l4.81-10.76h1.35v12.42H58.9V526.8l-4.43,9.92h-.92l-4.43-9.88v9.88H47.86Z"/><path class="c" d="M67.33,536.86a4.69,4.69,0,0,1-4.83-5.05c0-3.14,2-5.06,4.83-5.06A4.42,4.42,0,0,1,72,531.3a7.71,7.71,0,0,1,0,1H63.78a3.43,3.43,0,0,0,3.55,3.51,3,3,0,0,0,3.17-2.19h1.33A4.32,4.32,0,0,1,67.33,536.86Zm-3.55-5.59H70.7a3.22,3.22,0,0,0-3.42-3.44A3.4,3.4,0,0,0,63.78,531.27Z"/><path class="c" d="M74.4,528H73v-1.06H74.4v-2.47h1.27v2.47h2.7V528h-2.7v6.11c0,1.2.42,1.58,1.55,1.58h1.15v1.08H77c-1.71,0-2.62-.7-2.62-2.66Z"/><path class="c" d="M84.2,536.86a5.06,5.06,0,1,1,5-5.05A4.78,4.78,0,0,1,84.2,536.86Zm0-1.09a3.61,3.61,0,0,0,3.66-4c0-2.71-1.77-4-3.64-4s-3.62,1.26-3.62,4S82.33,535.77,84.2,535.77Z"/><path class="c" d="M95.61,526.75A4.28,4.28,0,0,1,99.48,529V523.4h1.26v13.32H99.48v-2.2a4.1,4.1,0,0,1-3.89,2.34c-2.7,0-4.7-2-4.7-5.07S92.89,526.75,95.61,526.75Zm.21,1.09c-2.07,0-3.65,1.44-3.65,3.95s1.58,4,3.65,4a4,4,0,0,0,0-7.93Z"/><path class="c" d="M107.9,536.86a5.06,5.06,0,1,1,4.95-5.05A4.79,4.79,0,0,1,107.9,536.86Zm0-1.09a3.61,3.61,0,0,0,3.65-4c0-2.71-1.76-4-3.64-4s-3.62,1.26-3.62,4S106,535.77,107.9,535.77Z"/><path class="c" d="M115.12,523.4h1.26v13.32h-1.26Z"/><path class="c" d="M123.52,536.86a5.06,5.06,0,1,1,5-5.05A4.79,4.79,0,0,1,123.52,536.86Zm0-1.09a3.61,3.61,0,0,0,3.66-4c0-2.71-1.77-4-3.64-4s-3.62,1.26-3.62,4S121.65,535.77,123.52,535.77Z"/><path class="c" d="M134.91,526.75A4.14,4.14,0,0,1,138.8,529v-2.14h1.26V537a4.35,4.35,0,0,1-4.59,4.58c-2.54,0-4.31-1.3-4.7-3.35H132a3.37,3.37,0,0,0,3.46,2.25A3.21,3.21,0,0,0,138.8,537v-2.43a4.15,4.15,0,0,1-3.89,2.32c-2.7,0-4.7-2-4.7-5.07S132.21,526.75,134.91,526.75Zm.23,1.09c-2.07,0-3.65,1.44-3.65,3.95s1.58,4,3.65,4a4,4,0,0,0,0-7.93Z"/><path class="c" d="M145.22,522.86V524l-3.69,2.14v-1Zm-2.28,4h1.26v9.83h-1.26Z"/><path class="c" d="M151.1,526.75a4.11,4.11,0,0,1,3.89,2.3v-2.16h1.26v9.83H155v-2.18a4.14,4.14,0,0,1-3.91,2.32c-2.68,0-4.68-2-4.68-5.07S148.4,526.75,151.1,526.75Zm.24,1.09c-2.07,0-3.66,1.44-3.66,3.95a3.67,3.67,0,1,0,3.66-3.95Z"/><path class="c" d="M162.46,536.86c-2.23,0-3.8-1.11-4-2.91h1.3c.1,1.08,1,1.85,2.64,1.85,1.41,0,2.2-.75,2.2-1.69,0-2.43-5.91-1-5.91-4.7,0-1.46,1.39-2.66,3.46-2.66s3.49,1.11,3.6,3h-1.26a2.09,2.09,0,0,0-2.38-1.92c-1.31,0-2.14.7-2.14,1.56,0,2.67,5.82,1.24,5.87,4.72C165.88,535.69,164.49,536.86,162.46,536.86Z"/><path class="d" d="M62,376.75a47.64,47.64,0,0,0-4.24,6.53l-3.19,6.18H51.21V367c0-.07-.07-.21-.07-.28l-3.47-8.34a1.39,1.39,0,0,0-1.25-.83,1.36,1.36,0,0,0-1.25.83l-3.48,8.34h0v.07c0,.07-.07.14-.07.21v22.51H38.29l-3.2-6.18a47.64,47.64,0,0,0-4.24-6.53,19.48,19.48,0,0,1,28.49-26.27A19.77,19.77,0,0,1,62,376.75ZM38.7,396.41H54v-4.17H38.7Zm7.65,5.9a4.18,4.18,0,0,0,4.17-4.16H42.18A4.17,4.17,0,0,0,46.35,402.31ZM45,365.84h2.78l-1.39-3.34Zm-.7,23.62h4.17V368.62H44.26Z"/><path class="b" d="M513.36,2.52v35a74.61,74.61,0,0,1-21.85,52.75L296.25,285.52"/><circle class="a" cx="22.73" cy="470.53" r="6.71"/><circle class="a" cx="22.73" cy="531.87" r="6.71"/><circle class="a" cx="367.78" cy="470.53" r="6.71"/><circle class="a" cx="367.78" cy="531.87" r="6.71"/></svg>