<svg id="bb2eaa00-1125-48a5-a813-be02ae7d2063" data-name="Capa 1" xmlns="http://www.w3.org/2000/svg"
    viewBox="0 0 714.04 605.99">
    <defs>
        <style>
            .ac8be9fb-f1b7-4ad7-87c9-8e573422c3fe {
                fill: #e7514f;
            }

            .aa1beeef-822e-416f-bf12-8d18a2ac3373 {
                fill: none;
                stroke: #e7514f;
                stroke-miterlimit: 10;
                stroke-width: 2px;
            }

            .baa4bbd9-ca56-4882-bc0f-ff747dfb39a2 {
                fill: #fff;
            }

            .b588e67b-fedc-42fe-89ee-8aa91fa22515 {
                fill: #272b31;
            }
        </style>
    </defs>
    <path class="ac8be9fb-f1b7-4ad7-87c9-8e573422c3fe"
        d="M136.94,383.68c-4.17,0-7.08-2.25-7.08-6.42,0-3.87,2.79-6,6.72-6l.15-2.25h4.5l.15,5.58h-1.8c-2.82,0-4.77.51-4.74,2.7a2,2,0,0,0,2.16,2.19,2.1,2.1,0,0,0,2.28-2.28h4.83C144.2,380.8,141.68,383.68,136.94,383.68Zm2-22.47a2.8,2.8,0,1,1-3,2.76A2.83,2.83,0,0,1,138.92,361.21Z" />
    <path class="ac8be9fb-f1b7-4ad7-87c9-8e573422c3fe"
        d="M159.22,361.42h-7.77v4.26h6.87v4h-6.87v4.62h7.77v4.11h-12.9V357.31h12.9Z" />
    <path class="ac8be9fb-f1b7-4ad7-87c9-8e573422c3fe"
        d="M174,369.28c0-2.28-1.26-3.54-3.21-3.54s-3.21,1.26-3.21,3.54v9.09h-5.13V361.63h5.13v2.22a6.14,6.14,0,0,1,5.07-2.4c3.87,0,6.45,2.64,6.45,7.14v9.78H174Z" />
    <path class="ac8be9fb-f1b7-4ad7-87c9-8e573422c3fe"
        d="M195.69,361.45a6.1,6.1,0,0,1,4.89,2.1v-1.92h5.13v24.72h-5.13V376.27a6.22,6.22,0,0,1-5,2.31c-4.11,0-7.59-3.45-7.59-8.55S191.52,361.45,195.69,361.45Zm1.23,4.44c-1.71,0-3.66,1.32-3.66,4.14a3.76,3.76,0,0,0,3.66,4.11c1.74,0,3.66-1.32,3.66-4.14S198.66,365.89,196.92,365.89Z" />
    <path class="ac8be9fb-f1b7-4ad7-87c9-8e573422c3fe"
        d="M225.84,378.37h-5.13v-2.28a6.1,6.1,0,0,1-5.07,2.46c-3.87,0-6.47-2.67-6.47-7.14v-9.78h5.09v9.09c0,2.28,1.29,3.54,3.21,3.54s3.24-1.26,3.24-3.54v-9.09h5.13Z" />
    <path class="ac8be9fb-f1b7-4ad7-87c9-8e573422c3fe"
        d="M236.93,378.61c-4.92,0-8.46-3.3-8.46-8.61s3.48-8.61,8.46-8.61,8.34,3.24,8.34,8.34a13,13,0,0,1-.09,1.5H233.57c.18,2.19,1.53,3.21,3.18,3.21a2.73,2.73,0,0,0,2.67-1.62h5.46A7.82,7.82,0,0,1,236.93,378.61Zm3.45-25.26v4l-7.23,3v-3.54Zm-6.78,15H240a2.89,2.89,0,0,0-3.15-2.88A3.17,3.17,0,0,0,233.6,368.38Z" />
    <path class="ac8be9fb-f1b7-4ad7-87c9-8e573422c3fe"
        d="M261.14,378.61c-4.47,0-7.47-2.49-7.71-5.73h5.07a2.35,2.35,0,0,0,2.58,1.95c1.32,0,2-.6,2-1.35,0-2.7-9.12-.75-9.12-6.9,0-2.85,2.43-5.19,6.81-5.19s6.72,2.4,7.05,5.7h-4.74a2.21,2.21,0,0,0-2.46-1.89c-1.2,0-1.86.48-1.86,1.29,0,2.67,9.06.78,9.15,7C267.92,376.42,265.34,378.61,261.14,378.61Z" />
    <path class="ac8be9fb-f1b7-4ad7-87c9-8e573422c3fe"
        d="M278.22,378.61c-4.92,0-8.46-3.3-8.46-8.61s3.48-8.61,8.46-8.61,8.33,3.24,8.33,8.34a13,13,0,0,1-.09,1.5h-11.6c.18,2.19,1.53,3.21,3.18,3.21a2.73,2.73,0,0,0,2.67-1.62h5.46A7.83,7.83,0,0,1,278.22,378.61Zm-3.33-10.23h6.42a2.89,2.89,0,0,0-3.15-2.88A3.17,3.17,0,0,0,274.89,368.38Z" />
    <path class="ac8be9fb-f1b7-4ad7-87c9-8e573422c3fe"
        d="M302,361.39a6.14,6.14,0,0,1,5.15,2.55v-7.77h5.13v22.2h-5.13V376a5.76,5.76,0,0,1-5.15,2.64c-4.11,0-7.38-3.36-7.38-8.64S297.87,361.39,302,361.39Zm1.5,4.47c-1.92,0-3.66,1.44-3.66,4.11s1.74,4.17,3.66,4.17,3.65-1.47,3.65-4.14S305.42,365.86,303.48,365.86Z" />
    <path class="ac8be9fb-f1b7-4ad7-87c9-8e573422c3fe"
        d="M315.39,357.13a3.06,3.06,0,1,1,3.06,2.76A2.84,2.84,0,0,1,315.39,357.13Zm.48,4.5H321v16.74h-5.13Z" />
    <path class="ac8be9fb-f1b7-4ad7-87c9-8e573422c3fe"
        d="M325.18,365.89h-1.86v-4.26h1.86v-.48c0-4.38,2.7-6.54,7.8-6.27v4.35c-2-.12-2.67.48-2.67,2.25v.15h2.76v4.26h-2.76v12.48h-5.13Z" />
    <path class="ac8be9fb-f1b7-4ad7-87c9-8e573422c3fe"
        d="M342.59,378.61c-4.92,0-8.46-3.3-8.46-8.61s3.48-8.61,8.46-8.61,8.34,3.24,8.34,8.34a13,13,0,0,1-.09,1.5H339.23c.18,2.19,1.53,3.21,3.18,3.21a2.73,2.73,0,0,0,2.67-1.62h5.46A7.82,7.82,0,0,1,342.59,378.61Zm-3.33-10.23h6.42a2.89,2.89,0,0,0-3.15-2.88A3.17,3.17,0,0,0,339.26,368.38Z" />
    <path class="ac8be9fb-f1b7-4ad7-87c9-8e573422c3fe"
        d="M358.65,378.37h-5.13V361.63h5.13v2.79a6.24,6.24,0,0,1,5.25-3v5.43h-1.41c-2.43,0-3.84.84-3.84,3.72Z" />
    <path class="ac8be9fb-f1b7-4ad7-87c9-8e573422c3fe"
        d="M373.6,378.61c-4.92,0-8.46-3.3-8.46-8.61s3.48-8.61,8.46-8.61,8.34,3.24,8.34,8.34a13,13,0,0,1-.09,1.5H370.24c.18,2.19,1.53,3.21,3.18,3.21a2.73,2.73,0,0,0,2.67-1.62h5.46A7.82,7.82,0,0,1,373.6,378.61Zm-3.33-10.23h6.42a2.89,2.89,0,0,0-3.15-2.88A3.17,3.17,0,0,0,370.27,368.38Z" />
    <path class="ac8be9fb-f1b7-4ad7-87c9-8e573422c3fe"
        d="M396.07,369.28c0-2.28-1.26-3.54-3.21-3.54s-3.21,1.26-3.21,3.54v9.09h-5.13V361.63h5.13v2.22a6.14,6.14,0,0,1,5.07-2.4c3.87,0,6.45,2.64,6.45,7.14v9.78h-5.1Z" />
    <path class="ac8be9fb-f1b7-4ad7-87c9-8e573422c3fe"
        d="M412,361.39c4.2,0,7.17,2.31,8,6.3h-5.46a2.64,2.64,0,0,0-2.67-1.92c-1.83,0-3.09,1.44-3.09,4.23s1.26,4.23,3.09,4.23a2.6,2.6,0,0,0,2.67-1.92h5.46a7.77,7.77,0,0,1-8,6.3c-4.92,0-8.4-3.3-8.4-8.61S407.11,361.39,412,361.39Z" />
    <path class="ac8be9fb-f1b7-4ad7-87c9-8e573422c3fe"
        d="M422.05,357.13a3.06,3.06,0,1,1,3.06,2.76A2.84,2.84,0,0,1,422.05,357.13Zm.48,4.5h5.13v16.74h-5.13Z" />
    <path class="ac8be9fb-f1b7-4ad7-87c9-8e573422c3fe"
        d="M437.59,361.39a5.83,5.83,0,0,1,5.16,2.61v-2.37h5.13v16.74h-5.13V376a5.92,5.92,0,0,1-5.19,2.61c-4.08,0-7.35-3.36-7.35-8.64S433.48,361.39,437.59,361.39Zm1.5,4.47c-1.92,0-3.66,1.44-3.66,4.11s1.74,4.17,3.66,4.17,3.66-1.47,3.66-4.14S441,365.86,439.09,365.86Z" />
    <path class="ac8be9fb-f1b7-4ad7-87c9-8e573422c3fe"
        d="M463,369.28c0-2.28-1.26-3.54-3.21-3.54s-3.21,1.26-3.21,3.54v9.09h-5.13V361.63h5.13v2.22a6.14,6.14,0,0,1,5.07-2.4c3.87,0,6.45,2.64,6.45,7.14v9.78H463Z" />
    <path class="ac8be9fb-f1b7-4ad7-87c9-8e573422c3fe" d="M130.7,395.17h5.13v22.2H130.7Z" />
    <path class="ac8be9fb-f1b7-4ad7-87c9-8e573422c3fe"
        d="M147.05,417.61c-4.92,0-8.64-3.3-8.64-8.61s3.81-8.61,8.7-8.61,8.7,3.3,8.7,8.61S152,417.61,147.05,417.61Zm0-4.44c1.83,0,3.54-1.35,3.54-4.17s-1.68-4.17-3.48-4.17-3.48,1.32-3.48,4.17S145.19,413.17,147.05,413.17Z" />
    <path class="ac8be9fb-f1b7-4ad7-87c9-8e573422c3fe"
        d="M165.06,417.61c-4.47,0-7.47-2.49-7.71-5.73h5.07a2.35,2.35,0,0,0,2.58,1.95c1.32,0,2-.6,2-1.35,0-2.7-9.12-.75-9.12-6.9,0-2.85,2.43-5.19,6.81-5.19s6.72,2.4,7.05,5.7H167a2.21,2.21,0,0,0-2.46-1.89c-1.2,0-1.86.48-1.86,1.29,0,2.67,9.06.78,9.15,7C171.84,415.42,169.26,417.61,165.06,417.61Z" />
    <path class="ac8be9fb-f1b7-4ad7-87c9-8e573422c3fe"
        d="M182.16,404.89h-2v-4.26h2v-4.08h5.13v4.08h3.36v4.26h-3.36v6.72c0,1,.42,1.41,1.56,1.41h1.83v4.35h-2.61c-3.48,0-5.91-1.47-5.91-5.82Z" />
    <path class="ac8be9fb-f1b7-4ad7-87c9-8e573422c3fe"
        d="M193,396.13a3.06,3.06,0,1,1,3.06,2.76A2.84,2.84,0,0,1,193,396.13Zm.48,4.5h5.13v16.74H193.5Z" />
    <path class="ac8be9fb-f1b7-4ad7-87c9-8e573422c3fe"
        d="M212.48,400.39c4.11,0,7.38,3.3,7.38,8.58s-3.27,8.64-7.38,8.64a6,6,0,0,1-5.16-2.58v10.32h-5.13V400.63h5.13V403A5.9,5.9,0,0,1,212.48,400.39ZM211,404.86c-1.92,0-3.66,1.47-3.66,4.14s1.74,4.14,3.66,4.14,3.69-1.5,3.69-4.17S212.9,404.86,211,404.86Z" />
    <path class="ac8be9fb-f1b7-4ad7-87c9-8e573422c3fe"
        d="M230.13,417.61c-4.92,0-8.64-3.3-8.64-8.61s3.81-8.61,8.7-8.61,8.7,3.3,8.7,8.61S235.05,417.61,230.13,417.61Zm0-4.44c1.83,0,3.54-1.35,3.54-4.17s-1.68-4.17-3.48-4.17-3.48,1.32-3.48,4.17S228.27,413.17,230.13,413.17Z" />
    <path class="ac8be9fb-f1b7-4ad7-87c9-8e573422c3fe"
        d="M248.14,417.61c-4.47,0-7.47-2.49-7.71-5.73h5.07a2.35,2.35,0,0,0,2.58,1.95c1.32,0,2-.6,2-1.35,0-2.7-9.12-.75-9.12-6.9,0-2.85,2.43-5.19,6.81-5.19s6.72,2.4,7.05,5.7h-4.74a2.21,2.21,0,0,0-2.46-1.89c-1.2,0-1.86.48-1.86,1.29,0,2.67,9.06.78,9.15,7C254.92,415.42,252.34,417.61,248.14,417.61Z" />
    <path class="ac8be9fb-f1b7-4ad7-87c9-8e573422c3fe"
        d="M270.79,400.39a6.14,6.14,0,0,1,5.16,2.55v-7.77h5.13v22.2H276V415a5.79,5.79,0,0,1-5.16,2.64c-4.11,0-7.38-3.36-7.38-8.64S266.68,400.39,270.79,400.39Zm1.5,4.47c-1.92,0-3.66,1.44-3.66,4.11s1.74,4.17,3.66,4.17S276,411.67,276,409,274.24,404.86,272.29,404.86Z" />
    <path class="ac8be9fb-f1b7-4ad7-87c9-8e573422c3fe"
        d="M292.18,417.61c-4.92,0-8.46-3.3-8.46-8.61s3.48-8.61,8.46-8.61,8.34,3.24,8.34,8.34a13,13,0,0,1-.09,1.5H288.82c.18,2.19,1.53,3.21,3.18,3.21a2.73,2.73,0,0,0,2.67-1.62h5.46A7.82,7.82,0,0,1,292.18,417.61Zm-3.33-10.23h6.42a2.89,2.89,0,0,0-3.15-2.88A3.17,3.17,0,0,0,288.85,407.38Z" />
    <path class="ac8be9fb-f1b7-4ad7-87c9-8e573422c3fe"
        d="M315.94,400.39a6.14,6.14,0,0,1,5.16,2.55v-7.77h5.13v22.2H321.1V415a5.79,5.79,0,0,1-5.16,2.64c-4.11,0-7.38-3.36-7.38-8.64S311.83,400.39,315.94,400.39Zm1.5,4.47c-1.92,0-3.66,1.44-3.66,4.11s1.74,4.17,3.66,4.17,3.66-1.47,3.66-4.14S319.39,404.86,317.44,404.86Z" />
    <path class="ac8be9fb-f1b7-4ad7-87c9-8e573422c3fe"
        d="M329.36,396.13a3.06,3.06,0,1,1,3.06,2.76A2.84,2.84,0,0,1,329.36,396.13Zm.48,4.5H335v16.74h-5.13Z" />
    <path class="ac8be9fb-f1b7-4ad7-87c9-8e573422c3fe"
        d="M345.21,417.61c-4.47,0-7.47-2.49-7.71-5.73h5.07a2.35,2.35,0,0,0,2.58,1.95c1.32,0,2-.6,2-1.35,0-2.7-9.12-.75-9.12-6.9,0-2.85,2.43-5.19,6.81-5.19s6.72,2.4,7,5.7h-4.74a2.21,2.21,0,0,0-2.46-1.89c-1.2,0-1.86.48-1.86,1.29,0,2.67,9.06.78,9.15,7C352,415.42,349.41,417.61,345.21,417.61Z" />
    <path class="ac8be9fb-f1b7-4ad7-87c9-8e573422c3fe"
        d="M362.29,417.61c-4.92,0-8.46-3.3-8.46-8.61s3.48-8.61,8.46-8.61,8.34,3.24,8.34,8.34a13,13,0,0,1-.09,1.5H358.93c.18,2.19,1.53,3.21,3.18,3.21a2.73,2.73,0,0,0,2.67-1.62h5.46A7.82,7.82,0,0,1,362.29,417.61ZM359,407.38h6.42a2.89,2.89,0,0,0-3.15-2.88A3.17,3.17,0,0,0,359,407.38Z" />
    <path class="ac8be9fb-f1b7-4ad7-87c9-8e573422c3fe"
        d="M378.35,417.37h-5.13V400.63h5.13v2.22a6.14,6.14,0,0,1,5.07-2.4c3.87,0,6.45,2.64,6.45,7.14v9.78h-5.1v-9.09c0-2.28-1.26-3.54-3.21-3.54s-3.21,1.26-3.21,3.54Zm2-22.59c1.8,0,2.73,1.35,3.93,1.35.69,0,1.17-.42,1.29-1.35h2.64c-.51,3.15-2,4.44-4.14,4.44-1.8,0-2.73-1.35-3.93-1.35-.69,0-1.17.42-1.32,1.35h-2.61C376.7,396.07,378.2,394.78,380.33,394.78Z" />
    <path class="ac8be9fb-f1b7-4ad7-87c9-8e573422c3fe"
        d="M400.91,417.61c-4.92,0-8.64-3.3-8.64-8.61s3.81-8.61,8.7-8.61,8.7,3.3,8.7,8.61S405.83,417.61,400.91,417.61Zm0-4.44c1.83,0,3.54-1.35,3.54-4.17s-1.68-4.17-3.48-4.17-3.48,1.32-3.48,4.17S399.05,413.17,400.91,413.17Z" />
    <path class="ac8be9fb-f1b7-4ad7-87c9-8e573422c3fe"
        d="M417.78,395.14c4.17,0,7.08,2.25,7.08,6.42,0,3.87-2.79,6-6.72,6l-.15,2.25h-4.5l-.15-5.58h1.8c2.82,0,4.77-.51,4.74-2.7a2,2,0,0,0-2.16-2.19,2.1,2.1,0,0,0-2.28,2.28h-4.83C410.52,398,413,395.14,417.78,395.14Zm-2,22.47a2.8,2.8,0,1,1,3-2.76A2.83,2.83,0,0,1,415.8,417.61Z" />
    <path class="aa1beeef-822e-416f-bf12-8d18a2ac3373"
        d="M2.25,286.2H680A31.76,31.76,0,0,1,711.79,318V572.08A31.76,31.76,0,0,1,680,603.84H2.25" />
    <circle class="ac8be9fb-f1b7-4ad7-87c9-8e573422c3fe" cx="45.84" cy="374.36" r="43.59" />
    <path class="baa4bbd9-ca56-4882-bc0f-ff747dfb39a2" d="M389,463.75h8.26v1.05h-3.49v11.54h-1.26V464.8H389Z" />
    <path class="baa4bbd9-ca56-4882-bc0f-ff747dfb39a2"
        d="M399,463.72a.92.92,0,0,1,1.84,0,.92.92,0,1,1-1.84,0Zm.29,2.79h1.26v9.83h-1.26Z" />
    <path class="baa4bbd9-ca56-4882-bc0f-ff747dfb39a2"
        d="M408.47,466.36c2.69,0,4.69,2,4.69,5.05s-2,5.07-4.69,5.07a4.19,4.19,0,0,1-3.9-2.3V481h-1.25V466.51h1.25v2.16A4.16,4.16,0,0,1,408.47,466.36Zm-.25,1.1a4,4,0,1,0,3.66,4C411.88,468.9,410.29,467.46,408.22,467.46Z" />
    <path class="baa4bbd9-ca56-4882-bc0f-ff747dfb39a2"
        d="M419.78,476.48a5.06,5.06,0,1,1,5-5.06A4.79,4.79,0,0,1,419.78,476.48Zm0-1.09a3.61,3.61,0,0,0,3.65-4c0-2.7-1.76-4-3.63-4s-3.62,1.26-3.62,4S417.91,475.39,419.78,475.39Z" />
    <path class="baa4bbd9-ca56-4882-bc0f-ff747dfb39a2"
        d="M430.28,476.48c-2.23,0-3.79-1.11-4-2.91h1.3c.11,1.08,1,1.85,2.65,1.85,1.4,0,2.19-.75,2.19-1.69,0-2.43-5.9-1-5.9-4.7,0-1.46,1.38-2.67,3.45-2.67s3.5,1.12,3.61,3h-1.26a2.1,2.1,0,0,0-2.38-1.92c-1.32,0-2.14.7-2.14,1.56,0,2.67,5.81,1.24,5.87,4.72C433.71,475.31,432.32,476.48,430.28,476.48Z" />
    <path class="baa4bbd9-ca56-4882-bc0f-ff747dfb39a2"
        d="M445.15,466.36a4.28,4.28,0,0,1,3.87,2.27V463h1.26v13.32H449v-2.2a4.08,4.08,0,0,1-3.89,2.34c-2.7,0-4.7-2-4.7-5.07S442.43,466.36,445.15,466.36Zm.22,1.1c-2.07,0-3.66,1.44-3.66,4a3.67,3.67,0,1,0,3.66-4Z" />
    <path class="baa4bbd9-ca56-4882-bc0f-ff747dfb39a2"
        d="M457.39,476.48a4.69,4.69,0,0,1-4.83-5.06c0-3.13,2-5.06,4.83-5.06a4.42,4.42,0,0,1,4.64,4.56c0,.4,0,.65,0,1h-8.16a3.43,3.43,0,0,0,3.55,3.51,3,3,0,0,0,3.17-2.19h1.33A4.32,4.32,0,0,1,457.39,476.48Zm-3.55-5.6h6.91a3.21,3.21,0,0,0-3.42-3.43A3.39,3.39,0,0,0,453.84,470.88Z" />
    <path class="baa4bbd9-ca56-4882-bc0f-ff747dfb39a2"
        d="M473.41,466.36a4.29,4.29,0,0,1,3.87,2.27V463h1.26v13.32h-1.26v-2.2a4.1,4.1,0,0,1-3.89,2.34c-2.7,0-4.7-2-4.7-5.07S470.69,466.36,473.41,466.36Zm.21,1.1c-2.07,0-3.65,1.44-3.65,4s1.58,4,3.65,4a4,4,0,0,0,0-7.93Z" />
    <path class="baa4bbd9-ca56-4882-bc0f-ff747dfb39a2"
        d="M485.52,466.36a4.11,4.11,0,0,1,3.89,2.31v-2.16h1.26v9.83h-1.26v-2.18a4.16,4.16,0,0,1-3.91,2.32c-2.68,0-4.68-2-4.68-5.07S482.82,466.36,485.52,466.36Zm.23,1.1c-2.07,0-3.65,1.44-3.65,4s1.58,4,3.65,4a4,4,0,0,0,0-7.93Z" />
    <path class="baa4bbd9-ca56-4882-bc0f-ff747dfb39a2"
        d="M493.8,467.57h-1.37v-1.06h1.37V464h1.28v2.47h2.7v1.06h-2.7v6.11c0,1.2.41,1.58,1.54,1.58h1.16v1.08h-1.35c-1.72,0-2.63-.7-2.63-2.66Z" />
    <path class="baa4bbd9-ca56-4882-bc0f-ff747dfb39a2"
        d="M503.6,476.48a5.06,5.06,0,1,1,5-5.06A4.79,4.79,0,0,1,503.6,476.48Zm0-1.09a4,4,0,0,0,0-7.93c-1.87,0-3.62,1.26-3.62,4S501.73,475.39,503.6,475.39Z" />
    <path class="baa4bbd9-ca56-4882-bc0f-ff747dfb39a2"
        d="M514.11,476.48c-2.23,0-3.8-1.11-4-2.91h1.3c.1,1.08,1,1.85,2.64,1.85,1.41,0,2.2-.75,2.2-1.69,0-2.43-5.91-1-5.91-4.7,0-1.46,1.39-2.67,3.46-2.67s3.49,1.12,3.6,3h-1.26a2.09,2.09,0,0,0-2.38-1.92c-1.31,0-2.14.7-2.14,1.56,0,2.67,5.82,1.24,5.87,4.72C517.53,475.31,516.14,476.48,514.11,476.48Z" />
    <path class="baa4bbd9-ca56-4882-bc0f-ff747dfb39a2"
        d="M398.58,523.75h1.33l-4.77,12.59H393.7l-4.77-12.59h1.37L394.42,535Z" />
    <path class="baa4bbd9-ca56-4882-bc0f-ff747dfb39a2"
        d="M405,526.36a4.11,4.11,0,0,1,3.89,2.31v-2.16h1.26v9.83h-1.26v-2.18a4.16,4.16,0,0,1-3.91,2.32c-2.68,0-4.68-2-4.68-5.07S402.27,526.36,405,526.36Zm.23,1.1c-2.07,0-3.65,1.44-3.65,3.95s1.58,4,3.65,4a4,4,0,0,0,0-7.93Z" />
    <path class="baa4bbd9-ca56-4882-bc0f-ff747dfb39a2" d="M413,523h1.26v13.32H413Z" />
    <path class="baa4bbd9-ca56-4882-bc0f-ff747dfb39a2"
        d="M416.72,523.72a.92.92,0,1,1,1.83,0,.92.92,0,1,1-1.83,0Zm.28,2.79h1.26v9.83H417Z" />
    <path class="baa4bbd9-ca56-4882-bc0f-ff747dfb39a2"
        d="M425.2,526.36a4.29,4.29,0,0,1,3.87,2.27V523h1.26v13.32h-1.26v-2.2a4.1,4.1,0,0,1-3.89,2.34c-2.7,0-4.7-2-4.7-5.07S422.48,526.36,425.2,526.36Zm.21,1.1c-2.07,0-3.65,1.44-3.65,3.95s1.58,4,3.65,4a4,4,0,0,0,0-7.93Z" />
    <path class="baa4bbd9-ca56-4882-bc0f-ff747dfb39a2"
        d="M437.43,536.48c-2.79,0-4.82-1.94-4.82-5.06s2-5.06,4.82-5.06a4.43,4.43,0,0,1,4.65,4.56,7.71,7.71,0,0,1,0,1h-8.16a3.43,3.43,0,0,0,3.55,3.51,3,3,0,0,0,3.17-2.19h1.33A4.32,4.32,0,0,1,437.43,536.48Zm-3.55-5.6h6.92a3.21,3.21,0,0,0-3.42-3.43A3.4,3.4,0,0,0,433.88,530.88Z" />
    <path class="baa4bbd9-ca56-4882-bc0f-ff747dfb39a2"
        d="M449.68,527.55l-5.06,7.75h5.15v1h-6.59v-1l5.06-7.75h-5v-1h6.41Z" />
    <path class="baa4bbd9-ca56-4882-bc0f-ff747dfb39a2"
        d="M461,526.36a4.28,4.28,0,0,1,3.87,2.27V523h1.26v13.32h-1.26v-2.2a4.08,4.08,0,0,1-3.89,2.34c-2.7,0-4.69-2-4.69-5.07S458.24,526.36,461,526.36Zm.22,1.1c-2.07,0-3.66,1.44-3.66,3.95a3.67,3.67,0,1,0,3.66-3.95Z" />
    <path class="baa4bbd9-ca56-4882-bc0f-ff747dfb39a2"
        d="M473.2,536.48a4.69,4.69,0,0,1-4.83-5.06c0-3.13,2-5.06,4.83-5.06a4.42,4.42,0,0,1,4.64,4.56c0,.4,0,.65,0,1h-8.16a3.43,3.43,0,0,0,3.55,3.51,3,3,0,0,0,3.17-2.19h1.33A4.32,4.32,0,0,1,473.2,536.48Zm-3.55-5.6h6.92a3.22,3.22,0,0,0-3.43-3.43A3.39,3.39,0,0,0,469.65,530.88Z" />
    <path class="baa4bbd9-ca56-4882-bc0f-ff747dfb39a2" d="M485.08,523h1.26v13.32h-1.26Z" />
    <path class="baa4bbd9-ca56-4882-bc0f-ff747dfb39a2"
        d="M493.48,536.48a5.06,5.06,0,1,1,4.95-5.06A4.79,4.79,0,0,1,493.48,536.48Zm0-1.09a4,4,0,0,0,0-7.93c-1.87,0-3.62,1.26-3.62,4S491.61,535.39,493.48,535.39Z" />
    <path class="baa4bbd9-ca56-4882-bc0f-ff747dfb39a2"
        d="M504,536.48c-2.23,0-3.8-1.11-4-2.91h1.29c.11,1.08,1.05,1.85,2.65,1.85,1.41,0,2.2-.75,2.2-1.69,0-2.43-5.91-1-5.91-4.7,0-1.46,1.39-2.67,3.46-2.67s3.49,1.12,3.6,3h-1.26a2.09,2.09,0,0,0-2.38-1.92c-1.31,0-2.14.7-2.14,1.56,0,2.67,5.82,1.24,5.87,4.72C507.41,535.31,506,536.48,504,536.48Z" />
    <path class="baa4bbd9-ca56-4882-bc0f-ff747dfb39a2"
        d="M518.86,526.36a4.29,4.29,0,0,1,3.87,2.27V523H524v13.32h-1.26v-2.2a4.1,4.1,0,0,1-3.89,2.34c-2.7,0-4.7-2-4.7-5.07S516.14,526.36,518.86,526.36Zm.21,1.1c-2.07,0-3.65,1.44-3.65,3.95s1.58,4,3.65,4a4,4,0,0,0,0-7.93Z" />
    <path class="baa4bbd9-ca56-4882-bc0f-ff747dfb39a2"
        d="M531,526.36a4.11,4.11,0,0,1,3.89,2.31v-2.16h1.26v9.83h-1.26v-2.18a4.16,4.16,0,0,1-3.91,2.32c-2.68,0-4.68-2-4.68-5.07S528.27,526.36,531,526.36Zm.23,1.1c-2.07,0-3.65,1.44-3.65,3.95s1.58,4,3.65,4a4,4,0,0,0,0-7.93Z" />
    <path class="baa4bbd9-ca56-4882-bc0f-ff747dfb39a2"
        d="M539.24,527.57h-1.36v-1.06h1.36V524h1.28v2.47h2.7v1.06h-2.7v6.11c0,1.2.42,1.58,1.55,1.58h1.15v1.08h-1.35c-1.71,0-2.63-.7-2.63-2.66Z" />
    <path class="baa4bbd9-ca56-4882-bc0f-ff747dfb39a2"
        d="M549.05,536.48a5.06,5.06,0,1,1,5-5.06A4.79,4.79,0,0,1,549.05,536.48Zm0-1.09a4,4,0,0,0,0-7.93c-1.87,0-3.62,1.26-3.62,4S547.18,535.39,549.05,535.39Z" />
    <path class="baa4bbd9-ca56-4882-bc0f-ff747dfb39a2"
        d="M559.56,536.48c-2.23,0-3.8-1.11-4-2.91h1.29c.11,1.08,1.05,1.85,2.65,1.85,1.41,0,2.2-.75,2.2-1.69,0-2.43-5.91-1-5.91-4.7,0-1.46,1.39-2.67,3.46-2.67s3.49,1.12,3.6,3h-1.26a2.09,2.09,0,0,0-2.38-1.92c-1.31,0-2.14.7-2.14,1.56,0,2.67,5.82,1.24,5.87,4.72C563,535.31,561.59,536.48,559.56,536.48Z" />
    <path class="baa4bbd9-ca56-4882-bc0f-ff747dfb39a2"
        d="M51.08,471H48.54v5.37H47.28V463.75h3.8c2.92,0,4.25,1.55,4.25,3.62S54,471,51.08,471Zm0-1.08c2.12,0,3-1,3-2.52s-.83-2.55-3-2.55H48.54v5.07Z" />
    <path class="baa4bbd9-ca56-4882-bc0f-ff747dfb39a2"
        d="M58.45,476.34H57.19v-9.83h1.26v1.75a3.39,3.39,0,0,1,3.37-1.93v1.31h-.34c-1.64,0-3,.74-3,3.21Z" />
    <path class="baa4bbd9-ca56-4882-bc0f-ff747dfb39a2"
        d="M67.53,476.48a4.69,4.69,0,0,1-4.83-5.06c0-3.13,2-5.05,4.83-5.05a4.41,4.41,0,0,1,4.64,4.55c0,.4,0,.65,0,1H64a3.43,3.43,0,0,0,3.55,3.51,3,3,0,0,0,3.17-2.19H72A4.32,4.32,0,0,1,67.53,476.48ZM64,470.88H70.9a3.22,3.22,0,0,0-3.42-3.43A3.4,3.4,0,0,0,64,470.88Z" />
    <path class="baa4bbd9-ca56-4882-bc0f-ff747dfb39a2"
        d="M78.61,466.37a4.14,4.14,0,0,1,3.89,2.28v-2.14h1.26v10.08a4.35,4.35,0,0,1-4.59,4.58c-2.54,0-4.31-1.3-4.7-3.35h1.24a3.37,3.37,0,0,0,3.46,2.25,3.21,3.21,0,0,0,3.33-3.48v-2.43a4.15,4.15,0,0,1-3.89,2.32c-2.7,0-4.7-2-4.7-5.07S75.91,466.37,78.61,466.37Zm.23,1.09c-2.07,0-3.65,1.44-3.65,4s1.58,4,3.65,4a4,4,0,0,0,0-7.93Z" />
    <path class="baa4bbd9-ca56-4882-bc0f-ff747dfb39a2"
        d="M95.11,476.34H93.85v-1.73a3.55,3.55,0,0,1-3.35,1.89c-2.23,0-4-1.37-4-4.25v-5.74h1.24v5.6c0,2.18,1.19,3.29,3,3.29s3.11-1.15,3.11-3.54v-5.35h1.26Z" />
    <path class="baa4bbd9-ca56-4882-bc0f-ff747dfb39a2"
        d="M105.3,470.72c0-2.18-1.19-3.29-3-3.29s-3.12,1.15-3.12,3.54v5.37H97.93v-9.83h1.26v1.67a3.6,3.6,0,0,1,3.35-1.85c2.24,0,4,1.37,4,4.25v5.76H105.3Z" />
    <path class="baa4bbd9-ca56-4882-bc0f-ff747dfb39a2"
        d="M109.42,467.57h-1.37v-1.06h1.37V464h1.28v2.47h2.7v1.06h-2.7v6.11c0,1.2.41,1.58,1.54,1.58h1.16v1.08h-1.35c-1.71,0-2.63-.7-2.63-2.66Z" />
    <path class="baa4bbd9-ca56-4882-bc0f-ff747dfb39a2"
        d="M119.06,466.37a4.11,4.11,0,0,1,3.89,2.3v-2.16h1.26v9.83H123v-2.18a4.14,4.14,0,0,1-3.9,2.32c-2.69,0-4.69-2-4.69-5.07S116.36,466.37,119.06,466.37Zm.24,1.09c-2.07,0-3.66,1.44-3.66,4a3.67,3.67,0,1,0,3.66-4Z" />
    <path class="baa4bbd9-ca56-4882-bc0f-ff747dfb39a2"
        d="M130.42,476.48c-2.23,0-3.8-1.11-4-2.91h1.3c.1,1.08,1,1.85,2.64,1.85,1.41,0,2.2-.75,2.2-1.69,0-2.43-5.91-1-5.91-4.7,0-1.46,1.39-2.66,3.46-2.66s3.49,1.11,3.6,3h-1.26a2.09,2.09,0,0,0-2.38-1.92c-1.31,0-2.14.7-2.14,1.56,0,2.67,5.82,1.24,5.87,4.72C133.84,475.31,132.46,476.48,130.42,476.48Z" />
    <path class="baa4bbd9-ca56-4882-bc0f-ff747dfb39a2"
        d="M145.29,466.37a4.28,4.28,0,0,1,3.87,2.26V463h1.26v13.32h-1.26v-2.2a4.1,4.1,0,0,1-3.89,2.34c-2.7,0-4.7-2-4.7-5.07S142.57,466.37,145.29,466.37Zm.21,1.09c-2.07,0-3.65,1.44-3.65,4s1.58,4,3.65,4a4,4,0,0,0,0-7.93Z" />
    <path class="baa4bbd9-ca56-4882-bc0f-ff747dfb39a2"
        d="M157.52,476.48c-2.79,0-4.82-1.94-4.82-5.06s2-5.05,4.82-5.05a4.42,4.42,0,0,1,4.65,4.55,7.71,7.71,0,0,1,0,1H154a3.43,3.43,0,0,0,3.54,3.51,3,3,0,0,0,3.17-2.19H162A4.33,4.33,0,0,1,157.52,476.48Zm-3.54-5.6h6.91a3.21,3.21,0,0,0-3.42-3.43A3.39,3.39,0,0,0,154,470.88Z" />
    <path class="baa4bbd9-ca56-4882-bc0f-ff747dfb39a2"
        d="M169.11,463.72a.92.92,0,1,1,.92.93A.91.91,0,0,1,169.11,463.72Zm.29,2.79h1.26v9.83H169.4Z" />
    <path class="baa4bbd9-ca56-4882-bc0f-ff747dfb39a2"
        d="M180.84,470.72c0-2.18-1.19-3.29-3-3.29s-3.12,1.15-3.12,3.54v5.37h-1.26v-9.83h1.26v1.67a3.6,3.6,0,0,1,3.35-1.85c2.23,0,4,1.37,4,4.25v5.76h-1.24Z" />
    <path class="baa4bbd9-ca56-4882-bc0f-ff747dfb39a2"
        d="M184.57,466.51l3.31,8.61,3.32-8.61h1.33l-3.95,9.83h-1.42l-3.94-9.83Z" />
    <path class="baa4bbd9-ca56-4882-bc0f-ff747dfb39a2"
        d="M198.07,476.48a4.69,4.69,0,0,1-4.83-5.06c0-3.13,2-5.05,4.83-5.05a4.41,4.41,0,0,1,4.64,4.55c0,.4,0,.65,0,1h-8.16a3.43,3.43,0,0,0,3.55,3.51,3,3,0,0,0,3.17-2.19h1.33A4.32,4.32,0,0,1,198.07,476.48Zm-3.55-5.6h6.91a3.21,3.21,0,0,0-3.42-3.43A3.39,3.39,0,0,0,194.52,470.88Z" />
    <path class="baa4bbd9-ca56-4882-bc0f-ff747dfb39a2"
        d="M208.32,476.48c-2.24,0-3.8-1.11-4-2.91h1.29c.11,1.08,1,1.85,2.65,1.85,1.4,0,2.19-.75,2.19-1.69,0-2.43-5.9-1-5.9-4.7,0-1.46,1.39-2.66,3.46-2.66s3.49,1.11,3.6,3h-1.26a2.1,2.1,0,0,0-2.38-1.92c-1.31,0-2.14.7-2.14,1.56,0,2.67,5.81,1.24,5.87,4.72C211.74,475.31,210.35,476.48,208.32,476.48Z" />
    <path class="baa4bbd9-ca56-4882-bc0f-ff747dfb39a2"
        d="M214.3,467.57h-1.37v-1.06h1.37V464h1.28v2.47h2.7v1.06h-2.7v6.11c0,1.2.41,1.58,1.55,1.58h1.15v1.08h-1.35c-1.71,0-2.63-.7-2.63-2.66Z" />
    <path class="baa4bbd9-ca56-4882-bc0f-ff747dfb39a2"
        d="M219.83,463.72a.92.92,0,1,1,1.84,0,.92.92,0,1,1-1.84,0Zm.29,2.79h1.26v9.83h-1.26Z" />
    <path class="baa4bbd9-ca56-4882-bc0f-ff747dfb39a2"
        d="M228.29,466.37a4.13,4.13,0,0,1,3.89,2.28v-2.14h1.26v10.08a4.35,4.35,0,0,1-4.59,4.58c-2.54,0-4.3-1.3-4.7-3.35h1.24a3.38,3.38,0,0,0,3.46,2.25,3.21,3.21,0,0,0,3.33-3.48v-2.43a4.14,4.14,0,0,1-3.89,2.32c-2.7,0-4.7-2-4.7-5.07S225.59,466.37,228.29,466.37Zm.24,1.09c-2.07,0-3.66,1.44-3.66,4a3.67,3.67,0,1,0,3.66-4Z" />
    <path class="baa4bbd9-ca56-4882-bc0f-ff747dfb39a2"
        d="M240.42,466.37a4.11,4.11,0,0,1,3.89,2.3v-2.16h1.26v9.83h-1.26v-2.18a4.16,4.16,0,0,1-3.91,2.32c-2.68,0-4.68-2-4.68-5.07S237.72,466.37,240.42,466.37Zm.23,1.09c-2.07,0-3.65,1.44-3.65,4s1.58,4,3.65,4a4,4,0,0,0,0-7.93Z" />
    <path class="baa4bbd9-ca56-4882-bc0f-ff747dfb39a2"
        d="M252.62,466.37a4.24,4.24,0,0,1,4.52,3.34h-1.35a3,3,0,0,0-3.17-2.26c-1.93,0-3.49,1.31-3.49,4s1.56,4,3.49,4a3,3,0,0,0,3.17-2.28h1.35a4.3,4.3,0,0,1-4.52,3.34c-2.77,0-4.77-1.94-4.77-5.06S249.85,466.37,252.62,466.37Z" />
    <path class="baa4bbd9-ca56-4882-bc0f-ff747dfb39a2"
        d="M259.06,463.72a.92.92,0,1,1,.92.93A.9.9,0,0,1,259.06,463.72Zm.29,2.79h1.26v9.83h-1.26Z" />
    <path class="baa4bbd9-ca56-4882-bc0f-ff747dfb39a2"
        d="M267.7,476.48a5.06,5.06,0,1,1,4.95-5.06A4.79,4.79,0,0,1,267.7,476.48Zm0-1.09a3.61,3.61,0,0,0,3.65-4c0-2.7-1.76-4-3.63-4s-3.62,1.26-3.62,4S265.83,475.39,267.7,475.39Zm1.73-13v1.13l-3.69,2.14v-1Z" />
    <path class="baa4bbd9-ca56-4882-bc0f-ff747dfb39a2"
        d="M282.29,470.72c0-2.18-1.18-3.29-3-3.29s-3.11,1.15-3.11,3.54v5.37h-1.26v-9.83h1.26v1.67a3.6,3.6,0,0,1,3.35-1.85c2.23,0,4,1.37,4,4.25v5.76h-1.25Z" />
    <path class="baa4bbd9-ca56-4882-bc0f-ff747dfb39a2"
        d="M47.28,523.92h1.33l4.81,10.76,4.81-10.76h1.35v12.42H58.32v-9.92l-4.43,9.92H53l-4.43-9.88v9.88H47.28Z" />
    <path class="baa4bbd9-ca56-4882-bc0f-ff747dfb39a2"
        d="M66.75,536.48a4.69,4.69,0,0,1-4.83-5.06c0-3.13,2-5,4.83-5a4.41,4.41,0,0,1,4.64,4.55c0,.4,0,.65,0,1H63.2a3.43,3.43,0,0,0,3.55,3.51,3,3,0,0,0,3.17-2.19h1.33A4.32,4.32,0,0,1,66.75,536.48Zm-3.55-5.6h6.92a3.22,3.22,0,0,0-3.43-3.43A3.39,3.39,0,0,0,63.2,530.88Z" />
    <path class="baa4bbd9-ca56-4882-bc0f-ff747dfb39a2"
        d="M73.81,527.57H72.45v-1.06h1.36V524h1.28v2.47h2.7v1.06h-2.7v6.11c0,1.2.42,1.58,1.55,1.58h1.15v1.08H76.44c-1.71,0-2.63-.7-2.63-2.66Z" />
    <path class="baa4bbd9-ca56-4882-bc0f-ff747dfb39a2"
        d="M83.62,536.48a5.06,5.06,0,1,1,4.95-5.06A4.79,4.79,0,0,1,83.62,536.48Zm0-1.09a4,4,0,0,0,0-7.93c-1.87,0-3.62,1.26-3.62,4S81.75,535.39,83.62,535.39Z" />
    <path class="baa4bbd9-ca56-4882-bc0f-ff747dfb39a2"
        d="M95,526.37a4.29,4.29,0,0,1,3.88,2.26V523h1.26v13.32H98.9v-2.2A4.1,4.1,0,0,1,95,536.48c-2.7,0-4.7-2-4.7-5.07S92.31,526.37,95,526.37Zm.22,1.09c-2.07,0-3.65,1.44-3.65,3.95s1.58,4,3.65,4a4,4,0,0,0,0-7.93Z" />
    <path class="baa4bbd9-ca56-4882-bc0f-ff747dfb39a2"
        d="M107.31,536.48a5.06,5.06,0,1,1,5-5.06A4.79,4.79,0,0,1,107.31,536.48Zm0-1.09a3.61,3.61,0,0,0,3.66-4c0-2.7-1.76-4-3.64-4s-3.62,1.26-3.62,4S105.44,535.39,107.31,535.39Z" />
    <path class="baa4bbd9-ca56-4882-bc0f-ff747dfb39a2" d="M114.54,523h1.26v13.32h-1.26Z" />
    <path class="baa4bbd9-ca56-4882-bc0f-ff747dfb39a2"
        d="M122.94,536.48a5.06,5.06,0,1,1,5-5.06A4.79,4.79,0,0,1,122.94,536.48Zm0-1.09a4,4,0,0,0,0-7.93c-1.87,0-3.62,1.26-3.62,4S121.07,535.39,122.94,535.39Z" />
    <path class="baa4bbd9-ca56-4882-bc0f-ff747dfb39a2"
        d="M134.33,526.37a4.14,4.14,0,0,1,3.89,2.28v-2.14h1.26v10.08a4.35,4.35,0,0,1-4.59,4.58c-2.54,0-4.31-1.3-4.7-3.35h1.24a3.36,3.36,0,0,0,3.46,2.25,3.21,3.21,0,0,0,3.33-3.48v-2.43a4.15,4.15,0,0,1-3.89,2.32c-2.7,0-4.7-2-4.7-5.07S131.63,526.37,134.33,526.37Zm.23,1.09c-2.07,0-3.65,1.44-3.65,3.95s1.58,4,3.65,4a4,4,0,0,0,0-7.93Z" />
    <path class="baa4bbd9-ca56-4882-bc0f-ff747dfb39a2"
        d="M144.64,522.48v1.13L141,525.75v-1Zm-2.29,4h1.26v9.83h-1.26Z" />
    <path class="baa4bbd9-ca56-4882-bc0f-ff747dfb39a2"
        d="M150.52,526.37a4.11,4.11,0,0,1,3.89,2.3v-2.16h1.26v9.83h-1.26v-2.18a4.15,4.15,0,0,1-3.91,2.32c-2.68,0-4.68-2-4.68-5.07S147.82,526.37,150.52,526.37Zm.24,1.09c-2.08,0-3.66,1.44-3.66,3.95s1.58,4,3.66,4a4,4,0,0,0,0-7.93Z" />
    <path class="baa4bbd9-ca56-4882-bc0f-ff747dfb39a2"
        d="M161.88,536.48c-2.23,0-3.8-1.11-4-2.91h1.29c.11,1.08,1,1.85,2.65,1.85,1.41,0,2.2-.75,2.2-1.69,0-2.43-5.91-1-5.91-4.7,0-1.46,1.39-2.66,3.46-2.66s3.49,1.11,3.6,3H164a2.09,2.09,0,0,0-2.38-1.92c-1.31,0-2.14.7-2.14,1.56,0,2.67,5.82,1.24,5.87,4.72C165.3,535.31,163.91,536.48,161.88,536.48Z" />
    <path class="b588e67b-fedc-42fe-89ee-8aa91fa22515"
        d="M61.4,376.37a47.64,47.64,0,0,0-4.24,6.53L54,389.08H50.63V366.57c0-.07-.07-.21-.07-.28L47.08,358a1.36,1.36,0,0,0-1.25-.83,1.39,1.39,0,0,0-1.25.83l-3.47,8.34h0v.07c0,.07-.07.14-.07.21v22.51H37.71l-3.2-6.18a47.64,47.64,0,0,0-4.24-6.53A19.48,19.48,0,0,1,58.76,350.1,19.77,19.77,0,0,1,61.4,376.37ZM38.12,396H53.41v-4.17H38.12Zm7.64,5.9a4.17,4.17,0,0,0,4.17-4.17H41.6A4.17,4.17,0,0,0,45.76,401.93Zm-1.38-36.47h2.77l-1.39-3.34Zm-.7,23.62h4.17V368.24H43.68Z" />
    <path class="aa1beeef-822e-416f-bf12-8d18a2ac3373"
        d="M512.78,2.14v35a74.61,74.61,0,0,1-21.85,52.75L295.67,285.14" />
    <circle class="ac8be9fb-f1b7-4ad7-87c9-8e573422c3fe" cx="22.15" cy="470.15" r="6.71" />
    <circle class="ac8be9fb-f1b7-4ad7-87c9-8e573422c3fe" cx="22.15" cy="531.49" r="6.71" />
    <circle class="ac8be9fb-f1b7-4ad7-87c9-8e573422c3fe" cx="367.2" cy="470.15" r="6.71" />
    <circle class="ac8be9fb-f1b7-4ad7-87c9-8e573422c3fe" cx="367.2" cy="531.49" r="6.71" />
</svg>